<svg xmlns="http://www.w3.org/2000/svg" xmlns:xlink="http://www.w3.org/1999/xlink" width="320" height="581" viewBox="0 0 320 581"><defs><clipPath id="a"><rect width="320" height="581" fill="#fff"/></clipPath><clipPath id="b"><rect width="876" height="876" transform="translate(0.311 0.312)" fill="none"/></clipPath></defs><g clip-path="url(#a)"><g transform="translate(-221.313 -177.312)" opacity="0.79"><g transform="translate(0 -22)"><rect width="876" height="876" transform="translate(0.311 0.312)" fill="#fdd3ca"/></g><g transform="translate(0 0)"><g clip-path="url(#b)"><path d="M989.468,735.956c-111.37,35.477-234.026,15.617-342.6-27.68-89.993-35.889-174.879-88.624-237.255-162.76-57.494-68.336-93.984-152.266-150.951-221.046-72.31-87.3-175.33-147.474-237.423-242.317C3.949,55.737-9.51,19.875,8.65-5.951c12.2-17.35,34.6-23.7,55.341-28.129,136.836-29.229,278.978-26.3,417.578-7.093,172.863,23.952,347,75.525,482.81,185.121,38.357,30.953,73.607,66.71,98.126,109.467,33.7,58.77,45.385,127.327,53.978,194.528,7.242,56.634,11.944,116.576-4.392,172.129C1093.884,681.98,1049.634,716.789,989.468,735.956Z" transform="translate(0.28 -41.704)" fill="#fdc4b9"/><path d="M180.727,269.4C251.5,321.656,267.645,435.47,347.634,472.109,497.747,540.866,631.943,666.959,622.2,709.46c-13.449,58.661-77.922,89.861-136.972,101.478C359.373,835.7,228.9,809.212,106.882,769.681c-19.622-6.359-39.372-13.167-56.63-24.461-21.642-14.162-38.315-34.694-53.033-55.963a526.129,526.129,0,0,1-70.01-144.135C-89.026,492.449-96.846,435.8-84.408,382.106c12.007-51.837,52.262-110.834,99.132-138.42C63.473,215,138.811,238.444,180.727,269.4Z" transform="translate(-67.813 173.794)" fill="#fdc4b9"/><path d="M768.405,197.335c15.226,45.909,15.075,98.433-8.328,140.76-6.376,11.529-14.564,22.354-25.479,29.73-14.6,9.87-32.879,12.778-50.5,12.7-49.368-.219-98.191-23.039-130.025-60.774-15.226-18.05-26.541-39.029-40.411-58.139A265.868,265.868,0,0,0,401.78,173.041c-29.853-12.493-62.56-19.806-88.379-39.318C278.86,107.616,261.97,60.206,272.227,18.142s47.731-73.234,89.756-83.657C596.5-123.689,753.179,151.426,768.405,197.335Z" transform="translate(202.792 -55.04)" fill="#fdad9d"/><path d="M442.261,674.272c17.206-18.417-2.018-50.349-15.229-71.812C382.885,530.745,298.3,496.943,220.058,465.787c-9.087-3.618-18.359-7.38-25.691-13.852-19.014-16.782-18.551-45.853-26.748-69.854C127.933,265.854-140.3,271.37-69.694,501.723,13.814,774.168,341.018,782.634,442.261,674.272Z" transform="translate(-60.997 231.648)" fill="#fdad9d"/><g transform="translate(440.486 -150.052)"><path d="M257.226-27.288A292.911,292.911,0,0,0,277.54,46.648c5.5,13.018,12.009,25.742,20.926,36.707C323.579,114.229,368.1,127.729,406.132,116,442.254,104.859,472.4,73.5,510.2,73.736c24.142.151,46.139,13.523,65.279,28.239s37.329,31.493,59.73,40.5,50.931,8.247,67.518-9.3" transform="translate(-246.74 129.808)" fill="none" stroke="#edeef3" stroke-miterlimit="10" stroke-width="1"/><path d="M256.029-38.991a292.968,292.968,0,0,0,20.314,73.936c5.5,13.02,12.009,25.744,20.926,36.709,25.113,30.874,69.635,44.374,107.666,32.644C441.057,93.158,471.2,61.795,509,62.033c24.142.152,46.139,13.525,65.279,28.241s37.327,31.491,59.73,40.5,50.931,8.245,67.518-9.3" transform="translate(-247.64 121.006)" fill="none" stroke="#edeef3" stroke-miterlimit="10" stroke-width="1"/><path d="M254.832-50.693a292.982,292.982,0,0,0,20.314,73.936c5.5,13.02,12.009,25.744,20.926,36.707,25.113,30.876,69.635,44.376,107.666,32.646,36.122-11.14,66.267-42.5,104.069-42.265,24.143.152,46.139,13.525,65.279,28.241s37.329,31.491,59.73,40.5,50.931,8.246,67.518-9.3" transform="translate(-248.54 112.205)" fill="none" stroke="#edeef3" stroke-miterlimit="10" stroke-width="1"/><path d="M253.635-62.4a292.909,292.909,0,0,0,20.314,73.936c5.5,13.018,12.009,25.744,20.926,36.707,25.113,30.874,69.635,44.374,107.666,32.646,36.122-11.142,66.267-42.5,104.069-42.265,24.142.152,46.139,13.523,65.279,28.239s37.327,31.493,59.73,40.5,50.931,8.247,67.518-9.3" transform="translate(-249.44 103.403)" fill="none" stroke="#edeef3" stroke-miterlimit="10" stroke-width="1"/><path d="M252.438-74.1A292.981,292.981,0,0,0,272.752-.161c5.5,13.018,12.009,25.742,20.926,36.707C318.791,67.42,363.312,80.92,401.344,69.192c36.122-11.142,66.267-42.5,104.069-42.265,24.142.151,46.137,13.523,65.279,28.239s37.327,31.493,59.73,40.5,50.931,8.245,67.518-9.3" transform="translate(-250.341 94.602)" fill="none" stroke="#edeef3" stroke-miterlimit="10" stroke-width="1"/><path d="M251.241-85.8a292.821,292.821,0,0,0,20.314,73.936c5.5,13.02,12.009,25.744,20.926,36.709,25.113,30.874,69.635,44.374,107.666,32.644,36.122-11.14,66.267-42.5,104.069-42.265,24.143.152,46.137,13.525,65.279,28.241s37.327,31.491,59.73,40.5,50.931,8.245,67.518-9.3" transform="translate(-251.241 85.8)" fill="none" stroke="#edeef3" stroke-miterlimit="10" stroke-width="1"/></g><g transform="translate(-125.425 488.969)"><path d="M150.237,621.533a243.477,243.477,0,0,0,27.223-57.627c3.583-11.187,6.367-22.737,6.679-34.48.881-33.07-19.888-65.692-50.223-78.888C105.1,438,69.108,441.46,45.4,420.841,30.253,407.672,23.623,387.33,19.52,367.685S13.03,327.61,3.779,309.8s-27.656-32.779-47.616-30.7" transform="translate(92.735 -278.912)" fill="none" stroke="#edeef3" stroke-miterlimit="10" stroke-width="0.831"/><path d="M144.655,629.562a243.455,243.455,0,0,0,27.225-57.629c3.581-11.187,6.365-22.737,6.679-34.48.88-33.07-19.888-65.691-50.225-78.888-28.814-12.533-64.808-9.078-88.517-29.695C24.671,415.7,18.041,395.357,13.94,375.712S7.45,335.639-1.8,317.829s-27.656-32.779-47.616-30.694" transform="translate(88.537 -272.873)" fill="none" stroke="#edeef3" stroke-miterlimit="10" stroke-width="0.831"/><path d="M139.072,637.59A243.414,243.414,0,0,0,166.3,579.962c3.583-11.189,6.367-22.739,6.679-34.482.881-33.07-19.888-65.691-50.223-78.886-28.815-12.535-64.808-9.078-88.519-29.7C19.09,423.729,12.459,403.387,8.357,383.74s-6.49-40.073-15.741-57.881S-35.04,293.08-55,295.163" transform="translate(84.339 -266.835)" fill="none" stroke="#edeef3" stroke-miterlimit="10" stroke-width="0.831"/><path d="M133.492,645.618a243.473,243.473,0,0,0,27.223-57.627c3.583-11.187,6.367-22.737,6.679-34.48.881-33.07-19.887-65.692-50.223-78.888-28.814-12.533-64.808-9.078-88.519-29.7C13.508,431.757,6.878,411.415,2.775,391.77S-3.713,351.7-12.966,333.887s-27.656-32.779-47.616-30.7" transform="translate(80.141 -260.797)" fill="none" stroke="#edeef3" stroke-miterlimit="10" stroke-width="0.831"/><path d="M127.91,653.647a243.46,243.46,0,0,0,27.225-57.629c3.581-11.187,6.365-22.737,6.679-34.48.88-33.07-19.888-65.691-50.225-78.888-28.814-12.533-64.806-9.076-88.517-29.7C7.928,439.786,1.3,419.442-2.805,399.8s-6.49-40.073-15.743-57.883S-46.2,309.135-66.164,311.22" transform="translate(75.943 -254.759)" fill="none" stroke="#edeef3" stroke-miterlimit="10" stroke-width="0.831"/><path d="M122.327,661.674a243.414,243.414,0,0,0,27.225-57.627c3.583-11.187,6.367-22.739,6.679-34.482.881-33.07-19.888-65.691-50.223-78.886-28.814-12.535-64.808-9.078-88.519-29.7C2.345,447.814-4.285,427.472-8.388,407.825s-6.49-40.073-15.741-57.881-27.656-32.779-47.616-30.7" transform="translate(71.745 -248.72)" fill="none" stroke="#edeef3" stroke-miterlimit="10" stroke-width="0.831"/></g><path d="M537.822,172.387c-16.9-5.552-31.524-16.277-45.837-26.836-23.8-17.56-48.378-36-62.242-62.125-9.115-17.174-12.994-36.7-14.26-56.1-1.372-21,.92-43.973,15.119-59.506,14-15.317,36.134-19.746,56.788-21.758,45.517-4.433,96.4.857,128.061,33.86,13.73,14.315,22.515,32.568,30.482,50.733,7.788,17.756,15.161,36.66,13.246,55.954-1.824,18.385-10.644,58.2-25.905,70.7C609.781,176.548,565.81,181.585,537.822,172.387Z" transform="translate(312.516 -41.307)" fill="#fdd3ca"/><path d="M78.946,388.492c20.067,8.219,39.566,20.838,49.408,40.162,12.207,23.969,8.312,55.541,26.518,75.341,21.739,23.641,59.833,16.137,91.424,21.923,34.753,6.364,65.966,33.749,72.44,68.484,7.2,38.608-16.721,78.167-50.065,98.918s-74.157,25.765-113.425,25.215c-54.293-.757-111.694-12.885-150.677-50.684-21.017-20.379-35.148-46.757-47.115-73.475C-68.094,537.339-85.053,471.8-67.335,409.9-51.871,355.891,39.485,372.329,78.946,388.492Z" transform="translate(-55.856 280.709)" fill="#edeef3"/></g></g></g></g></svg>