<svg xmlns="http://www.w3.org/2000/svg" xmlns:xlink="http://www.w3.org/1999/xlink" width="1920" height="1920" viewBox="0 0 1920 1920"><defs><clipPath id="a"><rect width="1920" height="1920" fill="none"/></clipPath></defs><g transform="translate(4)"><g transform="translate(-4)" opacity="0.63"><rect width="1920" height="1920" fill="#fdd3ca"/><g clip-path="url(#a)"><path d="M2167.8,1679.458c-244,77.752-512.72,34.226-750.584-60.664-197.162-78.655-383.138-194.231-519.8-356.709C771.456,1112.317,691.511,928.374,566.7,777.635,408.282,586.3,182.58,454.426,46.541,246.566,8.653,188.675-20.836,110.077,18.952,53.476,45.681,15.452,94.755,1.536,140.2-8.172,439.986-72.23,751.4-65.8,1055.057-23.716,1433.777,28.777,1815.292,141.807,2112.831,382c84.036,67.837,161.263,146.2,214.981,239.912,73.841,128.8,99.433,279.053,118.258,426.332,15.865,124.12,26.168,255.49-9.623,377.241C2396.559,1561.164,2299.614,1637.453,2167.8,1679.458Z" transform="translate(-0.001 -158.534)" fill="#fdc4b9"/><path d="M503.765,315.508C658.828,430.043,694.19,679.482,869.437,759.78c328.878,150.689,622.883,427.039,601.536,520.186-29.466,128.563-170.717,196.942-300.088,222.4-275.728,54.259-561.572-3.782-828.9-90.42-42.989-13.936-86.259-28.858-124.07-53.61-47.415-31.039-83.944-76.036-116.189-122.649A1153.245,1153.245,0,0,1-51.661,919.8c-35.569-115.438-52.7-239.585-25.45-357.27C-50.8,448.921,37.389,319.62,140.073,259.163,246.877,196.287,411.932,247.674,503.765,315.508Z" transform="translate(-257 655.183)" fill="#fdc4b9"/><path d="M1362.832,520.133c33.358,100.616,33.028,215.727-18.245,308.494-13.969,25.267-31.907,48.991-55.822,65.157-31.991,21.631-72.033,28.005-110.646,27.836-108.158-.48-215.123-50.492-284.868-133.194-33.358-39.56-58.148-85.536-88.535-127.419A582.516,582.516,0,0,0,559.6,466.887c-65.4-27.379-137.06-43.407-193.627-86.17C290.3,323.5,253.3,219.6,275.768,127.408S380.341-33.092,472.412-55.936C986.219-183.432,1329.473,419.517,1362.832,520.133Z" transform="translate(764.321 -208.889)" fill="#fdad9d"/><path d="M1065.959,1111.187c37.7-40.362-4.422-110.346-33.366-157.386C935.874,796.63,750.551,722.548,579.142,654.265c-19.907-7.93-40.222-16.174-56.287-30.359-41.657-36.779-40.644-100.493-58.6-153.093C377.309,216.087-210.354,228.175-55.667,733.024,127.288,1330.121,844.149,1348.676,1065.959,1111.187Z" transform="translate(-231.274 873.636)" fill="#fdad9d"/><g transform="translate(964.433 -329.472)"><path d="M257.226-27.288a642.128,642.128,0,0,0,44.506,162.04c12.046,28.531,26.31,56.417,45.845,80.448,55.02,67.665,152.561,97.252,235.883,71.547,79.138-24.419,145.182-93.151,228-92.628,52.893.33,101.084,29.637,143.018,61.889s81.783,69.02,130.86,88.754,111.583,18.075,147.923-20.379" transform="translate(-234.251 251.974)" fill="none" stroke="#edeef3" stroke-miterlimit="10" stroke-width="1"/><path d="M256.029-38.991a642.246,642.246,0,0,0,44.506,162.04c12.046,28.535,26.31,56.421,45.845,80.452,55.02,67.665,152.56,97.252,235.883,71.543,79.138-24.415,145.182-93.151,228-92.629,52.893.334,101.084,29.641,143.017,61.893s81.779,69.016,130.86,88.754,111.583,18.071,147.923-20.379" transform="translate(-237.649 218.738)" fill="none" stroke="#edeef3" stroke-miterlimit="10" stroke-width="1"/><path d="M254.832-50.693a642.285,642.285,0,0,0,44.505,162.04c12.046,28.535,26.31,56.421,45.845,80.448,55.02,67.668,152.56,97.256,235.883,71.547,79.138-24.415,145.183-93.151,228-92.628,52.893.334,101.084,29.641,143.018,61.893s81.783,69.016,130.86,88.754,111.582,18.071,147.923-20.379" transform="translate(-241.047 185.504)" fill="none" stroke="#edeef3" stroke-miterlimit="10" stroke-width="1"/><path d="M253.635-62.4a642.119,642.119,0,0,0,44.506,162.04c12.046,28.531,26.31,56.421,45.845,80.448,55.02,67.665,152.561,97.252,235.883,71.547,79.138-24.419,145.183-93.151,228-92.628,52.893.334,101.084,29.637,143.017,61.889s81.779,69.02,130.861,88.754,111.583,18.075,147.923-20.379" transform="translate(-244.445 152.27)" fill="none" stroke="#edeef3" stroke-miterlimit="10" stroke-width="1"/><path d="M252.438-74.1a642.28,642.28,0,0,0,44.506,162.04c12.046,28.531,26.31,56.417,45.845,80.448,55.02,67.665,152.561,97.252,235.883,71.547,79.138-24.419,145.182-93.151,228-92.628,52.893.33,101.08,29.637,143.018,61.889s81.779,69.02,130.861,88.754,111.582,18.071,147.923-20.379" transform="translate(-247.843 119.037)" fill="none" stroke="#edeef3" stroke-miterlimit="10" stroke-width="1"/><path d="M251.241-85.8A641.926,641.926,0,0,0,295.747,76.24c12.046,28.535,26.31,56.421,45.845,80.452,55.02,67.665,152.56,97.252,235.883,71.543,79.138-24.415,145.183-93.151,228-92.628,52.893.334,101.08,29.641,143.017,61.893s81.779,69.016,130.86,88.754,111.583,18.071,147.923-20.379" transform="translate(-251.241 85.8)" fill="none" stroke="#edeef3" stroke-miterlimit="10" stroke-width="1"/></g><g transform="translate(-275.406 1071.023)"><path d="M381.354,1029.808A533.694,533.694,0,0,0,441,903.511c7.85-24.518,13.95-49.832,14.633-75.567,1.931-72.476-43.573-143.973-110.032-172.892-63.127-27.467-141.985-19.9-193.934-65.084-33.178-28.861-47.7-73.444-56.693-116.5S80.751,385.641,60.483,346.611s-60.59-71.839-104.32-67.273" transform="translate(150.967 -278.912)" fill="none" stroke="#edeef3" stroke-miterlimit="10" stroke-width="0.831"/><path d="M375.772,1037.838a533.646,533.646,0,0,0,59.645-126.3c7.846-24.518,13.946-49.832,14.633-75.567C451.977,763.493,406.478,692,340.015,663.077c-63.127-27.468-141.985-19.9-193.93-65.08-33.181-28.862-47.707-73.448-56.693-116.5S75.173,393.67,54.9,354.636-5.689,282.8-49.419,287.367" transform="translate(135.121 -256.11)" fill="none" stroke="#edeef3" stroke-miterlimit="10" stroke-width="0.831"/><path d="M370.187,1045.865a533.556,533.556,0,0,0,59.645-126.3c7.85-24.522,13.95-49.835,14.633-75.571,1.931-72.476-43.573-143.969-110.032-172.888-63.131-27.471-141.985-19.9-193.934-65.084-33.178-28.861-47.707-73.444-56.693-116.5S69.588,401.7,49.32,362.668-11.27,290.829-55,295.395" transform="translate(119.279 -233.31)" fill="none" stroke="#edeef3" stroke-miterlimit="10" stroke-width="0.831"/><path d="M364.609,1053.893A533.689,533.689,0,0,0,424.25,927.6c7.85-24.518,13.95-49.832,14.633-75.567,1.931-72.476-43.569-143.973-110.032-172.892-63.127-27.468-141.985-19.9-193.934-65.084-33.178-28.862-47.7-73.444-56.693-116.5S64.01,409.725,43.738,370.7s-60.59-71.839-104.32-67.273" transform="translate(103.433 -210.511)" fill="none" stroke="#edeef3" stroke-miterlimit="10" stroke-width="0.831"/><path d="M359.027,1061.923a533.656,533.656,0,0,0,59.645-126.3c7.846-24.519,13.946-49.832,14.633-75.567,1.927-72.476-43.573-143.969-110.036-172.892-63.127-27.467-141.981-19.891-193.93-65.08-33.178-28.861-47.707-73.448-56.693-116.5s-14.218-87.825-34.49-126.858-60.586-71.839-104.32-67.269" transform="translate(87.588 -187.709)" fill="none" stroke="#edeef3" stroke-miterlimit="10" stroke-width="0.831"/><path d="M353.442,1069.95a533.555,533.555,0,0,0,59.645-126.3c7.85-24.518,13.95-49.836,14.633-75.571,1.931-72.476-43.573-143.969-110.032-172.888-63.127-27.471-141.985-19.9-193.934-65.084-33.178-28.862-47.7-73.444-56.693-116.5S52.843,425.782,32.575,386.753s-60.59-71.839-104.32-67.273" transform="translate(71.745 -164.909)" fill="none" stroke="#edeef3" stroke-miterlimit="10" stroke-width="0.831"/></g><path d="M683.922,443.7c-37.016-12.169-69.065-35.674-100.424-58.813-52.141-38.484-105.99-78.9-136.365-136.155-19.969-37.64-28.468-80.44-31.243-122.961-3.006-46.026,2.015-96.372,33.124-130.414,30.675-33.569,79.165-43.277,124.415-47.685,99.721-9.715,211.208,1.878,280.565,74.208,30.08,31.373,49.327,71.378,66.781,111.187,17.063,38.915,33.216,80.344,29.02,122.63-4,40.293-23.32,127.549-56.755,154.948C841.577,452.816,745.241,463.856,683.922,443.7Z" transform="translate(1178.443 -157.032)" fill="#fdd3ca"/><path d="M261.845,407.134c43.964,18.013,86.685,45.669,108.247,88.021,26.744,52.531,18.211,121.724,58.1,165.12,47.627,51.813,131.087,35.366,200.3,48.046,76.14,13.947,144.522,73.966,158.706,150.09,15.765,84.614-36.632,171.314-109.686,216.791s-162.468,56.467-248.5,55.261c-118.949-1.659-244.708-28.239-330.115-111.08-46.045-44.663-77-102.474-103.222-161.03-55.972-125-93.126-268.646-54.31-404.291C-24.758,335.683,175.39,371.71,261.845,407.134Z" transform="translate(-211.873 1058.89)" fill="#edeef3"/></g></g></g></svg>