<?xml version="1.0" standalone="no"?>
<!DOCTYPE svg PUBLIC "-//W3C//DTD SVG 1.1//EN" "http://www.w3.org/Graphics/SVG/1.1/DTD/svg11.dtd" >
<svg xmlns="http://www.w3.org/2000/svg" xmlns:xlink="http://www.w3.org/1999/xlink" version="1.1">
<metadata>
Created by FontForge 20190801 at Fri Mar  3 11:32:56 2017
 By root
Copyright \(c\) 2016 by Jakob Runge and Lisa Fischbach, under exclusive license to TypeMates. All rights reserved.
</metadata>
<defs>
<font id="CeraRoundPro-Bold" horiz-adv-x="560" >
  <font-face 
    font-family="Cera Round Pro"
    font-weight="700"
    font-stretch="normal"
    units-per-em="1000"
    panose-1="0 0 8 0 0 0 0 0 0 0"
    ascent="808"
    descent="-192"
    x-height="495"
    cap-height="672"
    bbox="-174 -254 1371 1032.09"
    underline-thickness="87"
    underline-position="-100"
    stemh="113"
    stemv="135"
    unicode-range="U+0020-FB02"
  />
<missing-glyph horiz-adv-x="713" 
d="M572 660c37 0 65 -28 65 -66v-528c0 -38 -28 -66 -65 -66h-431c-37 0 -65 28 -65 66v528c0 38 28 66 65 66h431zM545 77v499h-379z" />
    <glyph glyph-name="fi" unicode="fi" horiz-adv-x="626" 
d="M338 749c21 -9 34 -29 34 -54c0 -33 -23 -55 -59 -55c-4 0 -9 1 -16 1c-46 0 -72 -28 -72 -77v-69h62c33 0 57 -24 57 -57s-24 -57 -57 -57h-62v-324c0 -40 -29 -69 -67 -69c-39 0 -68 30 -68 69v324h-22c-33 0 -58 24 -58 57s25 57 58 57h22v81c0 117 69 186 184 186
c26 0 46 -4 64 -13zM492 594c-47 0 -85 36 -85 81c0 46 38 82 85 82c45 0 84 -36 84 -82c0 -45 -39 -81 -84 -81zM492 506c38 0 67 -29 67 -68v-381c0 -39 -29 -69 -68 -69c-38 0 -67 30 -67 69v381c0 39 29 68 68 68z" />
    <glyph glyph-name="fl" unicode="fl" horiz-adv-x="626" 
d="M338 749c21 -9 34 -29 34 -54c0 -33 -23 -55 -59 -55c-4 0 -9 1 -16 1c-46 0 -72 -28 -72 -77v-69h62c33 0 57 -24 57 -57s-24 -57 -57 -57h-62v-324c0 -40 -29 -69 -67 -69c-39 0 -68 30 -68 69v324h-22c-33 0 -58 24 -58 57s25 57 58 57h22v81c0 117 69 186 184 186
c26 0 46 -4 64 -13zM492 762c38 0 67 -30 67 -69v-636c0 -39 -29 -69 -67 -69c-39 0 -68 30 -68 69v636c0 39 29 69 68 69z" />
    <glyph glyph-name=".notdef" horiz-adv-x="713" 
d="M572 660c37 0 65 -28 65 -66v-528c0 -38 -28 -66 -65 -66h-431c-37 0 -65 28 -65 66v528c0 38 28 66 65 66h431zM545 77v499h-379z" />
    <glyph glyph-name="A" unicode="A" horiz-adv-x="662" 
d="M620 89c6 -14 8 -26 8 -36c0 -36 -28 -65 -66 -65c-29 0 -51 17 -64 48l-28 68h-279l-28 -68c-12 -31 -34 -48 -63 -48c-38 0 -67 29 -67 65c0 10 3 22 8 36l226 537c12 30 34 46 64 46s52 -16 64 -46zM331 473l-96 -258h190z" />
    <glyph glyph-name="Aacute" unicode="&#xc1;" horiz-adv-x="662" 
d="M347 719c-49 1 -68 55 -51 88l52 100c15 29 43 36 62 35c53 -1 84 -64 51 -107l-64 -90c-17 -22 -39 -26 -50 -26zM620 89c6 -14 8 -26 8 -36c0 -36 -28 -65 -66 -65c-29 0 -51 17 -64 48l-28 68h-279l-28 -68c-12 -31 -34 -48 -63 -48c-38 0 -67 29 -67 65
c0 10 3 22 8 36l226 537c12 30 34 46 64 46s52 -16 64 -46zM331 473l-96 -258h190z" />
    <glyph glyph-name="Abreve" unicode="&#x102;" horiz-adv-x="662" 
d="M331 726c-87 0 -168 65 -168 137c0 30 22 52 52 52c21 0 36 -11 50 -38c14 -33 36 -49 66 -49s53 17 65 49c13 26 29 38 51 38c30 0 51 -22 51 -52c0 -72 -81 -137 -167 -137zM620 89c6 -14 8 -26 8 -36c0 -36 -28 -65 -66 -65c-29 0 -51 17 -64 48l-28 68h-279l-28 -68
c-12 -31 -34 -48 -63 -48c-38 0 -67 29 -67 65c0 10 3 22 8 36l226 537c12 30 34 46 64 46s52 -16 64 -46zM331 473l-96 -258h190z" />
    <glyph glyph-name="Acircumflex" unicode="&#xc2;" horiz-adv-x="662" 
d="M208 722c-27 0 -49 22 -49 50c0 18 11 29 30 47l94 92c14 13 30 20 47 20s32 -6 47 -20l94 -92c19 -18 30 -29 30 -47c0 -28 -22 -50 -49 -50c-11 0 -24 3 -39 16l-83 76l-83 -76c-15 -13 -28 -16 -39 -16zM620 89c6 -14 8 -26 8 -36c0 -36 -28 -65 -66 -65
c-29 0 -51 17 -64 48l-28 68h-279l-28 -68c-12 -31 -34 -48 -63 -48c-38 0 -67 29 -67 65c0 10 3 22 8 36l226 537c12 30 34 46 64 46s52 -16 64 -46zM331 473l-96 -258h190z" />
    <glyph glyph-name="Adieresis" unicode="&#xc4;" horiz-adv-x="662" 
d="M202 737c-41 0 -81 36 -81 77c0 45 40 78 81 78c44 0 81 -33 81 -78c0 -41 -37 -77 -81 -77zM460 736c-41 0 -81 36 -81 77c0 45 40 79 81 79c44 0 81 -34 81 -79c0 -41 -37 -77 -81 -77zM620 89c6 -14 8 -26 8 -36c0 -36 -28 -65 -66 -65c-29 0 -51 17 -64 48l-28 68
h-279l-28 -68c-12 -31 -34 -48 -63 -48c-38 0 -67 29 -67 65c0 10 3 22 8 36l226 537c12 30 34 46 64 46s52 -16 64 -46zM331 473l-96 -258h190z" />
    <glyph glyph-name="Agrave" unicode="&#xc0;" horiz-adv-x="662" 
d="M266 745l-64 90c-33 43 -2 106 51 107c19 1 47 -6 62 -35l52 -100c17 -33 -2 -87 -51 -88c-11 0 -33 4 -50 26zM620 89c6 -14 8 -26 8 -36c0 -36 -28 -65 -66 -65c-29 0 -51 17 -64 48l-28 68h-279l-28 -68c-12 -31 -34 -48 -63 -48c-38 0 -67 29 -67 65c0 10 3 22 8 36
l226 537c12 30 34 46 64 46s52 -16 64 -46zM331 473l-96 -258h190z" />
    <glyph glyph-name="Amacron" unicode="&#x100;" horiz-adv-x="662" 
d="M217 757c-31 0 -55 23 -55 53s24 53 55 53h229c31 0 54 -23 54 -53s-23 -53 -54 -53h-229zM620 89c6 -14 8 -26 8 -36c0 -36 -28 -65 -66 -65c-29 0 -51 17 -64 48l-28 68h-279l-28 -68c-12 -31 -34 -48 -63 -48c-38 0 -67 29 -67 65c0 10 3 22 8 36l226 537
c12 30 34 46 64 46s52 -16 64 -46zM331 473l-96 -258h190z" />
    <glyph glyph-name="Aogonek" unicode="&#x104;" horiz-adv-x="662" 
d="M600 -93c25 0 41 -18 41 -44c0 -23 -13 -41 -38 -48c-16 -4 -38 -7 -60 -7c-73 0 -120 40 -120 103c0 47 25 80 76 123c0 1 -1 1 -1 2l-28 68h-279l-28 -68c-12 -31 -34 -48 -63 -48c-38 0 -67 29 -67 65c0 10 3 22 8 36l226 537c12 30 34 46 64 46s52 -16 64 -46
l225 -537c6 -14 8 -26 8 -36c0 -23 -11 -43 -30 -55c-25 -22 -49 -45 -49 -66c0 -15 12 -26 35 -26c7 0 12 1 16 1zM331 473l-96 -258h190z" />
    <glyph glyph-name="Aring" unicode="&#xc5;" horiz-adv-x="662" 
d="M330 675c-72 0 -126 53 -126 123c0 69 54 121 126 121c73 0 127 -52 127 -121c0 -71 -54 -123 -127 -123zM331 839c-23 0 -41 -17 -41 -41s18 -42 41 -42s41 18 41 42c0 23 -18 41 -41 41zM620 89c6 -14 8 -26 8 -36c0 -36 -28 -65 -66 -65c-29 0 -51 17 -64 48l-28 68
h-279l-28 -68c-12 -31 -34 -48 -63 -48c-38 0 -67 29 -67 65c0 10 3 22 8 36l226 537c12 30 34 46 64 46s52 -16 64 -46zM331 473l-96 -258h190z" />
    <glyph glyph-name="Atilde" unicode="&#xc3;" horiz-adv-x="662" 
d="M186 717c-34 0 -55 22 -55 57c0 76 49 129 117 129c23 0 49 -7 74 -21l31 -18c19 -10 31 -17 44 -17c17 0 26 9 30 27c6 23 24 37 50 37c33 0 54 -22 54 -57c0 -76 -48 -129 -117 -129c-23 0 -49 7 -74 21l-30 17c-20 11 -32 17 -45 17c-16 0 -25 -8 -30 -27
c-6 -22 -24 -36 -49 -36zM620 89c6 -14 8 -26 8 -36c0 -36 -28 -65 -66 -65c-29 0 -51 17 -64 48l-28 68h-279l-28 -68c-12 -31 -34 -48 -63 -48c-38 0 -67 29 -67 65c0 10 3 22 8 36l226 537c12 30 34 46 64 46s52 -16 64 -46zM331 473l-96 -258h190z" />
    <glyph glyph-name="AE" unicode="&#xc6;" horiz-adv-x="853" 
d="M758 122c36 0 62 -27 62 -61c0 -35 -27 -61 -62 -61h-246c-33 0 -59 22 -65 53l-5 33h-248l-31 -60c-11 -24 -32 -38 -56 -38c-39 0 -67 27 -67 64c0 11 3 23 8 32l272 530c16 32 38 46 71 46h355c36 0 62 -26 62 -61c0 -34 -27 -61 -62 -61h-247l22 -134h148
c33 0 58 -24 58 -58c0 -32 -25 -57 -58 -57h-129l28 -167h190zM380 466l-129 -269h172z" />
    <glyph glyph-name="AEacute" unicode="&#x1fc;" horiz-adv-x="853" 
d="M437 719c-49 1 -68 55 -51 88l52 100c15 29 43 36 62 35c53 -1 84 -64 51 -107l-64 -90c-17 -22 -39 -26 -50 -26zM758 122c36 0 62 -27 62 -61c0 -35 -27 -61 -62 -61h-246c-33 0 -59 22 -65 53l-5 33h-248l-31 -60c-11 -24 -32 -38 -56 -38c-39 0 -67 27 -67 64
c0 11 3 23 8 32l272 530c16 32 38 46 71 46h355c36 0 62 -26 62 -61c0 -34 -27 -61 -62 -61h-247l22 -134h148c33 0 58 -24 58 -58c0 -32 -25 -57 -58 -57h-129l28 -167h190zM380 466l-129 -269h172z" />
    <glyph glyph-name="B" unicode="B" horiz-adv-x="620" 
d="M469 357c74 -26 118 -84 118 -163c0 -114 -90 -194 -218 -194h-225c-40 0 -69 29 -69 69v522c0 40 29 69 69 69h165c123 0 209 -75 209 -184c0 -49 -17 -89 -49 -119zM299 544h-93v-151h93c53 0 86 29 86 76s-33 75 -86 75zM359 116c59 0 94 30 94 83c0 52 -35 83 -94 83
h-153v-166h153z" />
    <glyph glyph-name="C" unicode="C" horiz-adv-x="720" 
d="M389 -12c-198 0 -351 150 -351 342s154 342 352 342c101 0 196 -43 255 -114c14 -16 21 -32 21 -50c0 -33 -28 -61 -63 -61c-19 0 -37 9 -52 26c-43 50 -97 74 -161 74c-124 0 -213 -91 -213 -218c0 -126 89 -216 213 -216c63 0 116 24 160 74c16 17 33 26 53 26
c35 0 62 -28 62 -61c0 -16 -6 -32 -21 -50c-58 -71 -153 -114 -255 -114z" />
    <glyph glyph-name="Cacute" unicode="&#x106;" horiz-adv-x="720" 
d="M405 726c-49 1 -68 55 -51 88l52 100c15 29 43 36 62 35c53 -1 84 -64 51 -107l-64 -90c-17 -22 -39 -26 -50 -26zM389 -12c-198 0 -351 150 -351 342s154 342 352 342c101 0 196 -43 255 -114c14 -16 21 -32 21 -50c0 -33 -28 -61 -63 -61c-19 0 -37 9 -52 26
c-43 50 -97 74 -161 74c-124 0 -213 -91 -213 -218c0 -126 89 -216 213 -216c63 0 116 24 160 74c16 17 33 26 53 26c35 0 62 -28 62 -61c0 -16 -6 -32 -21 -50c-58 -71 -153 -114 -255 -114z" />
    <glyph glyph-name="Ccaron" unicode="&#x10c;" horiz-adv-x="720" 
d="M247 841c-19 18 -30 29 -30 47c0 28 22 50 49 50c11 0 24 -3 39 -16l83 -76l83 76c15 13 28 16 39 16c27 0 49 -22 49 -50c0 -18 -11 -29 -30 -47l-94 -92c-15 -14 -30 -20 -47 -20s-33 7 -47 20zM603 213c35 0 62 -28 62 -61c0 -16 -6 -32 -21 -50
c-58 -71 -153 -114 -255 -114c-198 0 -351 150 -351 342s154 342 352 342c101 0 196 -43 255 -114c14 -16 21 -32 21 -50c0 -33 -28 -61 -63 -61c-19 0 -37 9 -52 26c-43 50 -97 74 -161 74c-124 0 -213 -91 -213 -218c0 -126 89 -216 213 -216c63 0 116 24 160 74
c16 17 33 26 53 26z" />
    <glyph glyph-name="Ccedilla" unicode="&#xc7;" horiz-adv-x="720" 
d="M603 213c35 0 62 -28 62 -61c0 -16 -6 -32 -21 -50c-40 -49 -99 -85 -165 -103c10 -20 17 -42 17 -62c0 -79 -61 -129 -154 -129c-29 0 -49 3 -65 9c-21 9 -32 23 -32 43c0 27 21 48 48 48c10 0 20 -1 32 -1c33 0 58 12 58 40c0 17 -5 30 -12 41
c-189 9 -333 156 -333 342c0 192 154 342 352 342c101 0 196 -43 255 -114c14 -16 21 -32 21 -50c0 -33 -28 -61 -63 -61c-19 0 -37 9 -52 26c-43 50 -97 74 -161 74c-124 0 -213 -91 -213 -218c0 -126 89 -216 213 -216c63 0 116 24 160 74c16 17 33 26 53 26z" />
    <glyph glyph-name="Ccircumflex" unicode="&#x108;" horiz-adv-x="720" 
d="M266 729c-27 0 -49 22 -49 50c0 18 11 29 30 47l94 92c14 13 30 20 47 20s32 -6 47 -20l94 -92c19 -18 30 -29 30 -47c0 -28 -22 -50 -49 -50c-11 0 -24 3 -39 16l-83 76l-83 -76c-15 -13 -28 -16 -39 -16zM603 213c35 0 62 -28 62 -61c0 -16 -6 -32 -21 -50
c-58 -71 -153 -114 -255 -114c-198 0 -351 150 -351 342s154 342 352 342c101 0 196 -43 255 -114c14 -16 21 -32 21 -50c0 -33 -28 -61 -63 -61c-19 0 -37 9 -52 26c-43 50 -97 74 -161 74c-124 0 -213 -91 -213 -218c0 -126 89 -216 213 -216c63 0 116 24 160 74
c16 17 33 26 53 26z" />
    <glyph glyph-name="Cdotaccent" unicode="&#x10a;" horiz-adv-x="720" 
d="M389 903c45 0 84 -35 84 -81s-39 -81 -84 -81c-47 0 -85 35 -85 81s38 81 85 81zM389 -12c-198 0 -351 150 -351 342s154 342 352 342c101 0 196 -43 255 -114c14 -16 21 -32 21 -50c0 -33 -28 -61 -63 -61c-19 0 -37 9 -52 26c-43 50 -97 74 -161 74
c-124 0 -213 -91 -213 -218c0 -126 89 -216 213 -216c63 0 116 24 160 74c16 17 33 26 53 26c35 0 62 -28 62 -61c0 -16 -6 -32 -21 -50c-58 -71 -153 -114 -255 -114z" />
    <glyph glyph-name="D" unicode="D" horiz-adv-x="690" 
d="M292 660c214 0 359 -132 359 -328s-148 -332 -359 -332h-148c-40 0 -69 29 -69 69v522c0 40 29 69 69 69h148zM291 538h-81v-416h81c133 0 222 83 222 210s-85 206 -222 206z" />
    <glyph glyph-name="Eth" unicode="&#xd0;" horiz-adv-x="690" 
d="M292 660c214 0 359 -132 359 -328s-148 -332 -359 -332h-148c-40 0 -69 29 -69 69v188h-28c-35 0 -62 24 -62 57c0 32 27 56 62 56h28v221c0 40 29 69 69 69h148zM291 122c133 0 222 83 222 210s-85 206 -222 206h-81v-168h54c35 0 62 -24 62 -56c0 -33 -27 -57 -62 -57
h-54v-135h81z" />
    <glyph glyph-name="Dcaron" unicode="&#x10e;" horiz-adv-x="690" 
d="M155 834c-19 18 -30 29 -30 47c0 28 22 50 49 50c11 0 24 -3 39 -16l83 -76l83 76c15 13 28 16 39 16c27 0 49 -22 49 -50c0 -18 -11 -29 -30 -47l-94 -92c-15 -14 -30 -20 -47 -20s-33 7 -47 20zM292 660c214 0 359 -132 359 -328s-148 -332 -359 -332h-148
c-40 0 -69 29 -69 69v522c0 40 29 69 69 69h148zM291 122c133 0 222 83 222 210s-85 206 -222 206h-81v-416h81z" />
    <glyph glyph-name="Dcroat" unicode="&#x110;" horiz-adv-x="690" 
d="M292 660c214 0 359 -132 359 -328s-148 -332 -359 -332h-148c-40 0 -69 29 -69 69v188h-28c-35 0 -62 24 -62 57c0 32 27 56 62 56h28v221c0 40 29 69 69 69h148zM291 122c133 0 222 83 222 210s-85 206 -222 206h-81v-168h54c35 0 62 -24 62 -56c0 -33 -27 -57 -62 -57
h-54v-135h81z" />
    <glyph glyph-name="E" unicode="E" horiz-adv-x="572" 
d="M142 0c-38 0 -67 29 -67 67v526c0 38 29 67 67 67h323c36 0 62 -26 62 -61c0 -34 -27 -61 -62 -61h-255v-134h175c34 0 59 -25 59 -58c0 -32 -25 -57 -59 -57h-175v-167h267c36 0 62 -27 62 -61c0 -35 -27 -61 -62 -61h-335z" />
    <glyph glyph-name="Eacute" unicode="&#xc9;" horiz-adv-x="572" 
d="M310 719c-49 1 -68 55 -51 88l52 100c15 29 43 36 62 35c53 -1 84 -64 51 -107l-64 -90c-17 -22 -39 -26 -50 -26zM142 0c-38 0 -67 29 -67 67v526c0 38 29 67 67 67h323c36 0 62 -26 62 -61c0 -34 -27 -61 -62 -61h-255v-134h175c34 0 59 -25 59 -58
c0 -32 -25 -57 -59 -57h-175v-167h267c36 0 62 -27 62 -61c0 -35 -27 -61 -62 -61h-335z" />
    <glyph glyph-name="Ebreve" unicode="&#x114;" horiz-adv-x="572" 
d="M294 726c-87 0 -168 65 -168 137c0 30 22 52 52 52c21 0 36 -11 50 -38c14 -33 36 -49 66 -49s53 17 65 49c13 26 29 38 51 38c30 0 51 -22 51 -52c0 -72 -81 -137 -167 -137zM142 0c-38 0 -67 29 -67 67v526c0 38 29 67 67 67h323c36 0 62 -26 62 -61
c0 -34 -27 -61 -62 -61h-255v-134h175c34 0 59 -25 59 -58c0 -32 -25 -57 -59 -57h-175v-167h267c36 0 62 -27 62 -61c0 -35 -27 -61 -62 -61h-335z" />
    <glyph glyph-name="Ecaron" unicode="&#x11a;" horiz-adv-x="572" 
d="M152 834c-19 18 -30 29 -30 47c0 28 22 50 49 50c11 0 24 -3 39 -16l83 -76l83 76c15 13 28 16 39 16c27 0 49 -22 49 -50c0 -18 -11 -29 -30 -47l-94 -92c-15 -14 -30 -20 -47 -20s-33 7 -47 20zM477 122c36 0 62 -27 62 -61c0 -35 -27 -61 -62 -61h-335
c-38 0 -67 29 -67 67v526c0 38 29 67 67 67h323c36 0 62 -26 62 -61c0 -34 -27 -61 -62 -61h-255v-134h175c34 0 59 -25 59 -58c0 -32 -25 -57 -59 -57h-175v-167h267z" />
    <glyph glyph-name="Ecircumflex" unicode="&#xca;" horiz-adv-x="572" 
d="M171 722c-27 0 -49 22 -49 50c0 18 11 29 30 47l94 92c14 13 30 20 47 20s32 -6 47 -20l94 -92c19 -18 30 -29 30 -47c0 -28 -22 -50 -49 -50c-11 0 -24 3 -39 16l-83 76l-83 -76c-15 -13 -28 -16 -39 -16zM477 122c36 0 62 -27 62 -61c0 -35 -27 -61 -62 -61h-335
c-38 0 -67 29 -67 67v526c0 38 29 67 67 67h323c36 0 62 -26 62 -61c0 -34 -27 -61 -62 -61h-255v-134h175c34 0 59 -25 59 -58c0 -32 -25 -57 -59 -57h-175v-167h267z" />
    <glyph glyph-name="Edieresis" unicode="&#xcb;" horiz-adv-x="572" 
d="M165 737c-41 0 -81 36 -81 77c0 45 40 78 81 78c44 0 81 -33 81 -78c0 -41 -37 -77 -81 -77zM423 736c-41 0 -81 36 -81 77c0 45 40 79 81 79c44 0 81 -34 81 -79c0 -41 -37 -77 -81 -77zM142 0c-38 0 -67 29 -67 67v526c0 38 29 67 67 67h323c36 0 62 -26 62 -61
c0 -34 -27 -61 -62 -61h-255v-134h175c34 0 59 -25 59 -58c0 -32 -25 -57 -59 -57h-175v-167h267c36 0 62 -27 62 -61c0 -35 -27 -61 -62 -61h-335z" />
    <glyph glyph-name="Edotaccent" unicode="&#x116;" horiz-adv-x="572" 
d="M294 896c45 0 84 -35 84 -81s-39 -81 -84 -81c-47 0 -85 35 -85 81s38 81 85 81zM142 0c-38 0 -67 29 -67 67v526c0 38 29 67 67 67h323c36 0 62 -26 62 -61c0 -34 -27 -61 -62 -61h-255v-134h175c34 0 59 -25 59 -58c0 -32 -25 -57 -59 -57h-175v-167h267
c36 0 62 -27 62 -61c0 -35 -27 -61 -62 -61h-335z" />
    <glyph glyph-name="Egrave" unicode="&#xc8;" horiz-adv-x="572" 
d="M279 719c-11 0 -33 4 -50 26l-64 90c-33 43 -2 106 51 107c19 1 47 -6 62 -35l52 -100c17 -33 -2 -87 -51 -88zM142 0c-38 0 -67 29 -67 67v526c0 38 29 67 67 67h323c36 0 62 -26 62 -61c0 -34 -27 -61 -62 -61h-255v-134h175c34 0 59 -25 59 -58c0 -32 -25 -57 -59 -57
h-175v-167h267c36 0 62 -27 62 -61c0 -35 -27 -61 -62 -61h-335z" />
    <glyph glyph-name="Emacron" unicode="&#x112;" horiz-adv-x="572" 
d="M409 863c31 0 54 -23 54 -53s-23 -53 -54 -53h-229c-31 0 -55 23 -55 53s24 53 55 53h229zM142 0c-38 0 -67 29 -67 67v526c0 38 29 67 67 67h323c36 0 62 -26 62 -61c0 -34 -27 -61 -62 -61h-255v-134h175c34 0 59 -25 59 -58c0 -32 -25 -57 -59 -57h-175v-167h267
c36 0 62 -27 62 -61c0 -35 -27 -61 -62 -61h-335z" />
    <glyph glyph-name="Eogonek" unicode="&#x118;" horiz-adv-x="573" 
d="M497 -93c25 0 42 -18 42 -44c0 -23 -14 -41 -39 -48c-16 -4 -37 -7 -60 -7c-72 0 -120 40 -120 100c0 29 20 63 46 92h-224c-38 0 -67 29 -67 67v526c0 38 29 67 67 67h323c36 0 62 -26 62 -61c0 -34 -27 -61 -62 -61h-255v-134h175c34 0 59 -25 59 -58
c0 -32 -25 -57 -59 -57h-175v-167h267c36 0 62 -27 62 -61c0 -8 -1 -15 -4 -21c-2 -10 -8 -17 -15 -24l-38 -33c-29 -25 -36 -36 -36 -51c0 -16 14 -26 36 -26c5 0 12 1 15 1z" />
    <glyph glyph-name="F" unicode="F" horiz-adv-x="534" 
d="M143 -12c-40 0 -68 30 -68 69v534c0 40 29 69 69 69h311c36 0 62 -26 62 -61c0 -34 -27 -61 -62 -61h-245v-165h191c36 0 62 -27 62 -61c0 -35 -27 -61 -62 -61h-191v-194c0 -39 -28 -69 -67 -69z" />
    <glyph glyph-name="G" unicode="G" horiz-adv-x="747" 
d="M391 -12c-199 0 -353 149 -353 342s154 342 353 342c90 0 180 -36 234 -93c29 -27 41 -48 41 -71c0 -33 -28 -61 -62 -61c-21 0 -37 8 -57 30c-45 48 -94 70 -158 70c-125 0 -212 -88 -212 -217c0 -131 90 -221 220 -221c73 0 136 29 174 79v57h-126c-36 0 -63 25 -63 58
c0 34 27 59 63 59h192c40 0 69 -29 69 -69v-85c0 -30 -6 -52 -21 -75c-60 -88 -177 -145 -294 -145z" />
    <glyph glyph-name="Gbreve" unicode="&#x11e;" horiz-adv-x="747" 
d="M388 726c-87 0 -168 65 -168 137c0 30 22 52 52 52c21 0 36 -11 50 -38c14 -33 36 -49 66 -49s53 17 65 49c13 26 29 38 51 38c30 0 51 -22 51 -52c0 -72 -81 -137 -167 -137zM391 -12c-199 0 -353 149 -353 342s154 342 353 342c90 0 180 -36 234 -93
c29 -27 41 -48 41 -71c0 -33 -28 -61 -62 -61c-21 0 -37 8 -57 30c-45 48 -94 70 -158 70c-125 0 -212 -88 -212 -217c0 -131 90 -221 220 -221c73 0 136 29 174 79v57h-126c-36 0 -63 25 -63 58c0 34 27 59 63 59h192c40 0 69 -29 69 -69v-85c0 -30 -6 -52 -21 -75
c-60 -88 -177 -145 -294 -145z" />
    <glyph glyph-name="Gcircumflex" unicode="&#x11c;" horiz-adv-x="747" 
d="M265 722c-27 0 -49 22 -49 50c0 18 11 29 30 47l94 92c14 13 30 20 47 20s32 -6 47 -20l94 -92c19 -18 30 -29 30 -47c0 -28 -22 -50 -49 -50c-11 0 -24 3 -39 16l-83 76l-83 -76c-15 -13 -28 -16 -39 -16zM637 362c40 0 69 -29 69 -69v-85c0 -30 -6 -52 -21 -75
c-60 -88 -177 -145 -294 -145c-199 0 -353 149 -353 342s154 342 353 342c90 0 180 -36 234 -93c29 -27 41 -48 41 -71c0 -33 -28 -61 -62 -61c-21 0 -37 8 -57 30c-45 48 -94 70 -158 70c-125 0 -212 -88 -212 -217c0 -131 90 -221 220 -221c73 0 136 29 174 79v57h-126
c-36 0 -63 25 -63 58c0 34 27 59 63 59h192z" />
    <glyph glyph-name="Gcommaaccent" unicode="&#x122;" horiz-adv-x="747" 
d="M391 -12c-199 0 -353 149 -353 342s154 342 353 342c90 0 180 -36 234 -93c29 -27 41 -48 41 -71c0 -33 -28 -61 -62 -61c-21 0 -37 8 -57 30c-45 48 -94 70 -158 70c-125 0 -212 -88 -212 -217c0 -131 90 -221 220 -221c73 0 136 29 174 79v57h-126c-36 0 -63 25 -63 58
c0 34 27 59 63 59h192c40 0 69 -29 69 -69v-85c0 -30 -6 -52 -21 -75c-60 -88 -177 -145 -294 -145zM357 -254c-30 0 -58 26 -58 56c0 27 12 45 12 91c0 37 31 67 68 67s67 -30 67 -67c0 -42 -15 -90 -37 -116c-15 -21 -33 -31 -52 -31z" />
    <glyph glyph-name="Gdotaccent" unicode="&#x120;" horiz-adv-x="747" 
d="M388 896c45 0 84 -35 84 -81s-39 -81 -84 -81c-47 0 -85 35 -85 81s38 81 85 81zM391 -12c-199 0 -353 149 -353 342s154 342 353 342c90 0 180 -36 234 -93c29 -27 41 -48 41 -71c0 -33 -28 -61 -62 -61c-21 0 -37 8 -57 30c-45 48 -94 70 -158 70
c-125 0 -212 -88 -212 -217c0 -131 90 -221 220 -221c73 0 136 29 174 79v57h-126c-36 0 -63 25 -63 58c0 34 27 59 63 59h192c40 0 69 -29 69 -69v-85c0 -30 -6 -52 -21 -75c-60 -88 -177 -145 -294 -145z" />
    <glyph glyph-name="H" unicode="H" horiz-adv-x="712" 
d="M143 -12c-39 0 -68 30 -68 70v544c0 40 28 70 68 70c39 0 67 -30 67 -70v-195h292v196c0 40 28 69 68 69c39 0 67 -29 67 -69v-545c0 -40 -29 -70 -67 -70c-39 0 -68 30 -68 70v227h-292v-227c0 -40 -29 -70 -67 -70z" />
    <glyph glyph-name="Hbar" unicode="&#x126;" horiz-adv-x="732" 
d="M152 -12c-38 0 -67 30 -67 69v379h-43c-33 0 -57 24 -57 56c0 33 24 57 57 57h43v54c0 39 29 69 67 69c39 0 68 -30 68 -69v-54h292v54c0 39 28 69 67 69s68 -30 68 -69v-54h43c33 0 57 -24 57 -57c0 -32 -24 -56 -57 -56h-43v-379c0 -39 -29 -69 -68 -69
c-38 0 -67 30 -67 69v157h-292v-157c0 -39 -29 -69 -68 -69zM220 330h292v106h-292v-106z" />
    <glyph glyph-name="Hcircumflex" unicode="&#x124;" horiz-adv-x="712" 
d="M233 722c-27 0 -49 22 -49 50c0 18 11 29 30 47l94 92c14 13 30 20 47 20s32 -6 47 -20l94 -92c19 -18 30 -29 30 -47c0 -28 -22 -50 -49 -50c-11 0 -24 3 -39 16l-83 76l-83 -76c-15 -13 -28 -16 -39 -16zM570 672c39 0 67 -29 67 -69v-545c0 -40 -29 -70 -67 -70
c-39 0 -68 30 -68 70v227h-292v-227c0 -40 -29 -70 -67 -70c-39 0 -68 30 -68 70v544c0 40 28 70 68 70c39 0 67 -30 67 -70v-195h292v196c0 40 28 69 68 69z" />
    <glyph glyph-name="I" unicode="I" horiz-adv-x="285" 
d="M143 -12c-40 0 -68 30 -68 69v546c0 39 28 69 68 69c39 0 67 -30 67 -69v-546c0 -39 -28 -69 -67 -69z" />
    <glyph glyph-name="IJ" unicode="&#x132;" horiz-adv-x="673" 
d="M143 -12c-40 0 -68 30 -68 69v546c0 39 28 69 68 69c39 0 67 -30 67 -69v-546c0 -39 -28 -69 -67 -69zM391 -12c-26 0 -46 3 -62 9c-23 10 -39 33 -39 57c0 34 27 60 63 60c16 0 31 -3 48 -3c38 0 62 25 62 66v426c0 39 28 69 68 69c39 0 67 -30 67 -69v-427
c0 -124 -70 -188 -207 -188z" />
    <glyph glyph-name="Iacute" unicode="&#xcd;" horiz-adv-x="285" 
d="M159 719c-49 1 -68 55 -51 88l52 100c15 29 43 36 62 35c53 -1 84 -64 51 -107l-64 -90c-17 -22 -39 -26 -50 -26zM143 -12c-40 0 -68 30 -68 69v546c0 39 28 69 68 69c39 0 67 -30 67 -69v-546c0 -39 -28 -69 -67 -69z" />
    <glyph glyph-name="Ibreve" unicode="&#x12c;" horiz-adv-x="285" 
d="M143 726c-87 0 -168 65 -168 137c0 30 22 52 52 52c21 0 36 -11 50 -38c14 -33 36 -49 66 -49s53 17 65 49c13 26 29 38 51 38c30 0 51 -22 51 -52c0 -72 -81 -137 -167 -137zM143 -12c-40 0 -68 30 -68 69v546c0 39 28 69 68 69c39 0 67 -30 67 -69v-546
c0 -39 -28 -69 -67 -69z" />
    <glyph glyph-name="Icircumflex" unicode="&#xce;" horiz-adv-x="285" 
d="M283 819c19 -18 30 -29 30 -47c0 -28 -22 -50 -49 -50c-11 0 -24 3 -39 16l-83 76l-83 -76c-15 -13 -28 -16 -39 -16c-27 0 -49 22 -49 50c0 18 11 29 30 47l94 92c14 13 30 20 47 20s32 -6 47 -20zM143 672c39 0 67 -30 67 -69v-546c0 -39 -28 -69 -67 -69
c-40 0 -68 30 -68 69v546c0 39 28 69 68 69z" />
    <glyph glyph-name="Idieresis" unicode="&#xcf;" horiz-adv-x="285" 
d="M14 737c-41 0 -81 36 -81 77c0 45 40 78 81 78c44 0 81 -33 81 -78c0 -41 -37 -77 -81 -77zM272 736c-41 0 -81 36 -81 77c0 45 40 79 81 79c44 0 81 -34 81 -79c0 -41 -37 -77 -81 -77zM143 -12c-40 0 -68 30 -68 69v546c0 39 28 69 68 69c39 0 67 -30 67 -69v-546
c0 -39 -28 -69 -67 -69z" />
    <glyph glyph-name="Idotaccent" unicode="&#x130;" horiz-adv-x="285" 
d="M143 896c45 0 84 -35 84 -81s-39 -81 -84 -81c-47 0 -85 35 -85 81s38 81 85 81zM143 -12c-40 0 -68 30 -68 69v546c0 39 28 69 68 69c39 0 67 -30 67 -69v-546c0 -39 -28 -69 -67 -69z" />
    <glyph glyph-name="Igrave" unicode="&#xcc;" horiz-adv-x="285" 
d="M128 719c-11 0 -33 4 -50 26l-64 90c-33 43 -2 106 51 107c19 1 47 -6 62 -35l52 -100c17 -33 -2 -87 -51 -88zM143 -12c-40 0 -68 30 -68 69v546c0 39 28 69 68 69c39 0 67 -30 67 -69v-546c0 -39 -28 -69 -67 -69z" />
    <glyph glyph-name="Imacron" unicode="&#x12a;" horiz-adv-x="285" 
d="M258 863c31 0 54 -23 54 -53s-23 -53 -54 -53h-229c-31 0 -55 23 -55 53s24 53 55 53h229zM143 -12c-40 0 -68 30 -68 69v546c0 39 28 69 68 69c39 0 67 -30 67 -69v-546c0 -39 -28 -69 -67 -69z" />
    <glyph glyph-name="Iogonek" unicode="&#x12e;" horiz-adv-x="285" 
d="M184 -93c25 0 41 -18 41 -44c0 -23 -13 -41 -38 -48c-16 -4 -38 -7 -60 -7c-73 0 -120 40 -120 103c0 46 24 79 72 120c-2 8 -4 17 -4 26v546c0 39 28 69 68 69c39 0 67 -30 67 -69v-546v-7v-5c0 -16 -8 -30 -21 -41c-28 -24 -56 -49 -56 -72c0 -15 12 -26 35 -26
c7 0 12 1 16 1z" />
    <glyph glyph-name="Itilde" unicode="&#x128;" horiz-adv-x="285" 
d="M-2 717c-34 0 -55 22 -55 57c0 76 49 129 117 129c23 0 49 -7 74 -21l31 -18c19 -10 31 -17 44 -17c17 0 26 9 30 27c6 23 24 37 50 37c33 0 54 -22 54 -57c0 -76 -48 -129 -117 -129c-23 0 -49 7 -74 21l-30 17c-20 11 -32 17 -45 17c-16 0 -25 -8 -30 -27
c-6 -22 -24 -36 -49 -36zM143 -12c-40 0 -68 30 -68 69v546c0 39 28 69 68 69c39 0 67 -30 67 -69v-546c0 -39 -28 -69 -67 -69z" />
    <glyph glyph-name="J" unicode="J" horiz-adv-x="388" 
d="M106 -12c-26 0 -46 3 -62 9c-23 10 -39 33 -39 57c0 34 27 60 63 60c16 0 31 -3 48 -3c38 0 62 25 62 66v426c0 39 28 69 68 69c39 0 67 -30 67 -69v-427c0 -124 -70 -188 -207 -188z" />
    <glyph glyph-name="Jcircumflex" unicode="&#x134;" horiz-adv-x="388" 
d="M368 819c19 -18 30 -29 30 -47c0 -28 -22 -50 -49 -50c-11 0 -24 3 -39 16l-83 76l-83 -76c-15 -13 -28 -16 -39 -16c-27 0 -49 22 -49 50c0 18 11 29 30 47l94 92c14 13 30 20 47 20s32 -6 47 -20zM246 672c39 0 67 -30 67 -69v-427c0 -124 -70 -188 -207 -188
c-26 0 -46 3 -62 9c-23 10 -39 33 -39 57c0 34 27 60 63 60c16 0 31 -3 48 -3c38 0 62 25 62 66v426c0 39 28 69 68 69z" />
    <glyph glyph-name="K" unicode="K" horiz-adv-x="670" 
d="M143 672c38 0 67 -30 67 -69v-546c0 -39 -29 -69 -67 -69c-39 0 -68 30 -68 69v546c0 39 28 69 68 69zM606 93c12 -14 17 -27 17 -41c0 -34 -29 -64 -63 -64c-20 0 -39 10 -54 28l-251 289c-11 13 -18 29 -18 45c0 15 7 30 19 43l238 257c15 15 29 22 49 22
c33 0 61 -28 61 -63c0 -16 -6 -30 -20 -45l-199 -215z" />
    <glyph glyph-name="Kcommaaccent" unicode="&#x136;" horiz-adv-x="670" 
d="M143 672c38 0 67 -30 67 -69v-546c0 -39 -29 -69 -67 -69c-39 0 -68 30 -68 69v546c0 39 28 69 68 69zM606 93c12 -14 17 -27 17 -41c0 -34 -29 -64 -63 -64c-20 0 -39 10 -54 28l-251 289c-11 13 -18 29 -18 45c0 15 7 30 19 43l238 257c15 15 29 22 49 22
c33 0 61 -28 61 -63c0 -16 -6 -30 -20 -45l-199 -215zM330 -40c37 0 67 -30 67 -67c0 -42 -15 -90 -37 -116c-15 -21 -33 -31 -52 -31c-30 0 -58 26 -58 56c0 27 12 45 12 91c0 37 31 67 68 67z" />
    <glyph glyph-name="L" unicode="L" horiz-adv-x="523" 
d="M144 0c-40 0 -69 29 -69 69v534c0 36 28 69 68 69c39 0 67 -30 67 -69v-481h235c36 0 62 -27 62 -61c0 -35 -26 -61 -62 -61h-301z" />
    <glyph glyph-name="Lacute" unicode="&#x139;" horiz-adv-x="523" 
d="M159 719c-49 1 -68 55 -51 88l52 100c15 29 43 36 62 35c53 -1 84 -64 51 -107l-64 -90c-17 -22 -39 -26 -50 -26zM144 0c-40 0 -69 29 -69 69v534c0 36 28 69 68 69c39 0 67 -30 67 -69v-481h235c36 0 62 -27 62 -61c0 -35 -26 -61 -62 -61h-301z" />
    <glyph glyph-name="Lcaron" unicode="&#x13d;" horiz-adv-x="523" 
d="M426 505c-34 0 -66 30 -59 73l17 112c4 30 30 60 67 60c42 0 81 -40 63 -93l-32 -111c-6 -16 -21 -41 -56 -41zM144 0c-40 0 -69 29 -69 69v534c0 36 28 69 68 69c39 0 67 -30 67 -69v-481h235c36 0 62 -27 62 -61c0 -35 -26 -61 -62 -61h-301z" />
    <glyph glyph-name="Lcommaaccent" unicode="&#x13b;" horiz-adv-x="523" 
d="M144 0c-40 0 -69 29 -69 69v534c0 36 28 69 68 69c39 0 67 -30 67 -69v-481h235c36 0 62 -27 62 -61c0 -35 -26 -61 -62 -61h-301zM258 -254c-30 0 -58 26 -58 56c0 27 12 45 12 91c0 37 31 67 68 67s67 -30 67 -67c0 -42 -15 -90 -37 -116c-15 -21 -33 -31 -52 -31z" />
    <glyph glyph-name="Ldot" unicode="&#x13f;" horiz-adv-x="524" 
d="M144 0c-40 0 -69 29 -69 69v534c0 36 28 69 68 69c39 0 67 -30 67 -69v-481h235c36 0 62 -27 62 -61c0 -35 -26 -61 -62 -61h-301zM405 285c-54 0 -94 41 -94 93c0 51 40 93 94 93c53 0 92 -42 92 -93c0 -52 -39 -93 -92 -93z" />
    <glyph glyph-name="Lslash" unicode="&#x141;" horiz-adv-x="524" 
d="M445 122c36 0 62 -27 62 -61c0 -35 -26 -61 -62 -61h-301c-40 0 -69 29 -69 69v134c-38 -14 -79 12 -79 51c0 27 13 45 44 58l35 16v275c0 36 28 69 68 69c39 0 67 -30 67 -69v-220l125 56c39 18 82 -8 82 -49c0 -27 -13 -44 -43 -58l-164 -74v-136h235z" />
    <glyph glyph-name="M" unicode="M" horiz-adv-x="796" 
d="M655 672c38 0 66 -30 66 -70v-545c0 -39 -29 -69 -67 -69c-39 0 -68 30 -68 69v326l-124 -195c-19 -30 -37 -43 -64 -43c-26 0 -45 13 -64 43l-124 197v-328c0 -39 -29 -69 -67 -69c-39 0 -68 30 -68 69v545c0 40 28 70 66 70c29 0 48 -14 71 -52l186 -295l186 295
c24 38 42 52 71 52z" />
    <glyph glyph-name="N" unicode="N" horiz-adv-x="712" 
d="M570 672c38 0 67 -30 67 -69v-547c0 -38 -28 -68 -66 -68c-33 0 -49 19 -67 41l-294 378v-350c0 -39 -29 -69 -67 -69c-39 0 -68 30 -68 69v547c0 38 29 68 66 68c34 0 49 -19 69 -44l293 -375l-1 350c0 39 29 69 68 69z" />
    <glyph glyph-name="Nacute" unicode="&#x143;" horiz-adv-x="712" 
d="M372 719c-49 1 -68 55 -51 88l52 100c15 29 43 36 62 35c53 -1 84 -64 51 -107l-64 -90c-17 -22 -39 -26 -50 -26zM570 672c38 0 67 -30 67 -69v-547c0 -38 -28 -68 -66 -68c-33 0 -49 19 -67 41l-294 378v-350c0 -39 -29 -69 -67 -69c-39 0 -68 30 -68 69v547
c0 38 29 68 66 68c34 0 49 -19 69 -44l293 -375l-1 350c0 39 29 69 68 69z" />
    <glyph glyph-name="Ncaron" unicode="&#x147;" horiz-adv-x="712" 
d="M214 834c-19 18 -30 29 -30 47c0 28 22 50 49 50c11 0 24 -3 39 -16l83 -76l83 76c15 13 28 16 39 16c27 0 49 -22 49 -50c0 -18 -11 -29 -30 -47l-94 -92c-15 -14 -30 -20 -47 -20s-33 7 -47 20zM570 672c38 0 67 -30 67 -69v-547c0 -38 -28 -68 -66 -68
c-33 0 -49 19 -67 41l-294 378v-350c0 -39 -29 -69 -67 -69c-39 0 -68 30 -68 69v547c0 38 29 68 66 68c34 0 49 -19 69 -44l293 -375l-1 350c0 39 29 69 68 69z" />
    <glyph glyph-name="Ncommaaccent" unicode="&#x145;" horiz-adv-x="712" 
d="M570 672c38 0 67 -30 67 -69v-547c0 -38 -28 -68 -66 -68c-33 0 -49 19 -67 41l-294 378v-350c0 -39 -29 -69 -67 -69c-39 0 -68 30 -68 69v547c0 38 29 68 66 68c34 0 49 -19 69 -44l293 -375l-1 350c0 39 29 69 68 69zM354 -40c37 0 67 -30 67 -67
c0 -42 -15 -90 -37 -116c-15 -21 -33 -31 -52 -31c-30 0 -58 26 -58 56c0 27 12 45 12 91c0 37 31 67 68 67z" />
    <glyph glyph-name="Eng" unicode="&#x14a;" horiz-adv-x="713" 
d="M637 103h1v-109c0 -121 -66 -186 -190 -186c-26 0 -45 4 -59 12c-21 12 -32 30 -32 53c0 36 27 63 66 63h9c46 0 71 24 71 66v28l-293 377v-350c0 -39 -29 -69 -67 -69c-39 0 -68 30 -68 69v547c0 38 29 68 66 68c34 0 49 -19 69 -44l293 -375l-1 350c0 39 29 69 68 69
c38 0 67 -30 67 -69v-500z" />
    <glyph glyph-name="Ntilde" unicode="&#xd1;" horiz-adv-x="712" 
d="M211 717c-34 0 -55 22 -55 57c0 76 49 129 117 129c23 0 49 -7 74 -21l31 -18c19 -10 31 -17 44 -17c17 0 26 9 30 27c6 23 24 37 50 37c33 0 54 -22 54 -57c0 -76 -48 -129 -117 -129c-23 0 -49 7 -74 21l-30 17c-20 11 -32 17 -45 17c-16 0 -25 -8 -30 -27
c-6 -22 -24 -36 -49 -36zM570 672c38 0 67 -30 67 -69v-547c0 -38 -28 -68 -66 -68c-33 0 -49 19 -67 41l-294 378v-350c0 -39 -29 -69 -67 -69c-39 0 -68 30 -68 69v547c0 38 29 68 66 68c34 0 49 -19 69 -44l293 -375l-1 350c0 39 29 69 68 69z" />
    <glyph glyph-name="O" unicode="O" horiz-adv-x="778" 
d="M388 672c197 0 352 -151 352 -342s-155 -342 -352 -342s-350 150 -350 342s154 342 350 342zM389 547c-124 0 -212 -90 -212 -217s88 -217 212 -217c123 0 212 91 212 217s-89 217 -212 217z" />
    <glyph glyph-name="Oacute" unicode="&#xd3;" horiz-adv-x="778" 
d="M405 719c-49 1 -68 55 -51 88l52 100c15 29 43 36 62 35c53 -1 84 -64 51 -107l-64 -90c-17 -22 -39 -26 -50 -26zM388 672c197 0 352 -151 352 -342s-155 -342 -352 -342s-350 150 -350 342s154 342 350 342zM389 547c-124 0 -212 -90 -212 -217s88 -217 212 -217
c123 0 212 91 212 217s-89 217 -212 217z" />
    <glyph glyph-name="Obreve" unicode="&#x14e;" horiz-adv-x="778" 
d="M389 726c-87 0 -168 65 -168 137c0 30 22 52 52 52c21 0 36 -11 50 -38c14 -33 36 -49 66 -49s53 17 65 49c13 26 29 38 51 38c30 0 51 -22 51 -52c0 -72 -81 -137 -167 -137zM388 672c197 0 352 -151 352 -342s-155 -342 -352 -342s-350 150 -350 342s154 342 350 342z
M389 547c-124 0 -212 -90 -212 -217s88 -217 212 -217c123 0 212 91 212 217s-89 217 -212 217z" />
    <glyph glyph-name="Ocircumflex" unicode="&#xd4;" horiz-adv-x="778" 
d="M266 722c-27 0 -49 22 -49 50c0 18 11 29 30 47l94 92c14 13 30 20 47 20s32 -6 47 -20l94 -92c19 -18 30 -29 30 -47c0 -28 -22 -50 -49 -50c-11 0 -24 3 -39 16l-83 76l-83 -76c-15 -13 -28 -16 -39 -16zM388 672c197 0 352 -151 352 -342s-155 -342 -352 -342
s-350 150 -350 342s154 342 350 342zM389 113c123 0 212 91 212 217s-89 217 -212 217c-124 0 -212 -90 -212 -217s88 -217 212 -217z" />
    <glyph glyph-name="Odieresis" unicode="&#xd6;" horiz-adv-x="778" 
d="M260 737c-41 0 -81 36 -81 77c0 45 40 78 81 78c44 0 81 -33 81 -78c0 -41 -37 -77 -81 -77zM518 736c-41 0 -81 36 -81 77c0 45 40 79 81 79c44 0 81 -34 81 -79c0 -41 -37 -77 -81 -77zM388 672c197 0 352 -151 352 -342s-155 -342 -352 -342s-350 150 -350 342
s154 342 350 342zM389 547c-124 0 -212 -90 -212 -217s88 -217 212 -217c123 0 212 91 212 217s-89 217 -212 217z" />
    <glyph glyph-name="Ograve" unicode="&#xd2;" horiz-adv-x="778" 
d="M374 719c-11 0 -33 4 -50 26l-64 90c-33 43 -2 106 51 107c19 1 47 -6 62 -35l52 -100c17 -33 -2 -87 -51 -88zM388 672c197 0 352 -151 352 -342s-155 -342 -352 -342s-350 150 -350 342s154 342 350 342zM389 547c-124 0 -212 -90 -212 -217s88 -217 212 -217
c123 0 212 91 212 217s-89 217 -212 217z" />
    <glyph glyph-name="Ohungarumlaut" unicode="&#x150;" horiz-adv-x="778" 
d="M291 719c-49 1 -68 55 -51 88l52 100c15 29 43 36 62 35c53 -1 84 -64 51 -107l-64 -90c-17 -22 -39 -26 -50 -26zM506 719c-49 1 -68 55 -51 88l52 100c15 29 43 36 62 35c53 -1 84 -64 51 -107l-64 -90c-17 -22 -39 -26 -50 -26zM388 672c197 0 352 -151 352 -342
s-155 -342 -352 -342s-350 150 -350 342s154 342 350 342zM389 547c-124 0 -212 -90 -212 -217s88 -217 212 -217c123 0 212 91 212 217s-89 217 -212 217z" />
    <glyph glyph-name="Omacron" unicode="&#x14c;" horiz-adv-x="778" 
d="M504 863c31 0 54 -23 54 -53s-23 -53 -54 -53h-229c-31 0 -55 23 -55 53s24 53 55 53h229zM388 672c197 0 352 -151 352 -342s-155 -342 -352 -342s-350 150 -350 342s154 342 350 342zM389 547c-124 0 -212 -90 -212 -217s88 -217 212 -217c123 0 212 91 212 217
s-89 217 -212 217z" />
    <glyph glyph-name="Oslash" unicode="&#xd8;" horiz-adv-x="779" 
d="M673 533c42 -57 67 -127 67 -203c0 -191 -155 -342 -351 -342c-75 0 -144 22 -200 60l-39 -39c-14 -14 -30 -21 -46 -21c-30 0 -55 26 -55 57c0 16 6 31 19 44l38 38c-42 56 -67 126 -67 203c0 192 153 342 350 342c75 0 144 -22 201 -60l39 39c14 14 30 21 46 21
c30 0 55 -26 55 -57c0 -15 -6 -31 -19 -44zM171 330c0 -42 9 -79 26 -112l305 306c-32 18 -70 29 -112 29c-127 0 -219 -93 -219 -223zM390 107c126 0 217 93 217 223c0 41 -9 78 -26 111l-304 -305c32 -19 70 -29 113 -29z" />
    <glyph glyph-name="Oslashacute" unicode="&#x1fe;" horiz-adv-x="779" 
d="M406 719c-49 1 -68 55 -51 88l52 100c15 29 43 36 62 35c53 -1 84 -64 51 -107l-64 -90c-17 -22 -39 -26 -50 -26zM673 533c42 -57 67 -127 67 -203c0 -191 -155 -342 -351 -342c-75 0 -144 22 -200 60l-39 -39c-14 -14 -30 -21 -46 -21c-30 0 -55 26 -55 57
c0 16 6 31 19 44l38 38c-42 56 -67 126 -67 203c0 192 153 342 350 342c75 0 144 -22 201 -60l39 39c14 14 30 21 46 21c30 0 55 -26 55 -57c0 -15 -6 -31 -19 -44zM171 330c0 -42 9 -79 26 -112l305 306c-32 18 -70 29 -112 29c-127 0 -219 -93 -219 -223zM390 107
c126 0 217 93 217 223c0 41 -9 78 -26 111l-304 -305c32 -19 70 -29 113 -29z" />
    <glyph glyph-name="Otilde" unicode="&#xd5;" horiz-adv-x="778" 
d="M244 717c-34 0 -55 22 -55 57c0 76 49 129 117 129c23 0 49 -7 74 -21l31 -18c19 -10 31 -17 44 -17c17 0 26 9 30 27c6 23 24 37 50 37c33 0 54 -22 54 -57c0 -76 -48 -129 -117 -129c-23 0 -49 7 -74 21l-30 17c-20 11 -32 17 -45 17c-16 0 -25 -8 -30 -27
c-6 -22 -24 -36 -49 -36zM388 672c197 0 352 -151 352 -342s-155 -342 -352 -342s-350 150 -350 342s154 342 350 342zM389 547c-124 0 -212 -90 -212 -217s88 -217 212 -217c123 0 212 91 212 217s-89 217 -212 217z" />
    <glyph glyph-name="OE" unicode="&#x152;" horiz-adv-x="1098" 
d="M1002 122c36 0 62 -27 62 -61c0 -35 -27 -61 -62 -61h-335c-38 0 -67 29 -67 67v2c-52 -51 -127 -81 -213 -81c-197 0 -349 148 -349 342c0 193 152 342 350 342c85 0 161 -30 212 -80v1c0 38 29 67 67 67h323c36 0 62 -26 62 -61c0 -34 -27 -61 -62 -61h-255v-134h175
c34 0 59 -25 59 -58c0 -32 -25 -57 -59 -57h-175v-167h267zM388 113c115 0 202 79 212 193v46c-10 115 -97 195 -212 195c-123 0 -211 -90 -211 -218c0 -126 88 -216 211 -216z" />
    <glyph glyph-name="P" unicode="P" horiz-adv-x="593" 
d="M143 -12c-39 0 -68 30 -68 69v534c0 40 29 69 69 69h180c141 0 237 -86 237 -213c0 -126 -98 -214 -237 -214h-114v-176c0 -39 -29 -69 -67 -69zM210 351h113c62 0 100 37 100 96c0 57 -38 94 -100 94h-113v-190z" />
    <glyph glyph-name="Thorn" unicode="&#xde;" horiz-adv-x="593" 
d="M143 672c38 0 67 -30 67 -69v-44h114c141 0 237 -87 237 -215c0 -127 -97 -216 -237 -216h-114v-71c0 -39 -29 -69 -67 -69c-39 0 -68 30 -68 69v546c0 39 28 69 68 69zM323 440h-113v-194h113c62 0 100 38 100 97s-38 97 -100 97z" />
    <glyph glyph-name="Q" unicode="Q" horiz-adv-x="778" 
d="M1010 -104c35 0 57 -20 57 -53c0 -23 -12 -41 -36 -50c-22 -9 -53 -14 -93 -14c-181 0 -336 80 -439 226c-35 -11 -72 -17 -111 -17c-197 0 -350 150 -350 342s154 342 350 342c197 0 352 -151 352 -342c0 -108 -50 -204 -129 -266c90 -117 200 -170 350 -170
c22 0 39 2 49 2zM177 330c0 -126 88 -217 212 -217c123 0 212 91 212 217s-89 217 -213 217c-123 0 -211 -90 -211 -217z" />
    <glyph glyph-name="R" unicode="R" horiz-adv-x="640" 
d="M577 101c12 -18 19 -35 19 -51c0 -34 -29 -62 -63 -62c-24 0 -44 12 -60 35l-148 210h-1h-114v-176c0 -39 -29 -69 -67 -69c-39 0 -68 30 -68 69v535c0 39 29 68 69 68h180c141 0 237 -86 237 -212c0 -80 -39 -145 -103 -182zM210 541v-189h113c62 0 100 37 100 95
c0 57 -39 94 -100 94h-113z" />
    <glyph glyph-name="Racute" unicode="&#x154;" horiz-adv-x="640" 
d="M290 719c-49 1 -68 55 -51 88l52 100c15 29 43 36 62 35c53 -1 84 -64 51 -107l-64 -90c-17 -22 -39 -26 -50 -26zM577 101c12 -18 19 -35 19 -51c0 -34 -29 -62 -63 -62c-24 0 -44 12 -60 35l-148 210h-1h-114v-176c0 -39 -29 -69 -67 -69c-39 0 -68 30 -68 69v535
c0 39 29 68 69 68h180c141 0 237 -86 237 -212c0 -80 -39 -145 -103 -182zM210 541v-189h113c62 0 100 37 100 95c0 57 -39 94 -100 94h-113z" />
    <glyph glyph-name="Rcaron" unicode="&#x158;" horiz-adv-x="640" 
d="M132 834c-19 18 -30 29 -30 47c0 28 22 50 49 50c11 0 24 -3 39 -16l83 -76l83 76c15 13 28 16 39 16c27 0 49 -22 49 -50c0 -18 -11 -29 -30 -47l-94 -92c-15 -14 -30 -20 -47 -20s-33 7 -47 20zM577 101c12 -18 19 -35 19 -51c0 -34 -29 -62 -63 -62
c-24 0 -44 12 -60 35l-148 210h-1h-114v-176c0 -39 -29 -69 -67 -69c-39 0 -68 30 -68 69v535c0 39 29 68 69 68h180c141 0 237 -86 237 -212c0 -80 -39 -145 -103 -182zM210 541v-189h113c62 0 100 37 100 95c0 57 -39 94 -100 94h-113z" />
    <glyph glyph-name="Rcommaaccent" unicode="&#x156;" horiz-adv-x="640" 
d="M577 101c12 -18 19 -35 19 -51c0 -34 -29 -62 -63 -62c-24 0 -44 12 -60 35l-148 210h-1h-114v-176c0 -39 -29 -69 -67 -69c-39 0 -68 30 -68 69v535c0 39 29 68 69 68h180c141 0 237 -86 237 -212c0 -80 -39 -145 -103 -182zM210 541v-189h113c62 0 100 37 100 95
c0 57 -39 94 -100 94h-113zM314 -40c37 0 67 -30 67 -67c0 -42 -15 -90 -37 -116c-15 -21 -33 -31 -52 -31c-30 0 -58 26 -58 56c0 27 12 45 12 91c0 37 31 67 68 67z" />
    <glyph glyph-name="S" unicode="S" horiz-adv-x="559" 
d="M285 -12c-78 0 -164 35 -213 89c-16 16 -25 33 -25 52c1 36 30 60 62 60c12 0 25 -4 35 -13c27 -28 74 -68 141 -68c59 0 94 28 94 73c0 38 -23 54 -84 82l-71 32c-105 48 -160 105 -160 190c0 111 94 187 219 187c99 0 157 -46 185 -78c14 -15 18 -30 18 -43
c0 -34 -31 -60 -62 -60c-12 0 -25 4 -37 14c-27 24 -57 47 -104 47c-48 0 -82 -23 -82 -64c0 -33 18 -49 77 -76l75 -33c110 -49 163 -103 163 -193c0 -122 -99 -198 -231 -198z" />
    <glyph glyph-name="Sacute" unicode="&#x15a;" horiz-adv-x="559" 
d="M296 719c-49 1 -68 55 -51 88l52 100c15 29 43 36 62 35c53 -1 84 -64 51 -107l-64 -90c-17 -22 -39 -26 -50 -26zM285 -12c-78 0 -164 35 -213 89c-16 16 -25 33 -25 52c1 36 30 60 62 60c12 0 25 -4 35 -13c27 -28 74 -68 141 -68c59 0 94 28 94 73c0 38 -23 54 -84 82
l-71 32c-105 48 -160 105 -160 190c0 111 94 187 219 187c99 0 157 -46 185 -78c14 -15 18 -30 18 -43c0 -34 -31 -60 -62 -60c-12 0 -25 4 -37 14c-27 24 -57 47 -104 47c-48 0 -82 -23 -82 -64c0 -33 18 -49 77 -76l75 -33c110 -49 163 -103 163 -193
c0 -122 -99 -198 -231 -198z" />
    <glyph glyph-name="Scaron" unicode="&#x160;" horiz-adv-x="559" 
d="M138 834c-19 18 -30 29 -30 47c0 28 22 50 49 50c11 0 24 -3 39 -16l83 -76l83 76c15 13 28 16 39 16c27 0 49 -22 49 -50c0 -18 -11 -29 -30 -47l-94 -92c-15 -14 -30 -20 -47 -20s-33 7 -47 20zM353 379c110 -49 163 -103 163 -193c0 -122 -99 -198 -231 -198
c-78 0 -164 35 -213 89c-16 16 -25 33 -25 52c1 36 30 60 62 60c12 0 25 -4 35 -13c27 -28 74 -68 141 -68c59 0 94 28 94 73c0 38 -23 54 -84 82l-71 32c-105 48 -160 105 -160 190c0 111 94 187 219 187c99 0 157 -46 185 -78c14 -15 18 -30 18 -43c0 -34 -31 -60 -62 -60
c-12 0 -25 4 -37 14c-27 24 -57 47 -104 47c-48 0 -82 -23 -82 -64c0 -33 18 -49 77 -76z" />
    <glyph glyph-name="Scedilla" unicode="&#x15e;" horiz-adv-x="559" 
d="M516 186c0 -94 -59 -161 -146 -186c10 -21 17 -43 17 -63c0 -79 -61 -129 -154 -129c-29 0 -49 3 -65 9c-21 9 -32 23 -32 43c0 27 21 48 48 48c10 0 20 -1 32 -1c33 0 58 12 58 40c0 17 -5 30 -13 42c-71 6 -145 39 -189 88c-16 16 -25 33 -25 52c1 36 30 60 62 60
c12 0 25 -4 35 -13c27 -28 74 -68 141 -68c59 0 94 28 94 73c0 38 -23 54 -84 82l-71 32c-105 48 -160 105 -160 190c0 111 94 187 219 187c99 0 157 -46 185 -78c14 -15 18 -30 18 -43c0 -34 -31 -60 -62 -60c-12 0 -25 4 -37 14c-27 24 -57 47 -104 47
c-48 0 -82 -23 -82 -64c0 -33 18 -49 77 -76l75 -33c110 -49 163 -103 163 -193z" />
    <glyph glyph-name="Scircumflex" unicode="&#x15c;" horiz-adv-x="559" 
d="M157 722c-27 0 -49 22 -49 50c0 18 11 29 30 47l94 92c14 13 30 20 47 20s32 -6 47 -20l94 -92c19 -18 30 -29 30 -47c0 -28 -22 -50 -49 -50c-11 0 -24 3 -39 16l-83 76l-83 -76c-15 -13 -28 -16 -39 -16zM353 379c110 -49 163 -103 163 -193c0 -122 -99 -198 -231 -198
c-78 0 -164 35 -213 89c-16 16 -25 33 -25 52c1 36 30 60 62 60c12 0 25 -4 35 -13c27 -28 74 -68 141 -68c59 0 94 28 94 73c0 38 -23 54 -84 82l-71 32c-105 48 -160 105 -160 190c0 111 94 187 219 187c99 0 157 -46 185 -78c14 -15 18 -30 18 -43c0 -34 -31 -60 -62 -60
c-12 0 -25 4 -37 14c-27 24 -57 47 -104 47c-48 0 -82 -23 -82 -64c0 -33 18 -49 77 -76z" />
    <glyph glyph-name="Scommaaccent" unicode="&#x218;" horiz-adv-x="559" 
d="M285 -12c-78 0 -164 35 -213 89c-16 16 -25 33 -25 52c1 36 30 60 62 60c12 0 25 -4 35 -13c27 -28 74 -68 141 -68c59 0 94 28 94 73c0 38 -23 54 -84 82l-71 32c-105 48 -160 105 -160 190c0 111 94 187 219 187c99 0 157 -46 185 -78c14 -15 18 -30 18 -43
c0 -34 -31 -60 -62 -60c-12 0 -25 4 -37 14c-27 24 -57 47 -104 47c-48 0 -82 -23 -82 -64c0 -33 18 -49 77 -76l75 -33c110 -49 163 -103 163 -193c0 -122 -99 -198 -231 -198zM261 -254c-30 0 -58 26 -58 56c0 27 12 45 12 91c0 37 31 67 68 67s67 -30 67 -67
c0 -42 -15 -90 -37 -116c-15 -21 -33 -31 -52 -31z" />
    <glyph glyph-name="uni1E9E" unicode="&#x1e9e;" horiz-adv-x="730" 
d="M522 421c100 -21 170 -106 170 -213c0 -127 -97 -220 -228 -220c-48 0 -95 14 -131 35c-32 19 -50 43 -50 68c0 33 25 58 59 58c18 0 31 -9 43 -16c23 -14 46 -21 71 -21c59 0 99 40 99 99c0 64 -48 100 -137 100c-36 0 -65 26 -65 62c0 16 7 30 21 45l97 120h-261v-481
c0 -39 -29 -69 -67 -69c-39 0 -68 30 -68 69v534c0 40 29 69 69 69h447c33 0 59 -26 59 -59c0 -18 -8 -34 -27 -56z" />
    <glyph glyph-name="uni018F" unicode="&#x18f;" horiz-adv-x="733" 
d="M352 672c192 0 342 -150 342 -341s-153 -343 -347 -343c-179 0 -309 128 -309 302c0 6 0 14 1 24c1 35 29 63 63 63h451c-18 102 -97 171 -201 171c-64 0 -123 -27 -165 -75c-17 -20 -33 -28 -53 -28c-34 0 -60 26 -60 61c0 15 6 30 21 47c69 79 154 119 257 119z
M349 113c98 0 173 59 198 148h-377c5 -87 77 -148 179 -148z" />
    <glyph glyph-name="T" unicode="T" horiz-adv-x="585" 
d="M292 -12c-38 0 -67 30 -67 69v481h-157c-35 0 -62 27 -62 61c0 35 27 61 62 61h449c36 0 62 -26 62 -61c0 -34 -27 -61 -62 -61h-157v-481c0 -39 -29 -69 -68 -69z" />
    <glyph glyph-name="Tbar" unicode="&#x166;" horiz-adv-x="585" 
d="M292 -12c-38 0 -67 30 -67 69v170h-127c-32 0 -57 25 -57 57c0 33 25 56 57 56h127v198h-157c-35 0 -62 27 -62 61c0 35 27 61 62 61h449c36 0 62 -26 62 -61c0 -34 -27 -61 -62 -61h-157v-198h127c33 0 57 -23 57 -56c0 -32 -24 -57 -57 -57h-127v-170
c0 -39 -29 -69 -68 -69z" />
    <glyph glyph-name="Tcaron" unicode="&#x164;" horiz-adv-x="585" 
d="M151 834c-19 18 -30 29 -30 47c0 28 22 50 49 50c11 0 24 -3 39 -16l83 -76l83 76c15 13 28 16 39 16c27 0 49 -22 49 -50c0 -18 -11 -29 -30 -47l-94 -92c-15 -14 -30 -20 -47 -20s-33 7 -47 20zM517 660c36 0 62 -26 62 -61c0 -34 -27 -61 -62 -61h-157v-481
c0 -39 -29 -69 -68 -69c-38 0 -67 30 -67 69v481h-157c-35 0 -62 27 -62 61c0 35 27 61 62 61h449z" />
    <glyph glyph-name="uni0162" unicode="&#x162;" horiz-adv-x="585" 
d="M517 660c36 0 62 -26 62 -61c0 -34 -27 -61 -62 -61h-157v-481v-2c33 -29 60 -77 60 -118c0 -79 -61 -129 -154 -129c-29 0 -49 3 -65 9c-21 9 -32 23 -32 43c0 27 21 48 48 48c10 0 20 -1 32 -1c33 0 58 12 58 40c0 16 -5 30 -12 41h-3c-38 0 -67 30 -67 69v481h-157
c-35 0 -62 27 -62 61c0 35 27 61 62 61h449z" />
    <glyph glyph-name="U" unicode="U" horiz-adv-x="700" 
d="M350 -12c-167 0 -280 115 -280 285v330c0 39 29 69 68 69c38 0 67 -30 67 -69v-340c0 -92 56 -150 145 -150s145 58 145 150v340c0 39 29 69 68 69c38 0 67 -30 67 -69v-330c0 -170 -113 -285 -280 -285z" />
    <glyph glyph-name="Uacute" unicode="&#xda;" horiz-adv-x="700" 
d="M366 719c-49 1 -68 55 -51 88l52 100c15 29 43 36 62 35c53 -1 84 -64 51 -107l-64 -90c-17 -22 -39 -26 -50 -26zM350 -12c-167 0 -280 115 -280 285v330c0 39 29 69 68 69c38 0 67 -30 67 -69v-340c0 -92 56 -150 145 -150s145 58 145 150v340c0 39 29 69 68 69
c38 0 67 -30 67 -69v-330c0 -170 -113 -285 -280 -285z" />
    <glyph glyph-name="Ubreve" unicode="&#x16c;" horiz-adv-x="700" 
d="M350 726c-87 0 -168 65 -168 137c0 30 22 52 52 52c21 0 36 -11 50 -38c14 -33 36 -49 66 -49s53 17 65 49c13 26 29 38 51 38c30 0 51 -22 51 -52c0 -72 -81 -137 -167 -137zM350 -12c-167 0 -280 115 -280 285v330c0 39 29 69 68 69c38 0 67 -30 67 -69v-340
c0 -92 56 -150 145 -150s145 58 145 150v340c0 39 29 69 68 69c38 0 67 -30 67 -69v-330c0 -170 -113 -285 -280 -285z" />
    <glyph glyph-name="Ucircumflex" unicode="&#xdb;" horiz-adv-x="700" 
d="M227 722c-27 0 -49 22 -49 50c0 18 11 29 30 47l94 92c14 13 30 20 47 20s32 -6 47 -20l94 -92c19 -18 30 -29 30 -47c0 -28 -22 -50 -49 -50c-11 0 -24 3 -39 16l-83 76l-83 -76c-15 -13 -28 -16 -39 -16zM563 672c38 0 67 -30 67 -69v-330c0 -170 -113 -285 -280 -285
s-280 115 -280 285v330c0 39 29 69 68 69c38 0 67 -30 67 -69v-340c0 -92 56 -150 145 -150s145 58 145 150v340c0 39 29 69 68 69z" />
    <glyph glyph-name="Udieresis" unicode="&#xdc;" horiz-adv-x="700" 
d="M221 737c-41 0 -81 36 -81 77c0 45 40 78 81 78c44 0 81 -33 81 -78c0 -41 -37 -77 -81 -77zM479 736c-41 0 -81 36 -81 77c0 45 40 79 81 79c44 0 81 -34 81 -79c0 -41 -37 -77 -81 -77zM350 -12c-167 0 -280 115 -280 285v330c0 39 29 69 68 69c38 0 67 -30 67 -69
v-340c0 -92 56 -150 145 -150s145 58 145 150v340c0 39 29 69 68 69c38 0 67 -30 67 -69v-330c0 -170 -113 -285 -280 -285z" />
    <glyph glyph-name="Ugrave" unicode="&#xd9;" horiz-adv-x="700" 
d="M335 719c-11 0 -33 4 -50 26l-64 90c-33 43 -2 106 51 107c19 1 47 -6 62 -35l52 -100c17 -33 -2 -87 -51 -88zM350 -12c-167 0 -280 115 -280 285v330c0 39 29 69 68 69c38 0 67 -30 67 -69v-340c0 -92 56 -150 145 -150s145 58 145 150v340c0 39 29 69 68 69
c38 0 67 -30 67 -69v-330c0 -170 -113 -285 -280 -285z" />
    <glyph glyph-name="Uhungarumlaut" unicode="&#x170;" horiz-adv-x="700" 
d="M252 719c-49 1 -68 55 -51 88l52 100c15 29 43 36 62 35c53 -1 84 -64 51 -107l-64 -90c-17 -22 -39 -26 -50 -26zM467 719c-49 1 -68 55 -51 88l52 100c15 29 43 36 62 35c53 -1 84 -64 51 -107l-64 -90c-17 -22 -39 -26 -50 -26zM350 -12c-167 0 -280 115 -280 285v330
c0 39 29 69 68 69c38 0 67 -30 67 -69v-340c0 -92 56 -150 145 -150s145 58 145 150v340c0 39 29 69 68 69c38 0 67 -30 67 -69v-330c0 -170 -113 -285 -280 -285z" />
    <glyph glyph-name="Umacron" unicode="&#x16a;" horiz-adv-x="700" 
d="M465 863c31 0 54 -23 54 -53s-23 -53 -54 -53h-229c-31 0 -55 23 -55 53s24 53 55 53h229zM350 -12c-167 0 -280 115 -280 285v330c0 39 29 69 68 69c38 0 67 -30 67 -69v-340c0 -92 56 -150 145 -150s145 58 145 150v340c0 39 29 69 68 69c38 0 67 -30 67 -69v-330
c0 -170 -113 -285 -280 -285z" />
    <glyph glyph-name="Uogonek" unicode="&#x172;" horiz-adv-x="700" 
d="M433 -192c-73 0 -121 39 -121 96c0 30 20 63 53 87c-10 -1 -19 -2 -26 -2c-156 0 -269 119 -269 284v330c0 39 29 69 68 69c38 0 67 -30 67 -69v-340c0 -92 56 -150 145 -150s145 58 145 150v340c0 39 29 69 68 69c38 0 67 -30 67 -69v-330c0 -89 -34 -169 -95 -224
l-33 -29c-39 -35 -61 -59 -62 -85c-1 -20 12 -30 34 -30c5 0 12 2 15 2c25 0 42 -18 42 -44c0 -23 -14 -40 -37 -47c-16 -5 -36 -8 -61 -8z" />
    <glyph glyph-name="Uring" unicode="&#x16e;" horiz-adv-x="700" 
d="M349 919c73 0 127 -52 127 -121c0 -71 -54 -123 -127 -123c-72 0 -126 53 -126 123c0 69 54 121 126 121zM350 839c-23 0 -41 -17 -41 -41s18 -42 41 -42s41 18 41 42c0 23 -18 41 -41 41zM350 -12c-167 0 -280 115 -280 285v330c0 39 29 69 68 69c38 0 67 -30 67 -69
v-340c0 -92 56 -150 145 -150s145 58 145 150v340c0 39 29 69 68 69c38 0 67 -30 67 -69v-330c0 -170 -113 -285 -280 -285z" />
    <glyph glyph-name="Utilde" unicode="&#x168;" horiz-adv-x="700" 
d="M205 717c-34 0 -55 22 -55 57c0 76 49 129 117 129c23 0 49 -7 74 -21l31 -18c19 -10 31 -17 44 -17c17 0 26 9 30 27c6 23 24 37 50 37c33 0 54 -22 54 -57c0 -76 -48 -129 -117 -129c-23 0 -49 7 -74 21l-30 17c-20 11 -32 17 -45 17c-16 0 -25 -8 -30 -27
c-6 -22 -24 -36 -49 -36zM350 -12c-167 0 -280 115 -280 285v330c0 39 29 69 68 69c38 0 67 -30 67 -69v-340c0 -92 56 -150 145 -150s145 58 145 150v340c0 39 29 69 68 69c38 0 67 -30 67 -69v-330c0 -170 -113 -285 -280 -285z" />
    <glyph glyph-name="V" unicode="V" horiz-adv-x="662" 
d="M562 672c38 0 66 -29 66 -65c0 -12 -2 -25 -8 -36l-225 -537c-13 -31 -34 -46 -64 -46s-52 15 -64 46l-226 537c-5 11 -8 24 -8 36c0 36 29 65 67 65c29 0 51 -17 63 -48l168 -413l167 413c13 31 35 48 64 48z" />
    <glyph glyph-name="W" unicode="W" horiz-adv-x="1036" 
d="M930 672c38 0 67 -30 67 -67c0 -10 -2 -20 -7 -33l-202 -538c-11 -30 -34 -46 -63 -46c-30 0 -52 16 -63 46l-144 399l-144 -399c-11 -30 -33 -46 -62 -46c-30 0 -53 16 -64 46l-202 538c-6 14 -8 24 -8 33c0 37 30 67 68 67c29 0 53 -17 62 -44l145 -402l139 395
c11 32 35 51 66 51s55 -19 66 -51l140 -395l143 401c10 28 33 45 63 45z" />
    <glyph glyph-name="Wacute" unicode="&#x1e82;" horiz-adv-x="1036" 
d="M534 719c-49 1 -68 55 -51 88l52 100c15 29 43 36 62 35c53 -1 84 -64 51 -107l-64 -90c-17 -22 -39 -26 -50 -26zM930 672c38 0 67 -30 67 -67c0 -10 -2 -20 -7 -33l-202 -538c-11 -30 -34 -46 -63 -46c-30 0 -52 16 -63 46l-144 399l-144 -399c-11 -30 -33 -46 -62 -46
c-30 0 -53 16 -64 46l-202 538c-6 14 -8 24 -8 33c0 37 30 67 68 67c29 0 53 -17 62 -44l145 -402l139 395c11 32 35 51 66 51s55 -19 66 -51l140 -395l143 401c10 28 33 45 63 45z" />
    <glyph glyph-name="Wcircumflex" unicode="&#x174;" horiz-adv-x="1036" 
d="M395 722c-27 0 -49 22 -49 50c0 18 11 29 30 47l94 92c14 13 30 20 47 20s32 -6 47 -20l94 -92c19 -18 30 -29 30 -47c0 -28 -22 -50 -49 -50c-11 0 -24 3 -39 16l-83 76l-83 -76c-15 -13 -28 -16 -39 -16zM930 672c38 0 67 -30 67 -67c0 -10 -2 -20 -7 -33l-202 -538
c-11 -30 -34 -46 -63 -46c-30 0 -52 16 -63 46l-144 399l-144 -399c-11 -30 -33 -46 -62 -46c-30 0 -53 16 -64 46l-202 538c-6 14 -8 24 -8 33c0 37 30 67 68 67c29 0 53 -17 62 -44l145 -402l139 395c11 32 35 51 66 51s55 -19 66 -51l140 -395l143 401c10 28 33 45 63 45
z" />
    <glyph glyph-name="Wdieresis" unicode="&#x1e84;" horiz-adv-x="1036" 
d="M389 737c-41 0 -81 36 -81 77c0 45 40 78 81 78c44 0 81 -33 81 -78c0 -41 -37 -77 -81 -77zM647 736c-41 0 -81 36 -81 77c0 45 40 79 81 79c44 0 81 -34 81 -79c0 -41 -37 -77 -81 -77zM930 672c38 0 67 -30 67 -67c0 -10 -2 -20 -7 -33l-202 -538
c-11 -30 -34 -46 -63 -46c-30 0 -52 16 -63 46l-144 399l-144 -399c-11 -30 -33 -46 -62 -46c-30 0 -53 16 -64 46l-202 538c-6 14 -8 24 -8 33c0 37 30 67 68 67c29 0 53 -17 62 -44l145 -402l139 395c11 32 35 51 66 51s55 -19 66 -51l140 -395l143 401c10 28 33 45 63 45
z" />
    <glyph glyph-name="Wgrave" unicode="&#x1e80;" horiz-adv-x="1036" 
d="M453 745l-64 90c-33 43 -2 106 51 107c19 1 47 -6 62 -35l52 -100c17 -33 -2 -87 -51 -88c-11 0 -33 4 -50 26zM930 672c38 0 67 -30 67 -67c0 -10 -2 -20 -7 -33l-202 -538c-11 -30 -34 -46 -63 -46c-30 0 -52 16 -63 46l-144 399l-144 -399c-11 -30 -33 -46 -62 -46
c-30 0 -53 16 -64 46l-202 538c-6 14 -8 24 -8 33c0 37 30 67 68 67c29 0 53 -17 62 -44l145 -402l139 395c11 32 35 51 66 51s55 -19 66 -51l140 -395l143 401c10 28 33 45 63 45z" />
    <glyph glyph-name="X" unicode="X" horiz-adv-x="613" 
d="M556 100c13 -19 18 -33 18 -47c0 -35 -30 -65 -67 -65c-21 0 -41 11 -54 29l-146 207l-147 -207c-13 -18 -32 -29 -55 -29c-36 0 -66 30 -66 66c0 15 6 30 19 49l167 233l-153 221c-13 19 -19 36 -19 52c0 34 30 63 66 63c24 0 42 -10 56 -30l132 -194l135 193
c14 20 34 31 56 31c37 0 66 -29 66 -64c0 -17 -6 -34 -20 -54l-155 -218z" />
    <glyph glyph-name="Y" unicode="Y" horiz-adv-x="625" 
d="M584 607c0 -15 -4 -29 -14 -44l-190 -312v-194c0 -39 -29 -69 -68 -69c-38 0 -67 30 -67 69v194l-189 312c-11 16 -15 30 -15 45c0 36 29 64 66 64c29 0 48 -12 64 -40l142 -246l142 246c15 27 34 40 63 40c37 0 66 -28 66 -65z" />
    <glyph glyph-name="Yacute" unicode="&#xdd;" horiz-adv-x="625" 
d="M327 719c-49 1 -68 55 -51 88l52 100c15 29 43 36 62 35c53 -1 84 -64 51 -107l-64 -90c-17 -22 -39 -26 -50 -26zM584 607c0 -15 -4 -29 -14 -44l-190 -312v-194c0 -39 -29 -69 -68 -69c-38 0 -67 30 -67 69v194l-189 312c-11 16 -15 30 -15 45c0 36 29 64 66 64
c29 0 48 -12 64 -40l142 -246l142 246c15 27 34 40 63 40c37 0 66 -28 66 -65z" />
    <glyph glyph-name="Ycircumflex" unicode="&#x176;" horiz-adv-x="625" 
d="M188 722c-27 0 -49 22 -49 50c0 18 11 29 30 47l94 92c14 13 30 20 47 20s32 -6 47 -20l94 -92c19 -18 30 -29 30 -47c0 -28 -22 -50 -49 -50c-11 0 -24 3 -39 16l-83 76l-83 -76c-15 -13 -28 -16 -39 -16zM584 607c0 -15 -4 -29 -14 -44l-190 -312v-194
c0 -39 -29 -69 -68 -69c-38 0 -67 30 -67 69v194l-189 312c-11 16 -15 30 -15 45c0 36 29 64 66 64c29 0 48 -12 64 -40l142 -246l142 246c15 27 34 40 63 40c37 0 66 -28 66 -65z" />
    <glyph glyph-name="Ydieresis" unicode="&#x178;" horiz-adv-x="625" 
d="M182 737c-41 0 -81 36 -81 77c0 45 40 78 81 78c44 0 81 -33 81 -78c0 -41 -37 -77 -81 -77zM440 736c-41 0 -81 36 -81 77c0 45 40 79 81 79c44 0 81 -34 81 -79c0 -41 -37 -77 -81 -77zM584 607c0 -15 -4 -29 -14 -44l-190 -312v-194c0 -39 -29 -69 -68 -69
c-38 0 -67 30 -67 69v194l-189 312c-11 16 -15 30 -15 45c0 36 29 64 66 64c29 0 48 -12 64 -40l142 -246l142 246c15 27 34 40 63 40c37 0 66 -28 66 -65z" />
    <glyph glyph-name="Ygrave" unicode="&#x1ef2;" horiz-adv-x="625" 
d="M246 745l-64 90c-33 43 -2 106 51 107c19 1 47 -6 62 -35l52 -100c17 -33 -2 -87 -51 -88c-11 0 -33 4 -50 26zM584 607c0 -15 -4 -29 -14 -44l-190 -312v-194c0 -39 -29 -69 -68 -69c-38 0 -67 30 -67 69v194l-189 312c-11 16 -15 30 -15 45c0 36 29 64 66 64
c29 0 48 -12 64 -40l142 -246l142 246c15 27 34 40 63 40c37 0 66 -28 66 -65z" />
    <glyph glyph-name="Z" unicode="Z" horiz-adv-x="588" 
d="M506 122c36 0 62 -27 62 -61c0 -35 -27 -61 -62 -61h-423c-36 0 -63 27 -63 61c0 14 6 26 18 42l334 435h-254c-36 0 -63 27 -63 61c0 35 27 61 63 61h379c35 0 62 -27 62 -61c0 -13 -5 -26 -17 -43l-334 -434h298z" />
    <glyph glyph-name="Zacute" unicode="&#x179;" horiz-adv-x="588" 
d="M315 719c-49 1 -68 55 -51 88l52 100c15 29 43 36 62 35c53 -1 84 -64 51 -107l-64 -90c-17 -22 -39 -26 -50 -26zM506 122c36 0 62 -27 62 -61c0 -35 -27 -61 -62 -61h-423c-36 0 -63 27 -63 61c0 14 6 26 18 42l334 435h-254c-36 0 -63 27 -63 61c0 35 27 61 63 61h379
c35 0 62 -27 62 -61c0 -13 -5 -26 -17 -43l-334 -434h298z" />
    <glyph glyph-name="Zcaron" unicode="&#x17d;" horiz-adv-x="588" 
d="M157 834c-19 18 -30 29 -30 47c0 28 22 50 49 50c11 0 24 -3 39 -16l83 -76l83 76c15 13 28 16 39 16c27 0 49 -22 49 -50c0 -18 -11 -29 -30 -47l-94 -92c-15 -14 -30 -20 -47 -20s-33 7 -47 20zM506 122c36 0 62 -27 62 -61c0 -35 -27 -61 -62 -61h-423
c-36 0 -63 27 -63 61c0 14 6 26 18 42l334 435h-254c-36 0 -63 27 -63 61c0 35 27 61 63 61h379c35 0 62 -27 62 -61c0 -13 -5 -26 -17 -43l-334 -434h298z" />
    <glyph glyph-name="Zdotaccent" unicode="&#x17b;" horiz-adv-x="588" 
d="M299 734c-47 0 -85 35 -85 81s38 81 85 81c45 0 84 -35 84 -81s-39 -81 -84 -81zM506 122c36 0 62 -27 62 -61c0 -35 -27 -61 -62 -61h-423c-36 0 -63 27 -63 61c0 14 6 26 18 42l334 435h-254c-36 0 -63 27 -63 61c0 35 27 61 63 61h379c35 0 62 -27 62 -61
c0 -13 -5 -26 -17 -43l-334 -434h298z" />
    <glyph glyph-name="uni021A" unicode="&#x21a;" horiz-adv-x="585" 
d="M292 -12c-38 0 -67 30 -67 69v481h-157c-35 0 -62 27 -62 61c0 35 27 61 62 61h449c36 0 62 -26 62 -61c0 -34 -27 -61 -62 -61h-157v-481c0 -39 -29 -69 -68 -69zM268 -254c-30 0 -58 26 -58 56c0 27 12 45 12 91c0 37 31 67 68 67s67 -30 67 -67
c0 -42 -15 -90 -37 -116c-15 -21 -33 -31 -52 -31z" />
    <glyph glyph-name="Iacute_J.loclNLD" horiz-adv-x="673" 
d="M159 719c-49 1 -68 55 -51 88l52 100c15 29 43 36 62 35c53 -1 84 -64 51 -107l-64 -90c-17 -22 -39 -26 -50 -26zM529 719c-49 1 -68 55 -51 88l52 100c15 29 43 36 62 35c53 -1 84 -64 51 -107l-64 -90c-17 -22 -39 -26 -50 -26zM143 -12c-40 0 -68 30 -68 69v546
c0 39 28 69 68 69c39 0 67 -30 67 -69v-546c0 -39 -28 -69 -67 -69zM391 -12c-26 0 -46 3 -62 9c-23 10 -39 33 -39 57c0 34 27 60 63 60c16 0 31 -3 48 -3c38 0 62 25 62 66v426c0 39 28 69 68 69c39 0 67 -30 67 -69v-427c0 -124 -70 -188 -207 -188z" />
    <glyph glyph-name="Cacute.loclPLK" horiz-adv-x="720" 
d="M397 723c-36 0 -66 36 -56 76l25 96c11 44 45 55 67 55c45 0 84 -48 60 -98l-41 -92c-11 -22 -28 -37 -55 -37zM389 -12c-198 0 -351 150 -351 342s154 342 352 342c101 0 196 -43 255 -114c14 -16 21 -32 21 -50c0 -33 -28 -61 -63 -61c-19 0 -37 9 -52 26
c-43 50 -97 74 -161 74c-124 0 -213 -91 -213 -218c0 -126 89 -216 213 -216c63 0 116 24 160 74c16 17 33 26 53 26c35 0 62 -28 62 -61c0 -16 -6 -32 -21 -50c-58 -71 -153 -114 -255 -114z" />
    <glyph glyph-name="Nacute.loclPLK" horiz-adv-x="712" 
d="M364 716c-36 0 -66 36 -56 76l25 96c11 44 45 55 67 55c45 0 84 -48 60 -98l-41 -92c-11 -22 -28 -37 -55 -37zM570 672c38 0 67 -30 67 -69v-547c0 -38 -28 -68 -66 -68c-33 0 -49 19 -67 41l-294 378v-350c0 -39 -29 -69 -67 -69c-39 0 -68 30 -68 69v547
c0 38 29 68 66 68c34 0 49 -19 69 -44l293 -375l-1 350c0 39 29 69 68 69z" />
    <glyph glyph-name="Oacute.loclPLK" horiz-adv-x="778" 
d="M397 716c-36 0 -66 36 -56 76l25 96c11 44 45 55 67 55c45 0 84 -48 60 -98l-41 -92c-11 -22 -28 -37 -55 -37zM388 672c197 0 352 -151 352 -342s-155 -342 -352 -342s-350 150 -350 342s154 342 350 342zM389 547c-124 0 -212 -90 -212 -217s88 -217 212 -217
c123 0 212 91 212 217s-89 217 -212 217z" />
    <glyph glyph-name="Sacute.loclPLK" horiz-adv-x="559" 
d="M288 716c-36 0 -66 36 -56 76l25 96c11 44 45 55 67 55c45 0 84 -48 60 -98l-41 -92c-11 -22 -28 -37 -55 -37zM285 -12c-78 0 -164 35 -213 89c-16 16 -25 33 -25 52c1 36 30 60 62 60c12 0 25 -4 35 -13c27 -28 74 -68 141 -68c59 0 94 28 94 73c0 38 -23 54 -84 82
l-71 32c-105 48 -160 105 -160 190c0 111 94 187 219 187c99 0 157 -46 185 -78c14 -15 18 -30 18 -43c0 -34 -31 -60 -62 -60c-12 0 -25 4 -37 14c-27 24 -57 47 -104 47c-48 0 -82 -23 -82 -64c0 -33 18 -49 77 -76l75 -33c110 -49 163 -103 163 -193
c0 -122 -99 -198 -231 -198z" />
    <glyph glyph-name="Zacute.loclPLK" horiz-adv-x="588" 
d="M307 716c-36 0 -66 36 -56 76l25 96c11 44 45 55 67 55c45 0 84 -48 60 -98l-41 -92c-11 -22 -28 -37 -55 -37zM506 122c36 0 62 -27 62 -61c0 -35 -27 -61 -62 -61h-423c-36 0 -63 27 -63 61c0 14 6 26 18 42l334 435h-254c-36 0 -63 27 -63 61c0 35 27 61 63 61h379
c35 0 62 -27 62 -61c0 -13 -5 -26 -17 -43l-334 -434h298z" />
    <glyph glyph-name="Idotaccent.loclTRK" horiz-adv-x="285" 
d="M143 896c45 0 84 -35 84 -81s-39 -81 -84 -81c-47 0 -85 35 -85 81s38 81 85 81zM143 -12c-40 0 -68 30 -68 69v546c0 39 28 69 68 69c39 0 67 -30 67 -69v-546c0 -39 -28 -69 -67 -69z" />
    <glyph glyph-name="A.ordn" horiz-adv-x="429" 
d="M408 313c4 -9 5 -16 5 -24c0 -29 -23 -53 -53 -53c-23 0 -41 13 -49 35l-14 36h-165l-14 -36c-8 -22 -26 -35 -49 -35c-29 0 -53 24 -53 53c0 8 1 15 6 24l143 321c10 22 27 34 50 34c22 0 40 -12 50 -35zM215 525l-53 -141h105z" />
    <glyph glyph-name="C.ordn" horiz-adv-x="470" 
d="M251 236c-125 0 -222 94 -222 216s98 216 223 216c70 0 133 -30 168 -79c10 -14 13 -23 13 -34c0 -27 -21 -49 -48 -49c-19 0 -32 15 -48 30c-24 24 -52 36 -85 36c-70 0 -117 -50 -117 -121c0 -70 47 -119 117 -119c32 0 60 12 85 36c16 15 29 30 48 30
c27 0 48 -22 48 -49c0 -11 -3 -20 -13 -33c-38 -51 -100 -80 -169 -80z" />
    <glyph glyph-name="D.ordn" horiz-adv-x="455" 
d="M199 660c134 0 227 -84 227 -207c0 -122 -95 -209 -227 -209h-87c-32 0 -56 24 -56 55v306c0 31 24 55 56 55h87zM199 566h-39v-229h39c72 0 120 47 120 116c0 70 -45 113 -120 113z" />
    <glyph glyph-name="E.ordn" horiz-adv-x="380" 
d="M301 660c27 0 48 -20 48 -47s-21 -47 -48 -47h-141v-65h103c24 0 42 -18 42 -41s-18 -40 -42 -40h-103v-83h149c27 0 48 -19 48 -46s-21 -47 -48 -47h-198c-32 0 -55 23 -55 54v308c0 31 23 54 55 54h190z" />
    <glyph glyph-name="Egrave.ordn" horiz-adv-x="380" 
d="M199 696c-8 0 -23 3 -34 17l-43 53c-7 9 -11 19 -11 30c0 26 21 49 48 49c13 0 31 -5 42 -25l35 -60c3 -6 6 -14 6 -21c0 -22 -17 -43 -43 -43zM301 660c27 0 48 -20 48 -47s-21 -47 -48 -47h-141v-65h103c24 0 42 -18 42 -41s-18 -40 -42 -40h-103v-83h149
c27 0 48 -19 48 -46s-21 -47 -48 -47h-198c-32 0 -55 23 -55 54v308c0 31 23 54 55 54h190z" />
    <glyph glyph-name="G.ordn" horiz-adv-x="486" 
d="M253 236c-127 0 -224 94 -224 216s97 216 225 216c61 0 113 -22 151 -61c12 -13 18 -26 18 -39c0 -27 -22 -49 -49 -49c-15 0 -26 8 -37 18c-25 24 -52 35 -85 35c-71 0 -117 -48 -117 -120c0 -74 48 -123 123 -123c39 0 74 15 95 41v22h-68c-23 0 -42 18 -42 42
s19 41 42 41h119c30 0 52 -22 52 -53v-34c0 -26 -6 -47 -22 -67c-36 -50 -110 -85 -181 -85z" />
    <glyph glyph-name="H.ordn" horiz-adv-x="477" 
d="M369 668c30 0 52 -22 52 -53v-326c0 -32 -22 -53 -52 -53s-52 21 -52 53v124h-157v-124c0 -32 -22 -53 -51 -53c-31 0 -53 21 -53 53v326c0 31 23 53 53 53c29 0 51 -22 51 -53v-108h157v108c0 31 22 53 52 53z" />
    <glyph glyph-name="I.ordn" horiz-adv-x="216" 
d="M108 668c29 0 52 -22 52 -53v-326c0 -31 -23 -53 -52 -53c-30 0 -52 22 -52 53v326c0 31 22 53 52 53z" />
    <glyph glyph-name="L.ordn" horiz-adv-x="348" 
d="M109 668c29 0 51 -22 51 -53v-278h134c27 0 47 -19 47 -46s-20 -47 -47 -47h-183c-32 0 -55 23 -55 55v316c0 31 22 53 53 53z" />
    <glyph glyph-name="M.ordn" horiz-adv-x="531" 
d="M424 668c29 0 51 -23 51 -52v-328c0 -30 -21 -52 -51 -52c-31 0 -53 23 -53 52v164l-66 -98c-10 -14 -24 -21 -39 -21c-16 0 -30 8 -40 21l-66 98v-164c0 -29 -22 -52 -52 -52s-52 22 -52 52v328c0 29 23 52 52 52c18 0 33 -9 45 -27l113 -168l111 166c13 20 29 29 47 29
z" />
    <glyph glyph-name="N.ordn" horiz-adv-x="477" 
d="M369 668c30 0 52 -22 52 -52v-327c0 -31 -23 -53 -51 -53c-19 0 -33 12 -50 31l-160 202v-181c0 -30 -22 -52 -51 -52c-31 0 -53 22 -53 52v328c0 29 24 52 52 52c18 0 32 -12 49 -32l160 -196v176c0 30 22 52 52 52z" />
    <glyph glyph-name="O.ordn" horiz-adv-x="504" 
d="M251 668c125 0 224 -95 224 -216s-98 -216 -224 -216c-125 0 -222 95 -222 216s98 216 222 216zM252 572c-69 0 -117 -49 -117 -120s47 -120 117 -120c69 0 118 50 118 120c0 69 -50 120 -118 120z" />
    <glyph glyph-name="R.ordn" horiz-adv-x="424" 
d="M385 323c9 -11 14 -22 14 -34c0 -30 -24 -53 -54 -53c-14 0 -27 6 -36 18l-96 123h-53v-88c0 -31 -22 -53 -52 -53s-52 23 -52 53v315c0 32 24 56 56 56h105c94 0 158 -57 158 -141c0 -48 -21 -87 -57 -112zM160 569v-102h57c32 0 53 21 53 51c0 31 -21 51 -53 51h-57z
" />
    <glyph glyph-name="S.ordn" horiz-adv-x="356" 
d="M179 236c-61 0 -113 25 -147 65c-8 10 -12 21 -12 34c0 26 21 47 48 47c13 0 25 -5 34 -14c22 -22 48 -36 77 -36c26 0 45 12 45 32c0 18 -15 29 -44 39l-44 17c-64 23 -104 65 -104 125c0 74 61 123 144 123c59 0 104 -25 128 -60c7 -9 10 -18 10 -28
c0 -26 -22 -48 -48 -48c-12 0 -21 4 -36 17c-16 15 -32 23 -53 23s-38 -8 -38 -28c0 -17 13 -27 37 -35l48 -18c69 -24 106 -63 106 -124c0 -80 -62 -131 -151 -131z" />
    <glyph glyph-name="T.ordn" horiz-adv-x="378" 
d="M327 660c28 0 48 -20 48 -47s-20 -47 -48 -47h-86v-277c0 -30 -21 -53 -52 -53c-30 0 -52 23 -52 53v277h-86c-28 0 -48 20 -48 47s20 47 48 47h276z" />
    <glyph glyph-name="U.ordn" horiz-adv-x="467" 
d="M364 668c30 0 51 -23 51 -53v-195c0 -107 -76 -184 -181 -184c-106 0 -182 77 -182 184v195c0 30 22 53 52 53s52 -23 52 -53v-204c0 -47 32 -79 78 -79c45 0 77 32 77 79v204c0 30 22 53 53 53z" />
    <glyph glyph-name="Uacute.ordn" horiz-adv-x="467" 
d="M240 696c-28 0 -43 20 -43 42c0 8 3 15 6 22l35 60c11 20 29 25 42 25c27 0 48 -23 48 -49c0 -11 -4 -21 -11 -30l-43 -53c-11 -14 -26 -17 -34 -17zM234 236c-104 0 -182 75 -182 184v197c0 29 23 51 52 51c30 0 52 -22 52 -51v-206c0 -47 32 -79 78 -79
c45 0 77 32 77 79v206c0 29 23 51 53 51c29 0 51 -22 51 -51v-197c0 -109 -78 -184 -181 -184z" />
    <glyph glyph-name="Y.ordn" horiz-adv-x="409" 
d="M381 618c0 -11 -3 -21 -12 -35l-113 -192v-102c0 -30 -21 -53 -51 -53s-52 23 -52 53v101l-114 193c-8 14 -12 24 -12 35c0 27 23 50 51 50c20 0 35 -9 46 -29l80 -140l81 140c11 20 26 29 45 29c29 0 51 -23 51 -50z" />
    <glyph glyph-name="Z.ordn" horiz-adv-x="381" 
d="M320 337c28 0 49 -19 49 -46s-21 -47 -49 -47h-257c-27 0 -48 20 -48 48c0 12 4 22 13 34l193 240h-139c-28 0 -49 20 -49 47s21 47 49 47h230c27 0 48 -20 48 -48c0 -10 -4 -21 -13 -34l-184 -241h157z" />
    <glyph glyph-name="a" unicode="a" horiz-adv-x="545" 
d="M268 506c136 0 214 -77 214 -212v-238c0 -39 -28 -67 -65 -67c-33 0 -59 22 -65 52c-36 -34 -86 -53 -145 -53c-102 0 -171 60 -171 148c0 89 71 144 187 144h124v22c0 55 -33 87 -93 87c-35 0 -66 -12 -95 -37c-16 -12 -27 -16 -40 -16c-33 0 -58 25 -58 55
c0 19 10 37 28 54c42 39 107 61 179 61zM243 87c59 0 104 42 104 98v6h-106c-45 0 -69 -17 -69 -50s27 -54 71 -54z" />
    <glyph glyph-name="aacute" unicode="&#xe1;" horiz-adv-x="545" 
d="M289 562c-38 2 -60 32 -58 63c0 10 4 21 8 30l47 107c11 25 38 39 62 39c39 0 67 -32 67 -68c0 -12 -3 -24 -11 -37l-62 -103c-12 -19 -32 -32 -53 -31zM268 506c136 0 214 -77 214 -212v-238c0 -39 -28 -67 -65 -67c-33 0 -59 22 -65 52c-36 -34 -86 -53 -145 -53
c-102 0 -171 60 -171 148c0 89 71 144 187 144h124v22c0 55 -33 87 -93 87c-35 0 -66 -12 -95 -37c-16 -12 -27 -16 -40 -16c-33 0 -58 25 -58 55c0 19 10 37 28 54c42 39 107 61 179 61zM243 87c59 0 104 42 104 98v6h-106c-45 0 -69 -17 -69 -50s27 -54 71 -54z" />
    <glyph glyph-name="abreve" unicode="&#x103;" horiz-adv-x="545" 
d="M271 573c-92 0 -171 68 -171 145c0 31 23 55 52 55c27 0 44 -13 52 -41c8 -35 33 -57 67 -57c33 0 58 22 66 57c8 27 26 41 51 41c30 0 53 -24 53 -55c0 -78 -77 -145 -170 -145zM268 506c136 0 214 -77 214 -212v-238c0 -39 -28 -67 -65 -67c-33 0 -59 22 -65 52
c-36 -34 -86 -53 -145 -53c-102 0 -171 60 -171 148c0 89 71 144 187 144h124v22c0 55 -33 87 -93 87c-35 0 -66 -12 -95 -37c-16 -12 -27 -16 -40 -16c-33 0 -58 25 -58 55c0 19 10 37 28 54c42 39 107 61 179 61zM243 87c59 0 104 42 104 98v6h-106c-45 0 -69 -17 -69 -50
s27 -54 71 -54z" />
    <glyph glyph-name="acircumflex" unicode="&#xe2;" horiz-adv-x="545" 
d="M158 566c-26 0 -51 20 -51 50c0 17 7 27 17 39l96 115c16 18 34 23 51 23s34 -5 50 -23l96 -115c10 -12 17 -22 17 -39c0 -30 -25 -50 -51 -50c-13 0 -25 6 -34 15l-78 82l-79 -82c-9 -9 -21 -15 -34 -15zM268 506c136 0 214 -77 214 -212v-238c0 -39 -28 -67 -65 -67
c-33 0 -59 22 -65 52c-36 -34 -86 -53 -145 -53c-102 0 -171 60 -171 148c0 89 71 144 187 144h124v22c0 55 -33 87 -93 87c-35 0 -66 -12 -95 -37c-16 -12 -27 -16 -40 -16c-33 0 -58 25 -58 55c0 19 10 37 28 54c42 39 107 61 179 61zM243 87c59 0 104 42 104 98v6h-106
c-45 0 -69 -17 -69 -50s27 -54 71 -54z" />
    <glyph glyph-name="adieresis" unicode="&#xe4;" horiz-adv-x="545" 
d="M152 598c-43 0 -81 37 -81 77c0 44 37 79 81 79c45 0 81 -34 81 -79c0 -42 -37 -77 -81 -77zM389 598c-42 0 -80 37 -80 77c0 44 36 79 80 79c46 0 81 -34 81 -79c0 -42 -36 -77 -81 -77zM268 506c136 0 214 -77 214 -212v-238c0 -39 -28 -67 -65 -67
c-33 0 -59 22 -65 52c-36 -34 -86 -53 -145 -53c-102 0 -171 60 -171 148c0 89 71 144 187 144h124v22c0 55 -33 87 -93 87c-35 0 -66 -12 -95 -37c-16 -12 -27 -16 -40 -16c-33 0 -58 25 -58 55c0 19 10 37 28 54c42 39 107 61 179 61zM243 87c59 0 104 42 104 98v6h-106
c-45 0 -69 -17 -69 -50s27 -54 71 -54z" />
    <glyph glyph-name="agrave" unicode="&#xe0;" horiz-adv-x="545" 
d="M199 593l-62 103c-8 13 -11 25 -11 37c0 36 28 68 67 68c24 0 51 -14 62 -39l47 -107c4 -9 8 -20 8 -30c2 -31 -20 -61 -58 -63c-21 -1 -41 12 -53 31zM268 506c136 0 214 -77 214 -212v-238c0 -39 -28 -67 -65 -67c-33 0 -59 22 -65 52c-36 -34 -86 -53 -145 -53
c-102 0 -171 60 -171 148c0 89 71 144 187 144h124v22c0 55 -33 87 -93 87c-35 0 -66 -12 -95 -37c-16 -12 -27 -16 -40 -16c-33 0 -58 25 -58 55c0 19 10 37 28 54c42 39 107 61 179 61zM243 87c59 0 104 42 104 98v6h-106c-45 0 -69 -17 -69 -50s27 -54 71 -54z" />
    <glyph glyph-name="amacron" unicode="&#x101;" horiz-adv-x="545" 
d="M168 622c-32 0 -56 23 -56 53s24 53 56 53h206c32 0 56 -23 56 -53s-24 -53 -56 -53h-206zM268 506c136 0 214 -77 214 -212v-238c0 -39 -28 -67 -65 -67c-33 0 -59 22 -65 52c-36 -34 -86 -53 -145 -53c-102 0 -171 60 -171 148c0 89 71 144 187 144h124v22
c0 55 -33 87 -93 87c-35 0 -66 -12 -95 -37c-16 -12 -27 -16 -40 -16c-33 0 -58 25 -58 55c0 19 10 37 28 54c42 39 107 61 179 61zM243 87c59 0 104 42 104 98v6h-106c-45 0 -69 -17 -69 -50s27 -54 71 -54z" />
    <glyph glyph-name="aogonek" unicode="&#x105;" horiz-adv-x="545" 
d="M456 -93c25 0 41 -18 41 -44c0 -23 -13 -41 -38 -48c-16 -4 -38 -7 -60 -7c-73 0 -120 40 -120 103c0 46 25 80 75 122c-1 3 -2 6 -2 8c-36 -34 -86 -53 -145 -53c-102 0 -171 60 -171 148c0 89 71 144 187 144h124v22c0 55 -33 87 -93 87c-35 0 -66 -12 -95 -37
c-16 -12 -27 -16 -40 -16c-33 0 -58 25 -58 55c0 19 10 37 28 54c42 39 107 61 179 61c136 0 214 -77 214 -212v-238v-7v-4c0 -16 -8 -30 -21 -41c-28 -24 -56 -49 -56 -72c0 -15 12 -26 35 -26c7 0 12 1 16 1zM243 87c59 0 104 42 104 98v6h-106c-45 0 -69 -17 -69 -50
s27 -54 71 -54z" />
    <glyph glyph-name="aring" unicode="&#xe5;" horiz-adv-x="545" 
d="M270 550c-72 0 -126 53 -126 123c0 69 54 122 126 122c73 0 127 -52 127 -122s-54 -123 -127 -123zM271 714c-23 0 -41 -17 -41 -41s17 -41 41 -41c23 0 41 18 41 41c0 24 -18 41 -41 41zM268 506c136 0 214 -77 214 -212v-238c0 -39 -28 -67 -65 -67
c-33 0 -59 22 -65 52c-36 -34 -86 -53 -145 -53c-102 0 -171 60 -171 148c0 89 71 144 187 144h124v22c0 55 -33 87 -93 87c-35 0 -66 -12 -95 -37c-16 -12 -27 -16 -40 -16c-33 0 -58 25 -58 55c0 19 10 37 28 54c42 39 107 61 179 61zM243 87c59 0 104 42 104 98v6h-106
c-45 0 -69 -17 -69 -50s27 -54 71 -54z" />
    <glyph glyph-name="atilde" unicode="&#xe3;" horiz-adv-x="545" 
d="M131 574c-32 0 -53 23 -53 58c0 78 49 129 116 129c24 0 50 -9 71 -23l28 -18c18 -12 28 -19 42 -19c15 0 22 9 27 28c6 23 25 37 50 37c33 0 53 -23 53 -58c0 -77 -47 -129 -112 -129c-26 0 -52 8 -75 23l-28 18c-18 13 -26 20 -39 20c-17 0 -25 -10 -30 -28
c-6 -24 -24 -38 -50 -38zM268 506c136 0 214 -77 214 -212v-238c0 -39 -28 -67 -65 -67c-33 0 -59 22 -65 52c-36 -34 -86 -53 -145 -53c-102 0 -171 60 -171 148c0 89 71 144 187 144h124v22c0 55 -33 87 -93 87c-35 0 -66 -12 -95 -37c-16 -12 -27 -16 -40 -16
c-33 0 -58 25 -58 55c0 19 10 37 28 54c42 39 107 61 179 61zM243 87c59 0 104 42 104 98v6h-106c-45 0 -69 -17 -69 -50s27 -54 71 -54z" />
    <glyph glyph-name="ae" unicode="&#xe6;" horiz-adv-x="878" 
d="M608 506c134 0 232 -97 232 -231v-7c0 -43 -29 -71 -73 -71h-282c18 -59 67 -93 139 -93c38 0 75 10 102 29c12 7 20 9 29 9c31 0 55 -23 55 -54c0 -22 -10 -38 -34 -54c-44 -30 -98 -46 -156 -46c-89 0 -163 38 -208 100c-38 -64 -106 -100 -195 -100
c-111 0 -181 58 -181 149c0 92 72 149 187 149h124v16c0 55 -33 87 -92 87c-35 0 -66 -12 -96 -37c-16 -12 -27 -16 -40 -16c-32 0 -58 25 -58 56c0 19 10 36 29 53c41 39 105 61 178 61s130 -26 164 -73c44 46 105 73 176 73zM603 397c-63 0 -109 -44 -122 -111h228
c2 66 -42 111 -106 111zM242 88c60 0 105 41 105 96v13h-106c-45 0 -69 -18 -69 -52c0 -35 27 -57 70 -57z" />
    <glyph glyph-name="aeacute" unicode="&#x1fd;" horiz-adv-x="878" 
d="M450 562c-38 2 -60 32 -58 63c0 10 4 21 8 30l47 107c11 25 38 39 62 39c39 0 67 -32 67 -68c0 -12 -3 -24 -11 -37l-62 -103c-12 -19 -32 -32 -53 -31zM608 506c134 0 232 -97 232 -231v-7c0 -43 -29 -71 -73 -71h-282c18 -59 67 -93 139 -93c38 0 75 10 102 29
c12 7 20 9 29 9c31 0 55 -23 55 -54c0 -22 -10 -38 -34 -54c-44 -30 -98 -46 -156 -46c-89 0 -163 38 -208 100c-38 -64 -106 -100 -195 -100c-111 0 -181 58 -181 149c0 92 72 149 187 149h124v16c0 55 -33 87 -92 87c-35 0 -66 -12 -96 -37c-16 -12 -27 -16 -40 -16
c-32 0 -58 25 -58 56c0 19 10 36 29 53c41 39 105 61 178 61s130 -26 164 -73c44 46 105 73 176 73zM603 397c-63 0 -109 -44 -122 -111h228c2 66 -42 111 -106 111zM242 88c60 0 105 41 105 96v13h-106c-45 0 -69 -18 -69 -52c0 -35 27 -57 70 -57z" />
    <glyph glyph-name="b" unicode="b" horiz-adv-x="629" 
d="M350 506c139 0 240 -109 240 -259s-101 -259 -240 -259c-64 0 -117 23 -151 63c-3 -37 -30 -63 -65 -63c-38 0 -67 30 -67 69v636c0 39 29 69 68 69c38 0 67 -29 67 -69v-246c34 37 86 59 148 59zM325 111c75 0 128 57 128 137c0 78 -54 136 -128 136s-125 -56 -125 -137
s50 -136 125 -136z" />
    <glyph glyph-name="c" unicode="c" horiz-adv-x="552" 
d="M304 -12c-149 0 -265 115 -265 260s116 258 265 258c84 0 162 -40 200 -98c9 -14 12 -25 12 -36c0 -33 -27 -60 -60 -60c-19 0 -34 6 -46 21c-25 30 -60 50 -104 50c-76 0 -130 -56 -130 -135c0 -80 54 -136 130 -136c43 0 77 20 104 50c14 16 28 21 46 21
c33 0 60 -27 60 -60c0 -12 -3 -22 -11 -34c-41 -63 -113 -101 -201 -101z" />
    <glyph glyph-name="cacute" unicode="&#x107;" horiz-adv-x="552" 
d="M322 562c-38 2 -60 32 -58 63c0 10 4 21 8 30l47 107c11 25 38 39 62 39c39 0 67 -32 67 -68c0 -12 -3 -24 -11 -37l-62 -103c-12 -19 -32 -32 -53 -31zM304 -12c-149 0 -265 115 -265 260s116 258 265 258c84 0 162 -40 200 -98c9 -14 12 -25 12 -36
c0 -33 -27 -60 -60 -60c-19 0 -34 6 -46 21c-25 30 -60 50 -104 50c-76 0 -130 -56 -130 -135c0 -80 54 -136 130 -136c43 0 77 20 104 50c14 16 28 21 46 21c33 0 60 -27 60 -60c0 -12 -3 -22 -11 -34c-41 -63 -113 -101 -201 -101z" />
    <glyph glyph-name="ccaron" unicode="&#x10d;" horiz-adv-x="552" 
d="M253 590l-96 115c-10 12 -17 22 -17 39c0 30 25 50 51 50c13 0 25 -6 34 -15l79 -82l78 82c9 9 21 15 34 15c26 0 51 -20 51 -50c0 -17 -7 -27 -17 -39l-96 -115c-16 -18 -33 -23 -50 -23s-35 5 -51 23zM456 183c33 0 60 -27 60 -60c0 -12 -3 -22 -11 -34
c-41 -63 -113 -101 -201 -101c-149 0 -265 115 -265 260s116 258 265 258c84 0 162 -40 200 -98c9 -14 12 -25 12 -36c0 -33 -27 -60 -60 -60c-19 0 -34 6 -46 21c-25 30 -60 50 -104 50c-76 0 -130 -56 -130 -135c0 -80 54 -136 130 -136c43 0 77 20 104 50
c14 16 28 21 46 21z" />
    <glyph glyph-name="ccedilla" unicode="&#xe7;" horiz-adv-x="552" 
d="M456 183c33 0 60 -27 60 -60c0 -12 -3 -22 -11 -34c-26 -40 -65 -70 -113 -87c12 -21 19 -44 19 -65c0 -79 -61 -129 -154 -129c-29 0 -49 3 -65 9c-21 9 -32 23 -32 43c0 27 21 48 48 48c10 0 20 -1 32 -1c33 0 58 12 58 40c0 17 -5 30 -12 42c-140 9 -247 120 -247 259
c0 145 116 258 265 258c84 0 162 -40 200 -98c9 -14 12 -25 12 -36c0 -33 -27 -60 -60 -60c-19 0 -34 6 -46 21c-25 30 -60 50 -104 50c-76 0 -130 -56 -130 -135c0 -80 54 -136 130 -136c43 0 77 20 104 50c14 16 28 21 46 21z" />
    <glyph glyph-name="ccircumflex" unicode="&#x109;" horiz-adv-x="552" 
d="M191 566c-26 0 -51 20 -51 50c0 17 7 27 17 39l96 115c16 18 34 23 51 23s34 -5 50 -23l96 -115c10 -12 17 -22 17 -39c0 -30 -25 -50 -51 -50c-13 0 -25 6 -34 15l-78 82l-79 -82c-9 -9 -21 -15 -34 -15zM456 183c33 0 60 -27 60 -60c0 -12 -3 -22 -11 -34
c-41 -63 -113 -101 -201 -101c-149 0 -265 115 -265 260s116 258 265 258c84 0 162 -40 200 -98c9 -14 12 -25 12 -36c0 -33 -27 -60 -60 -60c-19 0 -34 6 -46 21c-25 30 -60 50 -104 50c-76 0 -130 -56 -130 -135c0 -80 54 -136 130 -136c43 0 77 20 104 50
c14 16 28 21 46 21z" />
    <glyph glyph-name="cdotaccent" unicode="&#x10b;" horiz-adv-x="552" 
d="M304 757c45 0 84 -36 84 -82c0 -45 -39 -81 -84 -81c-47 0 -85 36 -85 81c0 46 38 82 85 82zM304 -12c-149 0 -265 115 -265 260s116 258 265 258c84 0 162 -40 200 -98c9 -14 12 -25 12 -36c0 -33 -27 -60 -60 -60c-19 0 -34 6 -46 21c-25 30 -60 50 -104 50
c-76 0 -130 -56 -130 -135c0 -80 54 -136 130 -136c43 0 77 20 104 50c14 16 28 21 46 21c33 0 60 -27 60 -60c0 -12 -3 -22 -11 -34c-41 -63 -113 -101 -201 -101z" />
    <glyph glyph-name="d" unicode="d" horiz-adv-x="629" 
d="M495 762c38 0 67 -29 67 -69v-637c0 -39 -28 -68 -66 -68c-35 0 -64 28 -66 63c-34 -40 -87 -63 -151 -63c-139 0 -240 109 -240 259s101 259 240 259c62 0 114 -22 148 -59v246c0 39 29 69 68 69zM304 111c75 0 125 55 125 136s-51 137 -125 137s-128 -58 -128 -136
c0 -80 53 -137 128 -137z" />
    <glyph glyph-name="eth" unicode="&#xf0;" horiz-adv-x="573" 
d="M416 482c88 -117 118 -181 118 -255c0 -137 -104 -239 -246 -239c-144 0 -249 99 -249 232c0 128 100 225 232 225h10l-62 84l-99 -49c-11 -5 -20 -8 -30 -8c-28 0 -52 24 -52 53c0 20 11 38 29 47l88 44l-32 44c-8 13 -13 27 -13 39c0 34 29 63 63 63
c21 0 39 -10 53 -30l45 -59l118 58c11 6 20 8 30 8c28 0 52 -24 52 -53c0 -19 -11 -38 -29 -47l-106 -52zM286 108c65 0 112 47 112 113c0 65 -47 112 -112 112s-111 -47 -111 -113c0 -65 45 -112 111 -112z" />
    <glyph glyph-name="dcaron" unicode="&#x10f;" horiz-adv-x="792" 
d="M724 780c42 0 81 -40 63 -93l-32 -111c-6 -16 -21 -41 -56 -41c-34 0 -66 30 -59 73l17 112c4 30 30 60 67 60zM495 762c38 0 67 -29 67 -69v-637c0 -39 -28 -68 -66 -68c-35 0 -64 28 -66 63c-34 -40 -87 -63 -151 -63c-139 0 -240 109 -240 259s101 259 240 259
c62 0 114 -22 148 -59v246c0 39 29 69 68 69zM304 111c75 0 125 55 125 136s-51 137 -125 137s-128 -58 -128 -136c0 -80 53 -137 128 -137z" />
    <glyph glyph-name="dcroat" unicode="&#x111;" horiz-adv-x="636" 
d="M592 662c31 0 55 -23 55 -55s-24 -54 -55 -54h-31v-496c0 -40 -27 -69 -65 -69c-37 0 -64 28 -66 65c-35 -41 -90 -65 -155 -65c-137 0 -237 103 -237 244s100 245 236 245c64 0 117 -24 153 -64v140h-156c-32 0 -55 22 -55 54s23 55 55 55h156v31c0 39 28 69 67 69
c38 0 67 -29 67 -69v-31h31zM303 102c76 0 126 52 126 129c0 79 -51 132 -126 132c-73 0 -127 -54 -127 -131c0 -76 53 -130 127 -130z" />
    <glyph glyph-name="e" unicode="e" horiz-adv-x="569" 
d="M296 506c135 0 235 -98 235 -232v-3c0 -42 -30 -69 -74 -69h-282c16 -62 66 -98 139 -98c36 0 73 10 103 29c10 6 19 9 29 9c31 0 55 -23 55 -54c0 -22 -10 -38 -34 -54c-45 -30 -99 -46 -157 -46c-156 0 -271 111 -271 259c0 147 111 259 257 259zM293 397
c-59 0 -103 -39 -118 -100h225c-2 59 -44 100 -107 100z" />
    <glyph glyph-name="eacute" unicode="&#xe9;" horiz-adv-x="569" 
d="M316 562c-38 2 -60 32 -58 63c0 10 4 21 8 30l47 107c11 25 38 39 62 39c39 0 67 -32 67 -68c0 -12 -3 -24 -11 -37l-62 -103c-12 -19 -32 -32 -53 -31zM296 506c135 0 235 -98 235 -232v-3c0 -42 -30 -69 -74 -69h-282c16 -62 66 -98 139 -98c36 0 73 10 103 29
c10 6 19 9 29 9c31 0 55 -23 55 -54c0 -22 -10 -38 -34 -54c-45 -30 -99 -46 -157 -46c-156 0 -271 111 -271 259c0 147 111 259 257 259zM293 397c-59 0 -103 -39 -118 -100h225c-2 59 -44 100 -107 100z" />
    <glyph glyph-name="ebreve" unicode="&#x115;" horiz-adv-x="569" 
d="M298 573c-92 0 -171 68 -171 145c0 31 23 55 52 55c27 0 44 -13 52 -41c8 -35 33 -57 67 -57c33 0 58 22 66 57c8 27 26 41 51 41c30 0 53 -24 53 -55c0 -78 -77 -145 -170 -145zM296 506c135 0 235 -98 235 -232v-3c0 -42 -30 -69 -74 -69h-282c16 -62 66 -98 139 -98
c36 0 73 10 103 29c10 6 19 9 29 9c31 0 55 -23 55 -54c0 -22 -10 -38 -34 -54c-45 -30 -99 -46 -157 -46c-156 0 -271 111 -271 259c0 147 111 259 257 259zM293 397c-59 0 -103 -39 -118 -100h225c-2 59 -44 100 -107 100z" />
    <glyph glyph-name="ecaron" unicode="&#x11b;" horiz-adv-x="569" 
d="M247 590l-96 115c-10 12 -17 22 -17 39c0 30 25 50 51 50c13 0 25 -6 34 -15l79 -82l78 82c9 9 21 15 34 15c26 0 51 -20 51 -50c0 -17 -7 -27 -17 -39l-96 -115c-16 -18 -33 -23 -50 -23s-35 5 -51 23zM296 506c135 0 235 -98 235 -232v-3c0 -42 -30 -69 -74 -69h-282
c16 -62 66 -98 139 -98c36 0 73 10 103 29c10 6 19 9 29 9c31 0 55 -23 55 -54c0 -22 -10 -38 -34 -54c-45 -30 -99 -46 -157 -46c-156 0 -271 111 -271 259c0 147 111 259 257 259zM293 397c-59 0 -103 -39 -118 -100h225c-2 59 -44 100 -107 100z" />
    <glyph glyph-name="ecircumflex" unicode="&#xea;" horiz-adv-x="569" 
d="M185 566c-26 0 -51 20 -51 50c0 17 7 27 17 39l96 115c16 18 34 23 51 23s34 -5 50 -23l96 -115c10 -12 17 -22 17 -39c0 -30 -25 -50 -51 -50c-13 0 -25 6 -34 15l-78 82l-79 -82c-9 -9 -21 -15 -34 -15zM296 506c135 0 235 -98 235 -232v-3c0 -42 -30 -69 -74 -69h-282
c16 -62 66 -98 139 -98c36 0 73 10 103 29c10 6 19 9 29 9c31 0 55 -23 55 -54c0 -22 -10 -38 -34 -54c-45 -30 -99 -46 -157 -46c-156 0 -271 111 -271 259c0 147 111 259 257 259zM293 397c-59 0 -103 -39 -118 -100h225c-2 59 -44 100 -107 100z" />
    <glyph glyph-name="edieresis" unicode="&#xeb;" horiz-adv-x="569" 
d="M179 598c-43 0 -81 37 -81 77c0 44 37 79 81 79c45 0 81 -34 81 -79c0 -42 -37 -77 -81 -77zM416 598c-42 0 -80 37 -80 77c0 44 36 79 80 79c46 0 81 -34 81 -79c0 -42 -36 -77 -81 -77zM296 506c135 0 235 -98 235 -232v-3c0 -42 -30 -69 -74 -69h-282
c16 -62 66 -98 139 -98c36 0 73 10 103 29c10 6 19 9 29 9c31 0 55 -23 55 -54c0 -22 -10 -38 -34 -54c-45 -30 -99 -46 -157 -46c-156 0 -271 111 -271 259c0 147 111 259 257 259zM293 397c-59 0 -103 -39 -118 -100h225c-2 59 -44 100 -107 100z" />
    <glyph glyph-name="edotaccent" unicode="&#x117;" horiz-adv-x="569" 
d="M298 594c-47 0 -85 36 -85 81c0 46 38 82 85 82c45 0 84 -36 84 -82c0 -45 -39 -81 -84 -81zM296 506c135 0 235 -98 235 -232v-3c0 -42 -30 -69 -74 -69h-282c16 -62 66 -98 139 -98c36 0 73 10 103 29c10 6 19 9 29 9c31 0 55 -23 55 -54c0 -22 -10 -38 -34 -54
c-45 -30 -99 -46 -157 -46c-156 0 -271 111 -271 259c0 147 111 259 257 259zM293 397c-59 0 -103 -39 -118 -100h225c-2 59 -44 100 -107 100z" />
    <glyph glyph-name="egrave" unicode="&#xe8;" horiz-adv-x="569" 
d="M226 593l-62 103c-8 13 -11 25 -11 37c0 36 28 68 67 68c24 0 51 -14 62 -39l47 -107c4 -9 8 -20 8 -30c2 -31 -20 -61 -58 -63c-21 -1 -41 12 -53 31zM296 506c135 0 235 -98 235 -232v-3c0 -42 -30 -69 -74 -69h-282c16 -62 66 -98 139 -98c36 0 73 10 103 29
c10 6 19 9 29 9c31 0 55 -23 55 -54c0 -22 -10 -38 -34 -54c-45 -30 -99 -46 -157 -46c-156 0 -271 111 -271 259c0 147 111 259 257 259zM293 397c-59 0 -103 -39 -118 -100h225c-2 59 -44 100 -107 100z" />
    <glyph glyph-name="emacron" unicode="&#x113;" horiz-adv-x="569" 
d="M195 622c-32 0 -56 23 -56 53s24 53 56 53h206c32 0 56 -23 56 -53s-24 -53 -56 -53h-206zM296 506c135 0 235 -98 235 -232v-3c0 -42 -30 -69 -74 -69h-282c16 -62 66 -98 139 -98c36 0 73 10 103 29c10 6 19 9 29 9c31 0 55 -23 55 -54c0 -22 -10 -38 -34 -54
c-45 -30 -99 -46 -157 -46c-156 0 -271 111 -271 259c0 147 111 259 257 259zM293 397c-59 0 -103 -39 -118 -100h225c-2 59 -44 100 -107 100z" />
    <glyph glyph-name="eogonek" unicode="&#x119;" horiz-adv-x="569" 
d="M296 506c135 0 235 -98 235 -232v-3c0 -42 -30 -69 -74 -69h-282c16 -62 66 -98 139 -98c36 0 73 10 103 29c10 6 19 9 29 9c31 0 55 -23 55 -54c0 -22 -10 -38 -34 -54l-36 -27c-34 -24 -62 -46 -62 -72c0 -18 15 -30 36 -30c5 0 12 2 15 2c25 0 42 -18 42 -44
c0 -23 -14 -41 -39 -48c-16 -4 -37 -7 -60 -7c-72 0 -120 40 -120 102c0 26 12 53 35 80c-140 14 -239 119 -239 257c0 147 111 259 257 259zM293 397c-59 0 -103 -39 -118 -100h225c-2 59 -44 100 -107 100z" />
    <glyph glyph-name="f" unicode="f" horiz-adv-x="342" 
d="M297 641c-46 0 -72 -28 -72 -77v-69h62c33 0 57 -24 57 -57s-24 -57 -57 -57h-62v-324c0 -40 -29 -69 -67 -69c-39 0 -68 30 -68 69v324h-22c-33 0 -58 24 -58 57s25 57 58 57h22v81c0 117 69 186 184 186c26 0 46 -4 64 -13c21 -9 34 -29 34 -54c0 -33 -23 -55 -59 -55
c-4 0 -9 1 -16 1z" />
    <glyph glyph-name="g" unicode="g" horiz-adv-x="631" 
d="M498 506c38 0 66 -29 66 -68v-383c0 -156 -95 -247 -256 -247c-81 0 -156 24 -213 69c-18 13 -28 31 -28 49c0 34 27 61 61 61c12 0 24 -5 36 -13c43 -30 85 -44 133 -44c83 0 132 43 132 117v27c-35 -38 -87 -59 -151 -59c-139 0 -237 102 -237 246s98 245 237 245
c67 0 120 -23 154 -63c2 36 31 63 66 63zM306 129c75 0 125 54 125 134c0 77 -49 128 -125 128c-75 0 -128 -53 -128 -129c0 -77 54 -133 128 -133z" />
    <glyph glyph-name="gbreve" unicode="&#x11f;" horiz-adv-x="631" 
d="M309 573c-92 0 -171 68 -171 145c0 31 23 55 52 55c27 0 44 -13 52 -41c8 -35 33 -57 67 -57c33 0 58 22 66 57c8 27 26 41 51 41c30 0 53 -24 53 -55c0 -78 -77 -145 -170 -145zM498 506c38 0 66 -29 66 -68v-383c0 -156 -95 -247 -256 -247c-81 0 -156 24 -213 69
c-18 13 -28 31 -28 49c0 34 27 61 61 61c12 0 24 -5 36 -13c43 -30 85 -44 133 -44c83 0 132 43 132 117v27c-35 -38 -87 -59 -151 -59c-139 0 -237 102 -237 246s98 245 237 245c67 0 120 -23 154 -63c2 36 31 63 66 63zM306 129c75 0 125 54 125 134
c0 77 -49 128 -125 128c-75 0 -128 -53 -128 -129c0 -77 54 -133 128 -133z" />
    <glyph glyph-name="gcircumflex" unicode="&#x11d;" horiz-adv-x="631" 
d="M196 566c-26 0 -51 20 -51 50c0 17 7 27 17 39l96 115c16 18 34 23 51 23s34 -5 50 -23l96 -115c10 -12 17 -22 17 -39c0 -30 -25 -50 -51 -50c-13 0 -25 6 -34 15l-78 82l-79 -82c-9 -9 -21 -15 -34 -15zM498 506c38 0 66 -29 66 -68v-383c0 -156 -95 -247 -256 -247
c-81 0 -156 24 -213 69c-18 13 -28 31 -28 49c0 34 27 61 61 61c12 0 24 -5 36 -13c43 -30 85 -44 133 -44c83 0 132 43 132 117v27c-35 -38 -87 -59 -151 -59c-139 0 -237 102 -237 246s98 245 237 245c67 0 120 -23 154 -63c2 36 31 63 66 63zM306 129
c75 0 125 54 125 134c0 77 -49 128 -125 128c-75 0 -128 -53 -128 -129c0 -77 54 -133 128 -133z" />
    <glyph glyph-name="gcommaaccent" unicode="&#x123;" horiz-adv-x="631" 
d="M309 560c-36 0 -65 28 -65 65c0 45 14 108 30 145c12 28 32 48 62 48s57 -24 57 -57c0 -12 -4 -26 -7 -40c-6 -33 -11 -68 -11 -96c0 -37 -30 -65 -66 -65zM498 506c38 0 66 -29 66 -68v-383c0 -156 -95 -247 -256 -247c-81 0 -156 24 -213 69c-18 13 -28 31 -28 49
c0 34 27 61 61 61c12 0 24 -5 36 -13c43 -30 85 -44 133 -44c83 0 132 43 132 117v27c-35 -38 -87 -59 -151 -59c-139 0 -237 102 -237 246s98 245 237 245c67 0 120 -23 154 -63c2 36 31 63 66 63zM306 129c75 0 125 54 125 134c0 77 -49 128 -125 128
c-75 0 -128 -53 -128 -129c0 -77 54 -133 128 -133z" />
    <glyph glyph-name="gdotaccent" unicode="&#x121;" horiz-adv-x="631" 
d="M309 594c-47 0 -85 36 -85 81c0 46 38 82 85 82c45 0 84 -36 84 -82c0 -45 -39 -81 -84 -81zM498 506c38 0 66 -29 66 -68v-383c0 -156 -95 -247 -256 -247c-81 0 -156 24 -213 69c-18 13 -28 31 -28 49c0 34 27 61 61 61c12 0 24 -5 36 -13c43 -30 85 -44 133 -44
c83 0 132 43 132 117v27c-35 -38 -87 -59 -151 -59c-139 0 -237 102 -237 246s98 245 237 245c67 0 120 -23 154 -63c2 36 31 63 66 63zM306 129c75 0 125 54 125 134c0 77 -49 128 -125 128c-75 0 -128 -53 -128 -129c0 -77 54 -133 128 -133z" />
    <glyph glyph-name="h" unicode="h" horiz-adv-x="585" 
d="M338 506c111 0 184 -79 184 -199v-250c0 -40 -28 -69 -67 -69c-38 0 -67 30 -67 69v231c0 58 -37 96 -92 96s-94 -39 -94 -96v-231c0 -40 -29 -69 -67 -69c-39 0 -68 30 -68 69v636c0 39 29 69 68 69c38 0 67 -29 67 -69v-241c34 34 81 54 136 54z" />
    <glyph glyph-name="hbar" unicode="&#x127;" horiz-adv-x="593" 
d="M345 477c112 0 185 -79 185 -199v-221c0 -40 -29 -69 -67 -69c-39 0 -68 30 -68 69v202c0 57 -37 96 -91 96c-56 0 -95 -39 -95 -96v-202c0 -39 -29 -69 -67 -69s-67 30 -67 69v494h-30c-32 0 -57 24 -57 56s25 55 57 55h30v31c0 40 28 69 67 69c38 0 67 -30 67 -69v-31
h142c32 0 56 -23 56 -55s-24 -56 -56 -56h-142v-128c34 34 81 54 136 54z" />
    <glyph glyph-name="hcircumflex" unicode="&#x125;" horiz-adv-x="585" 
d="M118 828c-15 -13 -28 -16 -39 -16c-27 0 -49 22 -49 50c0 18 11 29 30 47l94 92c14 13 30 20 47 20s32 -6 47 -20l94 -92c19 -18 30 -29 30 -47c0 -28 -22 -50 -49 -50c-11 0 -24 3 -39 16l-83 76zM338 506c111 0 184 -79 184 -199v-250c0 -40 -28 -69 -67 -69
c-38 0 -67 30 -67 69v231c0 58 -37 96 -92 96s-94 -39 -94 -96v-231c0 -40 -29 -69 -67 -69c-39 0 -68 30 -68 69v636c0 39 29 69 68 69c38 0 67 -29 67 -69v-241c34 34 81 54 136 54z" />
    <glyph glyph-name="i" unicode="i" horiz-adv-x="269" 
d="M135 757c45 0 84 -36 84 -82c0 -45 -39 -81 -84 -81c-47 0 -85 36 -85 81c0 46 38 82 85 82zM134 -12c-38 0 -67 30 -67 69v381c0 39 29 68 68 68c38 0 67 -29 67 -68v-381c0 -39 -29 -69 -68 -69z" />
    <glyph glyph-name="dotlessi" unicode="&#x131;" horiz-adv-x="269" 
d="M134 -12c-38 0 -67 30 -67 69v381c0 39 29 68 68 68c38 0 67 -29 67 -68v-381c0 -39 -29 -69 -68 -69z" />
    <glyph glyph-name="iacute" unicode="&#xed;" horiz-adv-x="269" 
d="M158 568c-38 -5 -65 21 -68 52c-2 10 0 21 2 31l28 114c7 26 31 45 54 49c39 6 72 -20 78 -56c2 -11 1 -24 -4 -38l-43 -112c-9 -21 -26 -37 -47 -40zM134 -12c-38 0 -67 30 -67 69v381c0 39 29 68 68 68c38 0 67 -29 67 -68v-381c0 -39 -29 -69 -68 -69z" />
    <glyph glyph-name="ibreve" unicode="&#x12d;" horiz-adv-x="269" 
d="M135 573c-92 0 -171 68 -171 145c0 31 23 55 52 55c27 0 44 -13 52 -41c8 -35 33 -57 67 -57c33 0 58 22 66 57c8 27 26 41 51 41c30 0 53 -24 53 -55c0 -78 -77 -145 -170 -145zM134 -12c-38 0 -67 30 -67 69v381c0 39 29 68 68 68c38 0 67 -29 67 -68v-381
c0 -39 -29 -69 -68 -69z" />
    <glyph glyph-name="icircumflex" unicode="&#xee;" horiz-adv-x="269" 
d="M281 655c10 -12 17 -22 17 -39c0 -30 -25 -50 -51 -50c-13 0 -25 6 -34 15l-78 82l-79 -82c-9 -9 -21 -15 -34 -15c-26 0 -51 20 -51 50c0 17 7 27 17 39l96 115c16 18 34 23 51 23s34 -5 50 -23zM135 506c38 0 67 -29 67 -68v-381c0 -39 -29 -69 -68 -69
c-38 0 -67 30 -67 69v381c0 39 29 68 68 68z" />
    <glyph glyph-name="idieresis" unicode="&#xef;" horiz-adv-x="269" 
d="M25 598c-44 0 -81 36 -81 78c0 43 36 78 81 78s81 -34 81 -78c0 -43 -37 -78 -81 -78zM245 598c-44 0 -81 36 -81 78c0 43 36 78 81 78s80 -34 80 -78c0 -43 -36 -78 -80 -78zM134 -12c-38 0 -67 30 -67 69v381c0 39 29 68 68 68c38 0 67 -29 67 -68v-381
c0 -39 -29 -69 -68 -69z" />
    <glyph glyph-name="igrave" unicode="&#xec;" horiz-adv-x="269" 
d="M112 567c-20 5 -36 22 -43 44l-33 115c-4 15 -4 27 -1 39c9 35 44 58 82 48c23 -6 46 -27 50 -54l18 -115c1 -10 2 -21 0 -31c-6 -31 -35 -54 -73 -46zM134 -12c-38 0 -67 30 -67 69v381c0 39 29 68 68 68c38 0 67 -29 67 -68v-381c0 -39 -29 -69 -68 -69z" />
    <glyph glyph-name="ij" unicode="&#x133;" horiz-adv-x="538" 
d="M135 757c45 0 84 -36 84 -82c0 -45 -39 -81 -84 -81c-47 0 -85 36 -85 81c0 46 38 82 85 82zM404 757c45 0 84 -36 84 -82c0 -45 -39 -81 -84 -81c-47 0 -85 36 -85 81c0 46 38 82 85 82zM134 -12c-38 0 -67 30 -67 69v381c0 39 29 68 68 68c38 0 67 -29 67 -68v-381
c0 -39 -29 -69 -68 -69zM286 -192c-23 0 -40 4 -55 9c-25 10 -41 29 -41 55c0 33 24 58 57 58c5 0 8 -1 13 -1c50 0 76 19 76 89v420c0 39 29 68 68 68c38 0 67 -29 67 -68v-444c0 -122 -72 -186 -185 -186z" />
    <glyph glyph-name="imacron" unicode="&#x12b;" horiz-adv-x="269" 
d="M218 728c31 0 53 -23 53 -53s-22 -53 -53 -53h-165c-31 0 -54 23 -54 53s23 53 54 53h165zM134 -12c-38 0 -67 30 -67 69v381c0 39 29 68 68 68c38 0 67 -29 67 -68v-381c0 -39 -29 -69 -68 -69z" />
    <glyph glyph-name="iogonek" unicode="&#x12f;" horiz-adv-x="269" 
d="M135 594c-47 0 -85 36 -85 81c0 46 38 82 85 82c45 0 84 -36 84 -82c0 -45 -39 -81 -84 -81zM176 -93c25 0 41 -18 41 -44c0 -23 -13 -41 -38 -48c-16 -4 -38 -7 -60 -7c-73 0 -120 40 -120 103c0 46 24 79 73 120c-3 8 -5 17 -5 26v381c0 39 29 68 68 68
c38 0 67 -29 67 -68v-381v-7v-5c0 -16 -8 -30 -21 -41c-28 -24 -56 -49 -56 -72c0 -15 12 -26 35 -26c7 0 12 1 16 1z" />
    <glyph glyph-name="itilde" unicode="&#x129;" horiz-adv-x="269" 
d="M205 579c-24 0 -44 8 -68 26l-20 15c-15 13 -24 17 -32 17c-16 0 -23 -8 -28 -28c-6 -23 -24 -37 -50 -37c-32 0 -53 23 -53 58c0 76 46 129 112 129c23 0 43 -8 67 -26l20 -15c16 -13 24 -17 33 -17c15 0 23 8 27 27c6 23 25 38 50 38c33 0 53 -23 53 -58
c0 -77 -45 -129 -111 -129zM134 -12c-38 0 -67 30 -67 69v381c0 39 29 68 68 68c38 0 67 -29 67 -68v-381c0 -39 -29 -69 -68 -69z" />
    <glyph glyph-name="j" unicode="j" horiz-adv-x="269" 
d="M135 757c45 0 84 -36 84 -82c0 -45 -39 -81 -84 -81c-47 0 -85 36 -85 81c0 46 38 82 85 82zM17 -192c-23 0 -40 4 -55 9c-25 10 -41 29 -41 55c0 33 24 58 57 58c5 0 8 -1 13 -1c50 0 76 19 76 89v420c0 39 29 68 68 68c38 0 67 -29 67 -68v-444
c0 -122 -72 -186 -185 -186z" />
    <glyph glyph-name="uni0237" unicode="&#x237;" horiz-adv-x="269" 
d="M17 -192c-23 0 -40 4 -55 9c-25 10 -41 29 -41 55c0 33 24 58 57 58c5 0 8 -1 13 -1c50 0 76 19 76 89v420c0 39 29 68 68 68c38 0 67 -29 67 -68v-444c0 -122 -72 -186 -185 -186z" />
    <glyph glyph-name="jcircumflex" unicode="&#x135;" horiz-adv-x="269" 
d="M281 655c10 -12 17 -22 17 -39c0 -30 -25 -50 -51 -50c-13 0 -25 6 -34 15l-78 82l-79 -82c-9 -9 -21 -15 -34 -15c-26 0 -51 20 -51 50c0 17 7 27 17 39l96 115c16 18 34 23 51 23s34 -5 50 -23zM135 506c38 0 67 -29 67 -68v-444c0 -122 -72 -186 -185 -186
c-23 0 -40 4 -55 9c-25 10 -41 29 -41 55c0 33 24 58 57 58c5 0 8 -1 13 -1c50 0 76 19 76 89v420c0 39 29 68 68 68z" />
    <glyph glyph-name="k" unicode="k" 
d="M135 762c39 0 67 -29 67 -69v-636c0 -40 -29 -69 -67 -69c-39 0 -68 30 -68 69v636c0 39 29 69 68 69zM509 92c11 -14 16 -27 16 -42c0 -35 -27 -62 -61 -62c-21 0 -37 8 -50 25l-169 208c-15 20 -21 34 -21 49c0 17 7 31 24 50l158 165c13 14 30 21 47 21
c35 0 62 -26 62 -60c0 -17 -7 -33 -22 -48l-126 -128z" />
    <glyph glyph-name="kcommaaccent" unicode="&#x137;" 
d="M202 693v-636c0 -40 -29 -69 -67 -69c-39 0 -68 30 -68 69v636c0 39 29 69 68 69s67 -29 67 -69zM509 92c11 -14 16 -27 16 -42c0 -35 -27 -62 -61 -62c-21 0 -37 8 -50 25l-169 208c-15 20 -21 34 -21 49c0 17 7 31 24 50l158 165c13 14 30 21 47 21c35 0 62 -26 62 -60
c0 -17 -7 -33 -22 -48l-126 -128zM282 -40c37 0 67 -30 67 -67c0 -42 -15 -90 -37 -116c-15 -21 -33 -31 -52 -31c-30 0 -58 26 -58 56c0 27 12 45 12 91c0 37 31 67 68 67z" />
    <glyph glyph-name="l" unicode="l" horiz-adv-x="269" 
d="M135 -12c-39 0 -68 30 -68 69v636c0 39 29 69 68 69c38 0 67 -30 67 -69v-636c0 -39 -29 -69 -67 -69z" />
    <glyph glyph-name="lacute" unicode="&#x13a;" horiz-adv-x="269" 
d="M151 809c-49 1 -68 55 -51 88l52 100c15 29 43 36 62 35c53 -1 84 -64 51 -107l-64 -90c-17 -22 -39 -26 -50 -26zM135 -12c-39 0 -68 30 -68 69v636c0 39 29 69 68 69c38 0 67 -30 67 -69v-636c0 -39 -29 -69 -67 -69z" />
    <glyph glyph-name="lcaron" unicode="&#x13e;" horiz-adv-x="433" 
d="M339 535c-34 0 -66 30 -59 73l17 112c4 30 30 60 67 60c42 0 81 -40 63 -93l-32 -111c-6 -16 -21 -41 -56 -41zM135 -12c-39 0 -68 30 -68 69v636c0 39 29 69 68 69c38 0 67 -30 67 -69v-636c0 -39 -29 -69 -67 -69z" />
    <glyph glyph-name="lcommaaccent" unicode="&#x13c;" horiz-adv-x="269" 
d="M135 -12c-39 0 -68 30 -68 69v636c0 39 29 69 68 69c38 0 67 -30 67 -69v-636c0 -39 -29 -69 -67 -69zM111 -254c-30 0 -58 26 -58 56c0 27 12 45 12 91c0 37 31 67 68 67s67 -30 67 -67c0 -42 -15 -90 -37 -116c-15 -21 -33 -31 -52 -31z" />
    <glyph glyph-name="ldot" unicode="&#x140;" horiz-adv-x="411" 
d="M135 -12c-39 0 -68 30 -68 69v636c0 39 29 69 68 69c38 0 67 -30 67 -69v-636c0 -39 -29 -69 -67 -69zM338 227c-54 0 -94 41 -94 93c0 51 40 93 94 93c53 0 92 -42 92 -93c0 -52 -39 -93 -92 -93z" />
    <glyph glyph-name="lslash" unicode="&#x142;" horiz-adv-x="331" 
d="M261 439c31 0 58 -27 57 -58c0 -21 -13 -42 -35 -51l-57 -26v-247c0 -39 -28 -69 -67 -69c-38 0 -67 30 -67 69v197h-1c-7 -4 -15 -6 -26 -6c-31 0 -58 26 -57 57c0 22 14 42 35 52l49 22v314c0 39 28 69 67 69s67 -30 67 -69v-264l9 4c7 4 15 6 26 6z" />
    <glyph glyph-name="m" unicode="m" horiz-adv-x="892" 
d="M643 506c115 0 187 -77 187 -199v-250c0 -40 -29 -69 -67 -69c-39 0 -68 30 -68 69v231c0 59 -34 96 -88 96s-91 -38 -91 -93v-234c0 -40 -29 -69 -67 -69c-39 0 -68 30 -68 69v231c0 59 -35 96 -88 96c-55 0 -91 -38 -91 -96v-231c0 -40 -29 -69 -67 -69
c-39 0 -68 30 -68 69v381c0 39 29 68 67 68c31 0 55 -20 63 -50c34 32 80 50 134 50c64 0 115 -25 147 -71c39 44 99 71 165 71z" />
    <glyph glyph-name="n" unicode="n" horiz-adv-x="585" 
d="M336 506c113 0 186 -78 186 -199v-250c0 -40 -28 -69 -67 -69c-38 0 -67 30 -67 69v232c0 57 -37 96 -92 96s-94 -40 -94 -96v-232c0 -40 -29 -69 -67 -69c-39 0 -68 30 -68 69v381c0 39 29 68 67 68c31 0 56 -21 63 -51c35 32 84 51 139 51z" />
    <glyph glyph-name="nacute" unicode="&#x144;" horiz-adv-x="585" 
d="M299 562c-38 2 -60 32 -58 63c0 10 4 21 8 30l47 107c11 25 38 39 62 39c39 0 67 -32 67 -68c0 -12 -3 -24 -11 -37l-62 -103c-12 -19 -32 -32 -53 -31zM336 506c113 0 186 -78 186 -199v-250c0 -40 -28 -69 -67 -69c-38 0 -67 30 -67 69v232c0 57 -37 96 -92 96
s-94 -40 -94 -96v-232c0 -40 -29 -69 -67 -69c-39 0 -68 30 -68 69v381c0 39 29 68 67 68c31 0 56 -21 63 -51c35 32 84 51 139 51z" />
    <glyph glyph-name="ncaron" unicode="&#x148;" horiz-adv-x="585" 
d="M230 590l-96 115c-10 12 -17 22 -17 39c0 30 25 50 51 50c13 0 25 -6 34 -15l79 -82l78 82c9 9 21 15 34 15c26 0 51 -20 51 -50c0 -17 -7 -27 -17 -39l-96 -115c-16 -18 -33 -23 -50 -23s-35 5 -51 23zM336 506c113 0 186 -78 186 -199v-250c0 -40 -28 -69 -67 -69
c-38 0 -67 30 -67 69v232c0 57 -37 96 -92 96s-94 -40 -94 -96v-232c0 -40 -29 -69 -67 -69c-39 0 -68 30 -68 69v381c0 39 29 68 67 68c31 0 56 -21 63 -51c35 32 84 51 139 51z" />
    <glyph glyph-name="ncommaaccent" unicode="&#x146;" horiz-adv-x="585" 
d="M336 506c113 0 186 -78 186 -199v-250c0 -40 -28 -69 -67 -69c-38 0 -67 30 -67 69v232c0 57 -37 96 -92 96s-94 -40 -94 -96v-232c0 -40 -29 -69 -67 -69c-39 0 -68 30 -68 69v381c0 39 29 68 67 68c31 0 56 -21 63 -51c35 32 84 51 139 51zM295 -40c37 0 67 -30 67 -67
c0 -42 -15 -90 -37 -116c-15 -21 -33 -31 -52 -31c-30 0 -58 26 -58 56c0 27 12 45 12 91c0 37 31 67 68 67z" />
    <glyph glyph-name="eng" unicode="&#x14b;" horiz-adv-x="585" 
d="M336 506c113 0 186 -78 186 -199v-313c0 -116 -77 -186 -184 -186c-24 0 -43 4 -57 9c-25 9 -40 29 -40 55c0 33 25 58 58 58c4 0 7 -1 12 -1c47 0 77 23 77 77v283c0 57 -37 96 -92 96s-94 -40 -94 -96v-232c0 -40 -29 -69 -67 -69c-39 0 -68 30 -68 69v381
c0 39 29 68 67 68c31 0 56 -21 63 -51c35 32 84 51 139 51z" />
    <glyph glyph-name="ntilde" unicode="&#xf1;" horiz-adv-x="585" 
d="M141 574c-32 0 -53 23 -53 58c0 78 49 129 116 129c24 0 50 -9 71 -23l28 -18c18 -12 28 -19 42 -19c15 0 22 9 27 28c6 23 25 37 50 37c33 0 53 -23 53 -58c0 -77 -47 -129 -112 -129c-26 0 -52 8 -75 23l-28 18c-18 13 -26 20 -39 20c-17 0 -25 -10 -30 -28
c-6 -24 -24 -38 -50 -38zM336 506c113 0 186 -78 186 -199v-250c0 -40 -28 -69 -67 -69c-38 0 -67 30 -67 69v232c0 57 -37 96 -92 96s-94 -40 -94 -96v-232c0 -40 -29 -69 -67 -69c-39 0 -68 30 -68 69v381c0 39 29 68 67 68c31 0 56 -21 63 -51c35 32 84 51 139 51z" />
    <glyph glyph-name="o" unicode="o" horiz-adv-x="608" 
d="M304 506c148 0 266 -114 266 -258s-118 -259 -267 -259c-148 0 -264 114 -264 259s116 258 265 258zM304 383c-74 0 -128 -57 -128 -136c0 -78 54 -134 128 -134c73 0 128 57 128 134c0 78 -55 136 -128 136z" />
    <glyph glyph-name="oacute" unicode="&#xf3;" horiz-adv-x="608" 
d="M322 562c-38 2 -60 32 -58 63c0 10 4 21 8 30l47 107c11 25 38 39 62 39c39 0 67 -32 67 -68c0 -12 -3 -24 -11 -37l-62 -103c-12 -19 -32 -32 -53 -31zM304 506c148 0 266 -114 266 -258s-118 -259 -267 -259c-148 0 -264 114 -264 259s116 258 265 258zM304 383
c-74 0 -128 -57 -128 -136c0 -78 54 -134 128 -134c73 0 128 57 128 134c0 78 -55 136 -128 136z" />
    <glyph glyph-name="obreve" unicode="&#x14f;" horiz-adv-x="608" 
d="M304 573c-92 0 -171 68 -171 145c0 31 23 55 52 55c27 0 44 -13 52 -41c8 -35 33 -57 67 -57c33 0 58 22 66 57c8 27 26 41 51 41c30 0 53 -24 53 -55c0 -78 -77 -145 -170 -145zM304 506c148 0 266 -114 266 -258s-118 -259 -267 -259c-148 0 -264 114 -264 259
s116 258 265 258zM304 383c-74 0 -128 -57 -128 -136c0 -78 54 -134 128 -134c73 0 128 57 128 134c0 78 -55 136 -128 136z" />
    <glyph glyph-name="ocircumflex" unicode="&#xf4;" horiz-adv-x="608" 
d="M191 566c-26 0 -51 20 -51 50c0 17 7 27 17 39l96 115c16 18 34 23 51 23s34 -5 50 -23l96 -115c10 -12 17 -22 17 -39c0 -30 -25 -50 -51 -50c-13 0 -25 6 -34 15l-78 82l-79 -82c-9 -9 -21 -15 -34 -15zM304 506c148 0 266 -114 266 -258s-118 -259 -267 -259
c-148 0 -264 114 -264 259s116 258 265 258zM304 113c73 0 128 57 128 134c0 78 -55 136 -128 136c-74 0 -128 -57 -128 -136c0 -78 54 -134 128 -134z" />
    <glyph glyph-name="odieresis" unicode="&#xf6;" horiz-adv-x="608" 
d="M185 754c45 0 81 -34 81 -79c0 -42 -37 -77 -81 -77c-43 0 -81 37 -81 77c0 44 37 79 81 79zM422 754c46 0 81 -34 81 -79c0 -42 -36 -77 -81 -77c-42 0 -80 37 -80 77c0 44 36 79 80 79zM304 506c148 0 266 -114 266 -258s-118 -259 -267 -259c-148 0 -264 114 -264 259
s116 258 265 258zM304 383c-74 0 -128 -57 -128 -136c0 -78 54 -134 128 -134c73 0 128 57 128 134c0 78 -55 136 -128 136z" />
    <glyph glyph-name="ograve" unicode="&#xf2;" horiz-adv-x="608" 
d="M285 562c-21 -1 -41 12 -53 31l-62 103c-8 13 -11 25 -11 37c0 36 28 68 67 68c24 0 51 -14 62 -39l47 -107c4 -9 8 -20 8 -30c2 -31 -20 -61 -58 -63zM304 506c148 0 266 -114 266 -258s-118 -259 -267 -259c-148 0 -264 114 -264 259s116 258 265 258zM304 383
c-74 0 -128 -57 -128 -136c0 -78 54 -134 128 -134c73 0 128 57 128 134c0 78 -55 136 -128 136z" />
    <glyph glyph-name="ohungarumlaut" unicode="&#x151;" horiz-adv-x="608" 
d="M231 562c-38 2 -60 32 -58 63c0 10 4 21 8 30l47 107c11 25 38 39 62 39c39 0 67 -32 67 -68c0 -12 -3 -24 -11 -37l-62 -103c-12 -19 -32 -32 -53 -31zM423 562c-38 2 -60 32 -58 63c0 10 4 21 8 30l47 107c11 25 38 39 62 39c39 0 67 -32 67 -68c0 -12 -3 -24 -11 -37
l-62 -103c-12 -19 -32 -32 -53 -31zM304 506c148 0 266 -114 266 -258s-118 -259 -267 -259c-148 0 -264 114 -264 259s116 258 265 258zM304 383c-74 0 -128 -57 -128 -136c0 -78 54 -134 128 -134c73 0 128 57 128 134c0 78 -55 136 -128 136z" />
    <glyph glyph-name="omacron" unicode="&#x14d;" horiz-adv-x="608" 
d="M407 728c32 0 56 -23 56 -53s-24 -53 -56 -53h-206c-32 0 -56 23 -56 53s24 53 56 53h206zM304 506c148 0 266 -114 266 -258s-118 -259 -267 -259c-148 0 -264 114 -264 259s116 258 265 258zM304 383c-74 0 -128 -57 -128 -136c0 -78 54 -134 128 -134
c73 0 128 57 128 134c0 78 -55 136 -128 136z" />
    <glyph glyph-name="oslash" unicode="&#xf8;" horiz-adv-x="612" 
d="M555 416l-26 -26c27 -41 43 -90 43 -143c0 -143 -118 -259 -267 -259c-52 0 -100 14 -140 39l-28 -28c-14 -15 -27 -21 -45 -21c-31 0 -57 25 -57 57c0 16 7 30 22 44l26 26c-27 41 -42 89 -42 142c0 146 116 259 265 259c52 0 99 -14 140 -38l28 28c13 13 28 20 43 20
c32 0 58 -25 58 -57c0 -16 -6 -29 -20 -43zM306 392c-82 0 -139 -59 -139 -145c0 -23 4 -44 12 -62l192 192c-19 10 -41 15 -65 15zM305 102c81 0 140 61 140 145c0 23 -4 44 -12 62l-193 -192c19 -10 41 -15 65 -15z" />
    <glyph glyph-name="oslashacute" unicode="&#x1ff;" horiz-adv-x="612" 
d="M325 562c-38 2 -60 32 -58 63c0 10 4 21 8 30l47 107c11 25 38 39 62 39c39 0 67 -32 67 -68c0 -12 -3 -24 -11 -37l-62 -103c-12 -19 -32 -32 -53 -31zM555 416l-26 -26c27 -41 43 -90 43 -143c0 -143 -118 -259 -267 -259c-52 0 -100 14 -140 39l-28 -28
c-14 -15 -27 -21 -45 -21c-31 0 -57 25 -57 57c0 16 7 30 22 44l26 26c-27 41 -42 89 -42 142c0 146 116 259 265 259c52 0 99 -14 140 -38l28 28c13 13 28 20 43 20c32 0 58 -25 58 -57c0 -16 -6 -29 -20 -43zM306 392c-82 0 -139 -59 -139 -145c0 -23 4 -44 12 -62
l192 192c-19 10 -41 15 -65 15zM305 102c81 0 140 61 140 145c0 23 -4 44 -12 62l-193 -192c19 -10 41 -15 65 -15z" />
    <glyph glyph-name="otilde" unicode="&#xf5;" horiz-adv-x="608" 
d="M386 579c-26 0 -52 8 -75 23l-28 18c-18 13 -26 20 -39 20c-17 0 -25 -10 -30 -28c-6 -24 -24 -38 -50 -38c-32 0 -53 23 -53 58c0 78 49 129 116 129c24 0 50 -9 71 -23l28 -18c18 -12 28 -19 42 -19c15 0 22 9 27 28c6 23 25 37 50 37c33 0 53 -23 53 -58
c0 -77 -47 -129 -112 -129zM304 506c148 0 266 -114 266 -258s-118 -259 -267 -259c-148 0 -264 114 -264 259s116 258 265 258zM304 383c-74 0 -128 -57 -128 -136c0 -78 54 -134 128 -134c73 0 128 57 128 134c0 78 -55 136 -128 136z" />
    <glyph glyph-name="oe" unicode="&#x153;" horiz-adv-x="942" 
d="M669 506c135 0 235 -98 235 -232v-3c0 -42 -29 -69 -73 -69h-279c15 -63 63 -98 136 -98c37 0 74 10 102 29c12 7 20 9 29 9c31 0 55 -23 55 -54c0 -22 -10 -38 -34 -54c-44 -30 -98 -46 -156 -46c-82 0 -152 34 -197 91c-42 -57 -108 -91 -186 -91
c-146 0 -262 114 -262 259s116 259 262 259c78 0 143 -34 185 -90c43 56 108 90 183 90zM667 397c-58 0 -101 -38 -115 -100h221c-2 59 -44 100 -106 100zM303 112c71 0 122 56 122 135c0 80 -51 136 -122 136c-74 0 -127 -58 -127 -136s53 -135 127 -135z" />
    <glyph glyph-name="p" unicode="p" horiz-adv-x="629" 
d="M350 506c139 0 240 -108 240 -258s-101 -260 -240 -260c-62 0 -114 22 -148 60v-172c0 -39 -29 -68 -67 -68c-39 0 -68 29 -68 68v564c0 38 29 67 67 67c36 0 63 -27 65 -64c34 40 87 63 151 63zM325 111c74 0 128 57 128 136c0 80 -53 137 -128 137s-125 -55 -125 -136
s51 -137 125 -137z" />
    <glyph glyph-name="thorn" unicode="&#xfe;" horiz-adv-x="629" 
d="M350 506c139 0 240 -108 240 -258s-101 -260 -240 -260c-62 0 -114 22 -148 60v-172c0 -39 -29 -68 -67 -68c-39 0 -68 29 -68 68v817c0 39 29 69 68 69c38 0 67 -29 67 -69v-246c34 38 86 59 148 59zM325 111c74 0 128 57 128 136c0 80 -53 137 -128 137
s-125 -55 -125 -136s51 -137 125 -137z" />
    <glyph glyph-name="q" unicode="q" horiz-adv-x="629" 
d="M496 506c38 0 66 -29 66 -68v-562c0 -39 -29 -68 -67 -68c-39 0 -68 29 -68 68v172c-34 -38 -86 -60 -148 -60c-139 0 -240 110 -240 260s101 258 240 258c64 0 117 -23 151 -63c3 36 31 63 66 63zM304 111c74 0 125 56 125 137s-50 136 -125 136
c-74 0 -128 -57 -128 -137c0 -79 54 -136 128 -136z" />
    <glyph glyph-name="r" unicode="r" horiz-adv-x="388" 
d="M320 501c36 0 61 -24 61 -61c0 -36 -25 -61 -63 -65c-72 -5 -116 -52 -116 -128v-190c0 -40 -29 -69 -67 -69c-39 0 -68 30 -68 69v381c0 39 29 68 67 68c35 0 62 -26 65 -61c31 35 74 56 121 56z" />
    <glyph glyph-name="racute" unicode="&#x155;" horiz-adv-x="388" 
d="M209 562c-38 2 -60 32 -58 63c0 10 4 21 8 30l47 107c11 25 38 39 62 39c39 0 67 -32 67 -68c0 -12 -3 -24 -11 -37l-62 -103c-12 -19 -32 -32 -53 -31zM320 501c36 0 61 -24 61 -61c0 -36 -25 -61 -63 -65c-72 -5 -116 -52 -116 -128v-190c0 -40 -29 -69 -67 -69
c-39 0 -68 30 -68 69v381c0 39 29 68 67 68c35 0 62 -26 65 -61c31 35 74 56 121 56z" />
    <glyph glyph-name="rcaron" unicode="&#x159;" horiz-adv-x="388" 
d="M191 567c-17 0 -35 5 -51 23l-96 115c-10 12 -17 22 -17 39c0 30 25 50 51 50c13 0 25 -6 34 -15l79 -82l78 82c9 9 21 15 34 15c26 0 51 -20 51 -50c0 -17 -7 -27 -17 -39l-96 -115c-16 -18 -33 -23 -50 -23zM320 501c36 0 61 -24 61 -61c0 -36 -25 -61 -63 -65
c-72 -5 -116 -52 -116 -128v-190c0 -40 -29 -69 -67 -69c-39 0 -68 30 -68 69v381c0 39 29 68 67 68c35 0 62 -26 65 -61c31 35 74 56 121 56z" />
    <glyph glyph-name="rcommaaccent" unicode="&#x157;" horiz-adv-x="388" 
d="M320 501c36 0 61 -24 61 -61c0 -36 -25 -61 -63 -65c-72 -5 -116 -52 -116 -128v-190c0 -40 -29 -69 -67 -69c-39 0 -68 30 -68 69v381c0 39 29 68 67 68c35 0 62 -26 65 -61c31 35 74 56 121 56zM132 -40c37 0 67 -30 67 -67c0 -42 -15 -90 -37 -116
c-15 -21 -33 -31 -52 -31c-30 0 -58 26 -58 56c0 27 12 45 12 91c0 37 31 67 68 67z" />
    <glyph glyph-name="s" unicode="s" horiz-adv-x="455" 
d="M227 -12c-74 0 -138 28 -182 71c-13 11 -19 26 -19 42c0 31 25 57 56 57c13 0 25 -4 39 -15c29 -25 65 -44 108 -44c34 0 63 13 63 41c0 23 -21 32 -51 45l-53 22c-84 34 -135 73 -135 151c0 95 77 149 182 149c59 0 116 -19 156 -53c16 -12 24 -28 24 -46
c0 -31 -25 -56 -55 -56c-12 0 -24 6 -36 14c-26 18 -57 30 -90 30c-32 0 -53 -11 -53 -35c0 -20 16 -30 52 -44l48 -20c89 -36 139 -74 139 -151c0 -102 -85 -158 -193 -158z" />
    <glyph glyph-name="sacute" unicode="&#x15b;" horiz-adv-x="455" 
d="M250 562c-38 2 -60 32 -58 63c0 10 4 21 8 30l47 107c11 25 38 39 62 39c39 0 67 -32 67 -68c0 -12 -3 -24 -11 -37l-62 -103c-12 -19 -32 -32 -53 -31zM227 -12c-74 0 -138 28 -182 71c-13 11 -19 26 -19 42c0 31 25 57 56 57c13 0 25 -4 39 -15c29 -25 65 -44 108 -44
c34 0 63 13 63 41c0 23 -21 32 -51 45l-53 22c-84 34 -135 73 -135 151c0 95 77 149 182 149c59 0 116 -19 156 -53c16 -12 24 -28 24 -46c0 -31 -25 -56 -55 -56c-12 0 -24 6 -36 14c-26 18 -57 30 -90 30c-32 0 -53 -11 -53 -35c0 -20 16 -30 52 -44l48 -20
c89 -36 139 -74 139 -151c0 -102 -85 -158 -193 -158z" />
    <glyph glyph-name="scaron" unicode="&#x161;" horiz-adv-x="455" 
d="M181 590l-96 115c-10 12 -17 22 -17 39c0 30 25 50 51 50c13 0 25 -6 34 -15l79 -82l78 82c9 9 21 15 34 15c26 0 51 -20 51 -50c0 -17 -7 -27 -17 -39l-96 -115c-16 -18 -33 -23 -50 -23s-35 5 -51 23zM281 297c89 -36 139 -74 139 -151c0 -102 -85 -158 -193 -158
c-74 0 -138 28 -182 71c-13 11 -19 26 -19 42c0 31 25 57 56 57c13 0 25 -4 39 -15c29 -25 65 -44 108 -44c34 0 63 13 63 41c0 23 -21 32 -51 45l-53 22c-84 34 -135 73 -135 151c0 95 77 149 182 149c59 0 116 -19 156 -53c16 -12 24 -28 24 -46c0 -31 -25 -56 -55 -56
c-12 0 -24 6 -36 14c-26 18 -57 30 -90 30c-32 0 -53 -11 -53 -35c0 -20 16 -30 52 -44z" />
    <glyph glyph-name="scedilla" unicode="&#x15f;" horiz-adv-x="455" 
d="M420 146c0 -71 -41 -119 -102 -143c12 -21 19 -45 19 -66c0 -79 -61 -129 -154 -129c-29 0 -49 3 -65 9c-21 9 -32 23 -32 43c0 27 21 48 48 48c10 0 20 -1 32 -1c33 0 58 12 58 40c0 17 -5 30 -12 41c-68 4 -126 31 -167 71c-13 11 -19 26 -19 42c0 31 25 57 56 57
c13 0 25 -4 39 -15c29 -25 65 -44 108 -44c34 0 63 13 63 41c0 23 -21 32 -51 45l-53 22c-84 34 -135 73 -135 151c0 95 77 149 182 149c59 0 116 -19 156 -53c16 -12 24 -28 24 -46c0 -31 -25 -56 -55 -56c-12 0 -24 6 -36 14c-26 18 -57 30 -90 30c-32 0 -53 -11 -53 -35
c0 -20 16 -30 52 -44l48 -20c89 -36 139 -74 139 -151z" />
    <glyph glyph-name="scircumflex" unicode="&#x15d;" horiz-adv-x="455" 
d="M119 566c-26 0 -51 20 -51 50c0 17 7 27 17 39l96 115c16 18 34 23 51 23s34 -5 50 -23l96 -115c10 -12 17 -22 17 -39c0 -30 -25 -50 -51 -50c-13 0 -25 6 -34 15l-78 82l-79 -82c-9 -9 -21 -15 -34 -15zM281 297c89 -36 139 -74 139 -151c0 -102 -85 -158 -193 -158
c-74 0 -138 28 -182 71c-13 11 -19 26 -19 42c0 31 25 57 56 57c13 0 25 -4 39 -15c29 -25 65 -44 108 -44c34 0 63 13 63 41c0 23 -21 32 -51 45l-53 22c-84 34 -135 73 -135 151c0 95 77 149 182 149c59 0 116 -19 156 -53c16 -12 24 -28 24 -46c0 -31 -25 -56 -55 -56
c-12 0 -24 6 -36 14c-26 18 -57 30 -90 30c-32 0 -53 -11 -53 -35c0 -20 16 -30 52 -44z" />
    <glyph glyph-name="scommaaccent" unicode="&#x219;" horiz-adv-x="455" 
d="M227 -12c-74 0 -138 28 -182 71c-13 11 -19 26 -19 42c0 31 25 57 56 57c13 0 25 -4 39 -15c29 -25 65 -44 108 -44c34 0 63 13 63 41c0 23 -21 32 -51 45l-53 22c-84 34 -135 73 -135 151c0 95 77 149 182 149c59 0 116 -19 156 -53c16 -12 24 -28 24 -46
c0 -31 -25 -56 -55 -56c-12 0 -24 6 -36 14c-26 18 -57 30 -90 30c-32 0 -53 -11 -53 -35c0 -20 16 -30 52 -44l48 -20c89 -36 139 -74 139 -151c0 -102 -85 -158 -193 -158zM211 -254c-30 0 -58 26 -58 56c0 27 12 45 12 91c0 37 31 67 68 67s67 -30 67 -67
c0 -42 -15 -90 -37 -116c-15 -21 -33 -31 -52 -31z" />
    <glyph glyph-name="germandbls" unicode="&#xdf;" horiz-adv-x="650" 
d="M437 -12c-58 0 -112 16 -151 44c-17 11 -28 29 -28 48c0 31 26 56 57 56c8 0 17 -3 32 -10c32 -16 62 -24 90 -24c37 0 57 14 57 42c0 23 -11 32 -78 72c-74 45 -102 78 -102 122c0 19 7 46 18 73l34 87c10 24 14 50 14 66c0 48 -29 76 -78 76c-64 0 -102 -46 -102 -124
v-459c0 -39 -28 -69 -66 -69s-67 30 -67 69v465c0 151 90 240 240 240c127 0 209 -64 209 -162c0 -30 -6 -56 -17 -83l-39 -100c-8 -19 -13 -34 -13 -48c0 -26 10 -37 80 -80c72 -44 98 -84 98 -143c0 -96 -74 -158 -188 -158z" />
    <glyph glyph-name="uni0259" unicode="&#x259;" horiz-adv-x="569" 
d="M259 507c156 0 271 -111 271 -259c0 -147 -111 -259 -257 -259c-135 0 -235 98 -235 232v3c0 42 30 69 74 69h282c-16 62 -66 98 -139 98c-36 0 -73 -10 -103 -29c-10 -6 -19 -9 -29 -9c-31 0 -55 23 -55 54c0 22 10 38 34 54c45 30 99 46 157 46zM276 98
c59 0 103 39 118 100h-225c2 -59 44 -100 107 -100z" />
    <glyph glyph-name="t" unicode="t" horiz-adv-x="416" 
d="M337 110c36 0 59 -22 59 -55c0 -25 -13 -44 -34 -54c-19 -8 -41 -13 -70 -13c-129 0 -198 65 -198 186v207h-28c-33 0 -58 24 -58 57s25 57 58 57h28v68c0 39 28 68 68 68c38 0 67 -29 67 -68v-68h91c33 0 57 -24 57 -57s-24 -57 -57 -57h-91v-195c0 -55 26 -77 89 -77
c8 0 14 1 19 1z" />
    <glyph glyph-name="tbar" unicode="&#x167;" horiz-adv-x="431" 
d="M347 110c36 0 59 -22 59 -55c0 -25 -13 -45 -34 -54c-19 -9 -43 -13 -76 -13c-129 0 -198 65 -198 186v23h-26c-31 0 -54 23 -54 54s23 54 54 54h26v81h-26c-31 0 -54 23 -54 54s23 54 54 54h26v69c0 39 28 68 68 68c38 0 67 -29 67 -68v-69h100c31 0 54 -23 54 -54
s-23 -54 -54 -54h-100v-81h100c31 0 54 -23 54 -54s-23 -54 -54 -54h-100v-11c0 -55 26 -77 89 -77c8 0 20 1 25 1z" />
    <glyph glyph-name="tcaron" unicode="&#x165;" horiz-adv-x="416" 
d="M394 780c42 0 81 -40 63 -93l-32 -111c-6 -16 -21 -41 -56 -41c-34 0 -66 30 -59 73l17 112c4 30 30 60 67 60zM337 110c36 0 59 -22 59 -55c0 -25 -13 -44 -34 -54c-19 -8 -41 -13 -70 -13c-129 0 -198 65 -198 186v207h-28c-33 0 -58 24 -58 57s25 57 58 57h28v68
c0 39 28 68 68 68c38 0 67 -29 67 -68v-68h91c33 0 57 -24 57 -57s-24 -57 -57 -57h-91v-195c0 -55 26 -77 89 -77c8 0 14 1 19 1z" />
    <glyph glyph-name="uni0163" unicode="&#x163;" horiz-adv-x="416" 
d="M337 110c36 0 59 -22 59 -55c0 -25 -13 -44 -34 -54c-12 -5 -26 -9 -42 -11c7 -18 12 -36 12 -53c0 -79 -61 -129 -154 -129c-29 0 -49 3 -65 9c-21 9 -32 23 -32 43c0 27 21 48 48 48c10 0 20 -1 32 -1c33 0 58 12 58 40c0 23 -10 40 -21 54l-2 3
c-67 26 -102 84 -102 170v207h-28c-33 0 -58 24 -58 57s25 57 58 57h28v68c0 39 28 68 68 68c38 0 67 -29 67 -68v-68h91c33 0 57 -24 57 -57s-24 -57 -57 -57h-91v-195c0 -55 26 -77 89 -77c8 0 14 1 19 1z" />
    <glyph glyph-name="u" unicode="u" horiz-adv-x="580" 
d="M291 -12c-135 0 -229 94 -229 230v220c0 39 29 68 68 68c38 0 67 -29 67 -68v-231c0 -55 39 -95 94 -95c54 0 92 40 92 95v231c0 39 28 68 68 68c38 0 67 -29 67 -68v-220c0 -136 -94 -230 -227 -230z" />
    <glyph glyph-name="uacute" unicode="&#xfa;" horiz-adv-x="580" 
d="M308 562c-38 2 -60 32 -58 63c0 10 4 21 8 30l47 107c11 25 38 39 62 39c39 0 67 -32 67 -68c0 -12 -3 -24 -11 -37l-62 -103c-12 -19 -32 -32 -53 -31zM291 -12c-135 0 -229 94 -229 230v220c0 39 29 68 68 68c38 0 67 -29 67 -68v-231c0 -55 39 -95 94 -95
c54 0 92 40 92 95v231c0 39 28 68 68 68c38 0 67 -29 67 -68v-220c0 -136 -94 -230 -227 -230z" />
    <glyph glyph-name="ubreve" unicode="&#x16d;" horiz-adv-x="580" 
d="M290 573c-92 0 -171 68 -171 145c0 31 23 55 52 55c27 0 44 -13 52 -41c8 -35 33 -57 67 -57c33 0 58 22 66 57c8 27 26 41 51 41c30 0 53 -24 53 -55c0 -78 -77 -145 -170 -145zM291 -12c-135 0 -229 94 -229 230v220c0 39 29 68 68 68c38 0 67 -29 67 -68v-231
c0 -55 39 -95 94 -95c54 0 92 40 92 95v231c0 39 28 68 68 68c38 0 67 -29 67 -68v-220c0 -136 -94 -230 -227 -230z" />
    <glyph glyph-name="uni01D4" unicode="&#x1d4;" horiz-adv-x="580" 
d="M239 590l-96 115c-10 12 -17 22 -17 39c0 30 25 50 51 50c13 0 25 -6 34 -15l79 -82l78 82c9 9 21 15 34 15c26 0 51 -20 51 -50c0 -17 -7 -27 -17 -39l-96 -115c-16 -18 -33 -23 -50 -23s-35 5 -51 23zM451 506c38 0 67 -29 67 -68v-220c0 -136 -94 -230 -227 -230
c-135 0 -229 94 -229 230v220c0 39 29 68 68 68c38 0 67 -29 67 -68v-231c0 -55 39 -95 94 -95c54 0 92 40 92 95v231c0 39 28 68 68 68z" />
    <glyph glyph-name="ucircumflex" unicode="&#xfb;" horiz-adv-x="580" 
d="M177 566c-26 0 -51 20 -51 50c0 17 7 27 17 39l96 115c16 18 34 23 51 23s34 -5 50 -23l96 -115c10 -12 17 -22 17 -39c0 -30 -25 -50 -51 -50c-13 0 -25 6 -34 15l-78 82l-79 -82c-9 -9 -21 -15 -34 -15zM451 506c38 0 67 -29 67 -68v-220c0 -136 -94 -230 -227 -230
c-135 0 -229 94 -229 230v220c0 39 29 68 68 68c38 0 67 -29 67 -68v-231c0 -55 39 -95 94 -95c54 0 92 40 92 95v231c0 39 28 68 68 68z" />
    <glyph glyph-name="udieresis" unicode="&#xfc;" horiz-adv-x="580" 
d="M171 754c45 0 81 -34 81 -79c0 -42 -37 -77 -81 -77c-43 0 -81 37 -81 77c0 44 37 79 81 79zM408 754c46 0 81 -34 81 -79c0 -42 -36 -77 -81 -77c-42 0 -80 37 -80 77c0 44 36 79 80 79zM291 -12c-135 0 -229 94 -229 230v220c0 39 29 68 68 68c38 0 67 -29 67 -68v-231
c0 -55 39 -95 94 -95c54 0 92 40 92 95v231c0 39 28 68 68 68c38 0 67 -29 67 -68v-220c0 -136 -94 -230 -227 -230z" />
    <glyph glyph-name="ugrave" unicode="&#xf9;" horiz-adv-x="580" 
d="M271 562c-21 -1 -41 12 -53 31l-62 103c-8 13 -11 25 -11 37c0 36 28 68 67 68c24 0 51 -14 62 -39l47 -107c4 -9 8 -20 8 -30c2 -31 -20 -61 -58 -63zM291 -12c-135 0 -229 94 -229 230v220c0 39 29 68 68 68c38 0 67 -29 67 -68v-231c0 -55 39 -95 94 -95
c54 0 92 40 92 95v231c0 39 28 68 68 68c38 0 67 -29 67 -68v-220c0 -136 -94 -230 -227 -230z" />
    <glyph glyph-name="uhungarumlaut" unicode="&#x171;" horiz-adv-x="580" 
d="M217 562c-38 2 -60 32 -58 63c0 10 4 21 8 30l47 107c11 25 38 39 62 39c39 0 67 -32 67 -68c0 -12 -3 -24 -11 -37l-62 -103c-12 -19 -32 -32 -53 -31zM409 562c-38 2 -60 32 -58 63c0 10 4 21 8 30l47 107c11 25 38 39 62 39c39 0 67 -32 67 -68c0 -12 -3 -24 -11 -37
l-62 -103c-12 -19 -32 -32 -53 -31zM291 -12c-135 0 -229 94 -229 230v220c0 39 29 68 68 68c38 0 67 -29 67 -68v-231c0 -55 39 -95 94 -95c54 0 92 40 92 95v231c0 39 28 68 68 68c38 0 67 -29 67 -68v-220c0 -136 -94 -230 -227 -230z" />
    <glyph glyph-name="umacron" unicode="&#x16b;" horiz-adv-x="580" 
d="M393 728c32 0 56 -23 56 -53s-24 -53 -56 -53h-206c-32 0 -56 23 -56 53s24 53 56 53h206zM291 -12c-135 0 -229 94 -229 230v220c0 39 29 68 68 68c38 0 67 -29 67 -68v-231c0 -55 39 -95 94 -95c54 0 92 40 92 95v231c0 39 28 68 68 68c38 0 67 -29 67 -68v-220
c0 -136 -94 -230 -227 -230z" />
    <glyph glyph-name="uni021B" unicode="&#x21b;" horiz-adv-x="416" 
d="M337 110c36 0 59 -22 59 -55c0 -25 -13 -44 -34 -54c-19 -8 -41 -13 -70 -13c-129 0 -198 65 -198 186v207h-28c-33 0 -58 24 -58 57s25 57 58 57h28v68c0 39 28 68 68 68c38 0 67 -29 67 -68v-68h91c33 0 57 -24 57 -57s-24 -57 -57 -57h-91v-195c0 -55 26 -77 89 -77
c8 0 14 1 19 1zM228 -40c37 0 67 -30 67 -67c0 -42 -15 -90 -37 -116c-15 -21 -33 -31 -52 -31c-30 0 -58 26 -58 56c0 27 12 45 12 91c0 37 31 67 68 67z" />
    <glyph glyph-name="uogonek" unicode="&#x173;" horiz-adv-x="580" 
d="M451 506c38 0 67 -29 67 -68v-220c0 -78 -31 -141 -81 -182l-51 -49c-27 -25 -35 -40 -35 -55c0 -17 14 -27 36 -27c5 0 12 2 15 2c25 0 42 -18 42 -44c0 -23 -14 -40 -39 -48c-16 -4 -37 -7 -59 -7c-73 0 -121 40 -121 100c0 29 12 54 37 82c-119 12 -200 102 -200 228
v220c0 39 29 68 68 68c38 0 67 -29 67 -68v-231c0 -55 39 -95 94 -95c54 0 92 40 92 95v231c0 39 28 68 68 68z" />
    <glyph glyph-name="uring" unicode="&#x16f;" horiz-adv-x="580" 
d="M289 795c73 0 127 -52 127 -122s-54 -123 -127 -123c-72 0 -126 53 -126 123c0 69 54 122 126 122zM290 714c-23 0 -41 -17 -41 -41s17 -41 41 -41c23 0 41 18 41 41c0 24 -18 41 -41 41zM291 -12c-135 0 -229 94 -229 230v220c0 39 29 68 68 68c38 0 67 -29 67 -68v-231
c0 -55 39 -95 94 -95c54 0 92 40 92 95v231c0 39 28 68 68 68c38 0 67 -29 67 -68v-220c0 -136 -94 -230 -227 -230z" />
    <glyph glyph-name="utilde" unicode="&#x169;" horiz-adv-x="580" 
d="M372 579c-26 0 -52 8 -75 23l-28 18c-18 13 -26 20 -39 20c-17 0 -25 -10 -30 -28c-6 -24 -24 -38 -50 -38c-32 0 -53 23 -53 58c0 78 49 129 116 129c24 0 50 -9 71 -23l28 -18c18 -12 28 -19 42 -19c15 0 22 9 27 28c6 23 25 37 50 37c33 0 53 -23 53 -58
c0 -77 -47 -129 -112 -129zM291 -12c-135 0 -229 94 -229 230v220c0 39 29 68 68 68c38 0 67 -29 67 -68v-231c0 -55 39 -95 94 -95c54 0 92 40 92 95v231c0 39 28 68 68 68c38 0 67 -29 67 -68v-220c0 -136 -94 -230 -227 -230z" />
    <glyph glyph-name="v" unicode="v" horiz-adv-x="559" 
d="M473 506c35 0 65 -30 65 -65c0 -11 -3 -21 -10 -36l-186 -375c-13 -27 -36 -42 -62 -42c-27 0 -49 15 -62 42l-186 375c-8 15 -11 25 -11 36c0 35 30 65 66 65c26 0 46 -12 59 -38l134 -276l133 276c13 26 33 38 60 38z" />
    <glyph glyph-name="w" unicode="w" horiz-adv-x="856" 
d="M773 506c36 0 65 -29 65 -65c0 -11 -2 -22 -7 -33l-172 -378c-13 -27 -35 -42 -61 -42c-27 0 -49 15 -61 42l-109 251l-109 -251c-13 -27 -34 -42 -61 -42c-26 0 -48 15 -61 42l-172 378c-5 11 -7 22 -7 33c0 36 29 65 65 65c26 0 48 -14 59 -37l120 -263l101 250
c14 33 36 50 65 50s51 -17 64 -50l102 -251l120 264c11 23 33 37 59 37z" />
    <glyph glyph-name="wacute" unicode="&#x1e83;" horiz-adv-x="856" 
d="M446 562c-38 2 -60 32 -58 63c0 10 4 21 8 30l47 107c11 25 38 39 62 39c39 0 67 -32 67 -68c0 -12 -3 -24 -11 -37l-62 -103c-12 -19 -32 -32 -53 -31zM773 506c36 0 65 -29 65 -65c0 -11 -2 -22 -7 -33l-172 -378c-13 -27 -35 -42 -61 -42c-27 0 -49 15 -61 42
l-109 251l-109 -251c-13 -27 -34 -42 -61 -42c-26 0 -48 15 -61 42l-172 378c-5 11 -7 22 -7 33c0 36 29 65 65 65c26 0 48 -14 59 -37l120 -263l101 250c14 33 36 50 65 50s51 -17 64 -50l102 -251l120 264c11 23 33 37 59 37z" />
    <glyph glyph-name="wcircumflex" unicode="&#x175;" horiz-adv-x="856" 
d="M315 566c-26 0 -51 20 -51 50c0 17 7 27 17 39l96 115c16 18 34 23 51 23s34 -5 50 -23l96 -115c10 -12 17 -22 17 -39c0 -30 -25 -50 -51 -50c-13 0 -25 6 -34 15l-78 82l-79 -82c-9 -9 -21 -15 -34 -15zM773 506c36 0 65 -29 65 -65c0 -11 -2 -22 -7 -33l-172 -378
c-13 -27 -35 -42 -61 -42c-27 0 -49 15 -61 42l-109 251l-109 -251c-13 -27 -34 -42 -61 -42c-26 0 -48 15 -61 42l-172 378c-5 11 -7 22 -7 33c0 36 29 65 65 65c26 0 48 -14 59 -37l120 -263l101 250c14 33 36 50 65 50s51 -17 64 -50l102 -251l120 264c11 23 33 37 59 37
z" />
    <glyph glyph-name="wdieresis" unicode="&#x1e85;" horiz-adv-x="856" 
d="M309 598c-43 0 -81 37 -81 77c0 44 37 79 81 79c45 0 81 -34 81 -79c0 -42 -37 -77 -81 -77zM546 598c-42 0 -80 37 -80 77c0 44 36 79 80 79c46 0 81 -34 81 -79c0 -42 -36 -77 -81 -77zM773 506c36 0 65 -29 65 -65c0 -11 -2 -22 -7 -33l-172 -378
c-13 -27 -35 -42 -61 -42c-27 0 -49 15 -61 42l-109 251l-109 -251c-13 -27 -34 -42 -61 -42c-26 0 -48 15 -61 42l-172 378c-5 11 -7 22 -7 33c0 36 29 65 65 65c26 0 48 -14 59 -37l120 -263l101 250c14 33 36 50 65 50s51 -17 64 -50l102 -251l120 264c11 23 33 37 59 37
z" />
    <glyph glyph-name="wgrave" unicode="&#x1e81;" horiz-adv-x="856" 
d="M356 593l-62 103c-8 13 -11 25 -11 37c0 36 28 68 67 68c24 0 51 -14 62 -39l47 -107c4 -9 8 -20 8 -30c2 -31 -20 -61 -58 -63c-21 -1 -41 12 -53 31zM773 506c36 0 65 -29 65 -65c0 -11 -2 -22 -7 -33l-172 -378c-13 -27 -35 -42 -61 -42c-27 0 -49 15 -61 42l-109 251
l-109 -251c-13 -27 -34 -42 -61 -42c-26 0 -48 15 -61 42l-172 378c-5 11 -7 22 -7 33c0 36 29 65 65 65c26 0 48 -14 59 -37l120 -263l101 250c14 33 36 50 65 50s51 -17 64 -50l102 -251l120 264c11 23 33 37 59 37z" />
    <glyph glyph-name="x" unicode="x" horiz-adv-x="531" 
d="M471 103c14 -18 20 -34 20 -50c0 -36 -28 -65 -65 -65c-22 0 -40 11 -56 30l-105 134l-105 -134c-15 -19 -34 -30 -55 -30c-37 0 -66 29 -66 65c0 16 7 32 21 50l120 149l-108 139c-16 22 -22 35 -22 50c0 36 29 65 66 65c21 0 40 -10 54 -29l96 -124l98 124
c16 20 34 29 55 29c36 0 65 -29 65 -65c0 -15 -6 -31 -22 -50l-110 -138z" />
    <glyph glyph-name="y" unicode="y" horiz-adv-x="559" 
d="M473 506c35 0 65 -30 65 -65c0 -10 -2 -20 -8 -31l-218 -447c-53 -109 -113 -155 -203 -155c-22 0 -42 4 -57 11c-21 9 -34 30 -34 53c0 33 27 58 61 58c5 0 9 -1 12 -1c43 0 72 18 94 63l18 40l-171 377c-6 12 -9 22 -9 32c0 35 30 65 66 65c26 0 49 -14 59 -38
l131 -293l134 293c10 23 33 38 60 38z" />
    <glyph glyph-name="yacute" unicode="&#xfd;" horiz-adv-x="559" 
d="M296 562c-38 2 -60 32 -58 63c0 10 4 21 8 30l47 107c11 25 38 39 62 39c39 0 67 -32 67 -68c0 -12 -3 -24 -11 -37l-62 -103c-12 -19 -32 -32 -53 -31zM473 506c35 0 65 -30 65 -65c0 -10 -2 -20 -8 -31l-218 -447c-53 -109 -113 -155 -203 -155c-22 0 -42 4 -57 11
c-21 9 -34 30 -34 53c0 33 27 58 61 58c5 0 9 -1 12 -1c43 0 72 18 94 63l18 40l-171 377c-6 12 -9 22 -9 32c0 35 30 65 66 65c26 0 49 -14 59 -38l131 -293l134 293c10 23 33 38 60 38z" />
    <glyph glyph-name="ycircumflex" unicode="&#x177;" horiz-adv-x="559" 
d="M165 566c-26 0 -51 20 -51 50c0 17 7 27 17 39l96 115c16 18 34 23 51 23s34 -5 50 -23l96 -115c10 -12 17 -22 17 -39c0 -30 -25 -50 -51 -50c-13 0 -25 6 -34 15l-78 82l-79 -82c-9 -9 -21 -15 -34 -15zM473 506c35 0 65 -30 65 -65c0 -10 -2 -20 -8 -31l-218 -447
c-53 -109 -113 -155 -203 -155c-22 0 -42 4 -57 11c-21 9 -34 30 -34 53c0 33 27 58 61 58c5 0 9 -1 12 -1c43 0 72 18 94 63l18 40l-171 377c-6 12 -9 22 -9 32c0 35 30 65 66 65c26 0 49 -14 59 -38l131 -293l134 293c10 23 33 38 60 38z" />
    <glyph glyph-name="ydieresis" unicode="&#xff;" horiz-adv-x="559" 
d="M159 598c-43 0 -81 37 -81 77c0 44 37 79 81 79c45 0 81 -34 81 -79c0 -42 -37 -77 -81 -77zM396 598c-42 0 -80 37 -80 77c0 44 36 79 80 79c46 0 81 -34 81 -79c0 -42 -36 -77 -81 -77zM473 506c35 0 65 -30 65 -65c0 -10 -2 -20 -8 -31l-218 -447
c-53 -109 -113 -155 -203 -155c-22 0 -42 4 -57 11c-21 9 -34 30 -34 53c0 33 27 58 61 58c5 0 9 -1 12 -1c43 0 72 18 94 63l18 40l-171 377c-6 12 -9 22 -9 32c0 35 30 65 66 65c26 0 49 -14 59 -38l131 -293l134 293c10 23 33 38 60 38z" />
    <glyph glyph-name="ygrave" unicode="&#x1ef3;" horiz-adv-x="559" 
d="M206 593l-62 103c-8 13 -11 25 -11 37c0 36 28 68 67 68c24 0 51 -14 62 -39l47 -107c4 -9 8 -20 8 -30c2 -31 -20 -61 -58 -63c-21 -1 -41 12 -53 31zM473 506c35 0 65 -30 65 -65c0 -10 -2 -20 -8 -31l-218 -447c-53 -109 -113 -155 -203 -155c-22 0 -42 4 -57 11
c-21 9 -34 30 -34 53c0 33 27 58 61 58c5 0 9 -1 12 -1c43 0 72 18 94 63l18 40l-171 377c-6 12 -9 22 -9 32c0 35 30 65 66 65c26 0 49 -14 59 -38l131 -293l134 293c10 23 33 38 60 38z" />
    <glyph glyph-name="z" unicode="z" horiz-adv-x="468" 
d="M402 114c33 0 58 -24 58 -57c0 -32 -25 -57 -58 -57h-326c-32 0 -57 25 -57 57c0 17 5 29 23 49l228 275h-180c-33 0 -58 24 -58 57s25 57 58 57h303c33 0 58 -24 58 -56c0 -19 -7 -32 -19 -46l-230 -279h200z" />
    <glyph glyph-name="zacute" unicode="&#x17a;" horiz-adv-x="468" 
d="M256 562c-38 2 -60 32 -58 63c0 10 4 21 8 30l47 107c11 25 38 39 62 39c39 0 67 -32 67 -68c0 -12 -3 -24 -11 -37l-62 -103c-12 -19 -32 -32 -53 -31zM402 114c33 0 58 -24 58 -57c0 -32 -25 -57 -58 -57h-326c-32 0 -57 25 -57 57c0 17 5 29 23 49l228 275h-180
c-33 0 -58 24 -58 57s25 57 58 57h303c33 0 58 -24 58 -56c0 -19 -7 -32 -19 -46l-230 -279h200z" />
    <glyph glyph-name="zcaron" unicode="&#x17e;" horiz-adv-x="468" 
d="M187 590l-96 115c-10 12 -17 22 -17 39c0 30 25 50 51 50c13 0 25 -6 34 -15l79 -82l78 82c9 9 21 15 34 15c26 0 51 -20 51 -50c0 -17 -7 -27 -17 -39l-96 -115c-16 -18 -33 -23 -50 -23s-35 5 -51 23zM402 114c33 0 58 -24 58 -57c0 -32 -25 -57 -58 -57h-326
c-32 0 -57 25 -57 57c0 17 5 29 23 49l228 275h-180c-33 0 -58 24 -58 57s25 57 58 57h303c33 0 58 -24 58 -56c0 -19 -7 -32 -19 -46l-230 -279h200z" />
    <glyph glyph-name="zdotaccent" unicode="&#x17c;" horiz-adv-x="468" 
d="M238 594c-47 0 -85 36 -85 81c0 46 38 82 85 82c45 0 84 -36 84 -82c0 -45 -39 -81 -84 -81zM402 114c33 0 58 -24 58 -57c0 -32 -25 -57 -58 -57h-326c-32 0 -57 25 -57 57c0 17 5 29 23 49l228 275h-180c-33 0 -58 24 -58 57s25 57 58 57h303c33 0 58 -24 58 -56
c0 -19 -7 -32 -19 -46l-230 -279h200z" />
    <glyph glyph-name="iacute_j.loclNLD" horiz-adv-x="538" 
d="M158 568c-38 -5 -65 21 -68 52c-2 10 0 21 2 31l28 114c7 26 31 45 54 49c39 6 72 -20 78 -56c2 -11 1 -24 -4 -38l-43 -112c-9 -21 -26 -37 -47 -40zM427 568c-38 -5 -65 21 -68 52c-2 10 0 21 2 31l28 114c7 26 31 45 54 49c39 6 72 -20 78 -56c2 -11 1 -24 -4 -38
l-43 -112c-9 -21 -26 -37 -47 -40zM134 -12c-38 0 -67 30 -67 69v381c0 39 29 68 68 68c38 0 67 -29 67 -68v-381c0 -39 -29 -69 -68 -69zM286 -192c-23 0 -40 4 -55 9c-25 10 -41 29 -41 55c0 33 24 58 57 58c5 0 8 -1 13 -1c50 0 76 19 76 89v420c0 39 29 68 68 68
c38 0 67 -29 67 -68v-444c0 -122 -72 -186 -185 -186z" />
    <glyph glyph-name="cacute.loclPLK" horiz-adv-x="552" 
d="M328 567c-38 -8 -67 15 -73 46c-2 10 -1 21 0 31l18 115c4 27 27 48 50 54c38 10 73 -13 82 -48c3 -12 3 -24 -1 -39l-33 -115c-7 -22 -23 -39 -43 -44zM304 -12c-149 0 -265 115 -265 260s116 258 265 258c84 0 162 -40 200 -98c9 -14 12 -25 12 -36
c0 -33 -27 -60 -60 -60c-19 0 -34 6 -46 21c-25 30 -60 50 -104 50c-76 0 -130 -56 -130 -135c0 -80 54 -136 130 -136c43 0 77 20 104 50c14 16 28 21 46 21c33 0 60 -27 60 -60c0 -12 -3 -22 -11 -34c-41 -63 -113 -101 -201 -101z" />
    <glyph glyph-name="nacute.loclPLK" horiz-adv-x="585" 
d="M305 567c-38 -8 -67 15 -73 46c-2 10 -1 21 0 31l18 115c4 27 27 48 50 54c38 10 73 -13 82 -48c3 -12 3 -24 -1 -39l-33 -115c-7 -22 -23 -39 -43 -44zM336 506c113 0 186 -78 186 -199v-250c0 -40 -28 -69 -67 -69c-38 0 -67 30 -67 69v232c0 57 -37 96 -92 96
s-94 -40 -94 -96v-232c0 -40 -29 -69 -67 -69c-39 0 -68 30 -68 69v381c0 39 29 68 67 68c31 0 56 -21 63 -51c35 32 84 51 139 51z" />
    <glyph glyph-name="oacute.loclPLK" horiz-adv-x="608" 
d="M328 567c-38 -8 -67 15 -73 46c-2 10 -1 21 0 31l18 115c4 27 27 48 50 54c38 10 73 -13 82 -48c3 -12 3 -24 -1 -39l-33 -115c-7 -22 -23 -39 -43 -44zM304 506c148 0 266 -114 266 -258s-118 -259 -267 -259c-148 0 -264 114 -264 259s116 258 265 258zM304 383
c-74 0 -128 -57 -128 -136c0 -78 54 -134 128 -134c73 0 128 57 128 134c0 78 -55 136 -128 136z" />
    <glyph glyph-name="sacute.loclPLK" horiz-adv-x="455" 
d="M256 567c-38 -8 -67 15 -73 46c-2 10 -1 21 0 31l18 115c4 27 27 48 50 54c38 10 73 -13 82 -48c3 -12 3 -24 -1 -39l-33 -115c-7 -22 -23 -39 -43 -44zM227 -12c-74 0 -138 28 -182 71c-13 11 -19 26 -19 42c0 31 25 57 56 57c13 0 25 -4 39 -15c29 -25 65 -44 108 -44
c34 0 63 13 63 41c0 23 -21 32 -51 45l-53 22c-84 34 -135 73 -135 151c0 95 77 149 182 149c59 0 116 -19 156 -53c16 -12 24 -28 24 -46c0 -31 -25 -56 -55 -56c-12 0 -24 6 -36 14c-26 18 -57 30 -90 30c-32 0 -53 -11 -53 -35c0 -20 16 -30 52 -44l48 -20
c89 -36 139 -74 139 -151c0 -102 -85 -158 -193 -158z" />
    <glyph glyph-name="zacute.loclPLK" horiz-adv-x="468" 
d="M262 567c-38 -8 -67 15 -73 46c-2 10 -1 21 0 31l18 115c4 27 27 48 50 54c38 10 73 -13 82 -48c3 -12 3 -24 -1 -39l-33 -115c-7 -22 -23 -39 -43 -44zM402 114c33 0 58 -24 58 -57c0 -32 -25 -57 -58 -57h-326c-32 0 -57 25 -57 57c0 17 5 29 23 49l228 275h-180
c-33 0 -58 24 -58 57s25 57 58 57h303c33 0 58 -24 58 -56c0 -19 -7 -32 -19 -46l-230 -279h200z" />
    <glyph glyph-name="i.loclTRK.loclTRK" horiz-adv-x="269" 
d="M135 757c45 0 84 -36 84 -82c0 -45 -39 -81 -84 -81c-47 0 -85 36 -85 81c0 46 38 82 85 82zM134 -12c-38 0 -67 30 -67 69v381c0 39 29 68 68 68c38 0 67 -29 67 -68v-381c0 -39 -29 -69 -68 -69z" />
    <glyph glyph-name="c.ordn" horiz-adv-x="366" 
d="M201 237c-96 0 -171 72 -171 164c0 93 75 165 171 165c47 0 95 -22 122 -56c9 -11 12 -21 12 -31c0 -26 -20 -46 -45 -46c-14 0 -24 8 -35 16c-16 15 -33 23 -54 23c-39 0 -66 -30 -66 -71s27 -71 66 -71c21 0 38 9 54 23c10 9 21 17 35 17c25 0 45 -20 45 -46
c0 -10 -3 -20 -12 -31c-28 -34 -75 -56 -122 -56z" />
    <glyph glyph-name="d.ordn" horiz-adv-x="418" 
d="M316 722c30 0 52 -22 52 -52v-382c0 -29 -22 -51 -51 -51c-23 0 -42 14 -48 34c-21 -23 -52 -35 -89 -35c-87 0 -150 69 -150 165c0 95 63 164 150 164c35 0 63 -11 84 -30v135c0 30 22 52 52 52zM201 329c38 0 65 30 65 71c0 43 -27 73 -65 73s-66 -31 -66 -72
s28 -72 66 -72z" />
    <glyph glyph-name="e.ordn" horiz-adv-x="377" 
d="M197 565c85 0 150 -61 150 -142v-6c0 -26 -20 -46 -47 -46h-169c9 -32 35 -50 75 -50c18 0 35 4 53 13c14 5 21 10 29 10c23 0 42 -19 42 -42c0 -16 -7 -29 -23 -37c-27 -18 -66 -29 -103 -29c-100 0 -174 71 -174 165c0 93 73 164 167 164zM192 486
c-32 0 -54 -19 -63 -52h122c-3 32 -26 52 -59 52z" />
    <glyph glyph-name="egrave.ordn" horiz-adv-x="377" 
d="M151 619l-44 58c-6 8 -9 18 -9 27c0 25 20 49 47 49c16 0 34 -7 45 -27l33 -62c4 -6 6 -13 6 -20c0 -22 -17 -44 -43 -44c-8 0 -24 4 -35 19zM197 565c85 0 150 -61 150 -142v-6c0 -26 -20 -46 -47 -46h-169c9 -32 35 -50 75 -50c18 0 35 4 53 13c14 5 21 10 29 10
c23 0 42 -19 42 -42c0 -16 -7 -29 -23 -37c-27 -18 -66 -29 -103 -29c-100 0 -174 71 -174 165c0 93 73 164 167 164zM192 486c-32 0 -54 -19 -63 -52h122c-3 32 -26 52 -59 52z" />
    <glyph glyph-name="g.ordn" horiz-adv-x="418" 
d="M316 565c29 0 52 -22 52 -52v-225c0 -100 -68 -165 -172 -165c-47 0 -91 14 -124 36c-17 11 -26 25 -26 41c0 25 21 46 46 46c11 0 20 -4 31 -11c19 -13 40 -19 66 -19c47 0 75 25 75 67v14c-20 -19 -49 -29 -85 -29c-88 0 -149 61 -149 150c0 87 60 147 149 147
c37 0 67 -11 88 -31c8 19 27 31 49 31zM201 351c38 0 65 28 65 67c0 38 -27 64 -65 64c-39 0 -66 -26 -66 -63c0 -39 28 -68 66 -68z" />
    <glyph glyph-name="h.ordn" horiz-adv-x="398" 
d="M235 565c70 0 117 -51 117 -127v-149c0 -30 -22 -52 -52 -52s-52 22 -52 52v134c0 29 -19 49 -47 49s-47 -20 -47 -49v-134c0 -30 -22 -52 -52 -52s-52 22 -52 52v381c0 30 22 52 52 52s52 -22 52 -52v-133c21 18 49 28 81 28z" />
    <glyph glyph-name="i.ordn" horiz-adv-x="202" 
d="M100 728c35 0 64 -26 64 -61c0 -34 -29 -60 -64 -60c-34 0 -62 26 -62 60c0 35 28 61 62 61zM102 565c29 0 51 -21 51 -52v-225c0 -30 -22 -52 -51 -52c-30 0 -52 22 -52 52v225c0 31 21 52 52 52z" />
    <glyph glyph-name="l.ordn" horiz-adv-x="204" 
d="M102 722c30 0 51 -22 51 -52v-382c0 -30 -21 -52 -51 -52c-29 0 -52 22 -52 52v382c0 30 22 52 52 52z" />
    <glyph glyph-name="m.ordn" horiz-adv-x="592" 
d="M425 565c74 0 120 -49 120 -127v-150c0 -29 -22 -52 -51 -52c-30 0 -52 23 -52 52v135c0 30 -18 49 -47 49c-28 0 -45 -19 -45 -49v-135c0 -29 -22 -52 -52 -52c-29 0 -52 23 -52 52v135c0 30 -18 49 -46 49c-29 0 -46 -18 -46 -49v-135c0 -29 -22 -52 -52 -52
c-29 0 -52 23 -52 52v225c0 31 23 52 52 52c21 0 38 -10 47 -28c21 18 49 28 81 28c39 0 71 -14 92 -40c25 25 62 40 103 40z" />
    <glyph glyph-name="n.ordn" horiz-adv-x="398" 
d="M232 565c74 0 120 -50 120 -127v-150c0 -30 -22 -52 -52 -52c-29 0 -52 22 -52 52v135c0 29 -19 49 -47 49s-47 -20 -47 -49v-135c0 -30 -22 -52 -52 -52c-29 0 -52 22 -52 52v225c0 31 23 52 52 52c22 0 39 -11 47 -29c21 18 50 29 83 29z" />
    <glyph glyph-name="r.ordn" horiz-adv-x="266" 
d="M216 565c30 0 49 -18 49 -47c0 -28 -17 -46 -46 -48c-43 -4 -65 -32 -65 -80v-101c0 -30 -22 -53 -52 -53c-29 0 -52 23 -52 53v224c0 30 23 52 53 52c21 0 39 -12 47 -30c17 19 40 30 66 30z" />
    <glyph glyph-name="s.ordn" horiz-adv-x="303" 
d="M150 236c-44 0 -86 16 -111 38c-12 11 -18 22 -18 35c0 21 18 39 40 39c8 0 15 -3 22 -7c23 -13 44 -24 68 -24c19 0 28 7 28 19c0 10 -5 15 -23 22l-32 12c-63 23 -89 52 -89 97c0 60 47 99 118 99c40 0 74 -12 96 -29c14 -10 21 -22 21 -35c1 -23 -17 -41 -39 -41
c-9 0 -16 3 -23 7c-16 11 -35 17 -51 17s-25 -5 -25 -17c0 -10 7 -14 23 -21l31 -12c67 -24 91 -50 91 -94c0 -65 -54 -105 -127 -105z" />
    <glyph glyph-name="y.ss01.ordn" horiz-adv-x="403" 
d="M301 565c30 0 51 -21 51 -52v-226c0 -101 -61 -164 -161 -164c-45 0 -85 12 -114 32c-19 11 -28 26 -28 43c0 25 21 46 44 46c11 0 20 -4 28 -9c20 -12 41 -19 63 -19c42 0 65 22 65 66v17c-21 -18 -49 -29 -80 -29c-71 0 -118 52 -118 129v114c0 31 23 52 52 52
c30 0 51 -21 51 -52v-99c0 -30 20 -51 48 -51c27 0 47 20 47 50v100c0 31 22 52 52 52z" />
    <glyph glyph-name="t.ordn" horiz-adv-x="278" 
d="M218 329c25 0 45 -19 45 -45c0 -15 -7 -28 -19 -36c-13 -8 -29 -12 -52 -12c-86 0 -134 42 -134 126v110h-9c-26 0 -45 19 -45 43c0 25 19 44 45 44h9v26c0 31 22 53 52 53s52 -22 52 -53v-26h46c26 0 45 -19 45 -44c0 -24 -19 -43 -45 -43h-46v-100c0 -30 16 -43 48 -43
h8z" />
    <glyph glyph-name="u.ordn" horiz-adv-x="394" 
d="M296 565c30 0 52 -21 52 -52v-125c0 -89 -62 -152 -150 -152c-89 0 -151 62 -151 152v125c0 31 22 52 52 52c29 0 51 -21 51 -52v-132c0 -29 20 -50 48 -50c27 0 46 21 46 50v132c0 31 22 52 52 52z" />
    <glyph glyph-name="uacute.ordn" horiz-adv-x="394" 
d="M202 600c-26 0 -42 22 -42 44c0 7 2 14 5 20l33 62c11 20 29 27 45 27c27 0 47 -24 47 -49c0 -9 -3 -19 -9 -27l-44 -58c-11 -15 -27 -19 -35 -19zM296 565c29 0 52 -22 52 -52v-125c0 -89 -62 -152 -150 -152c-89 0 -151 62 -151 152v125c0 30 22 52 52 52
c29 0 51 -22 51 -52v-132c0 -29 20 -50 48 -50c27 0 46 21 46 50v132c0 30 22 52 52 52z" />
    <glyph glyph-name="y.ordn" horiz-adv-x="367" 
d="M300 565c28 0 51 -22 51 -51c0 -9 -1 -16 -6 -24l-123 -265c-32 -70 -78 -101 -145 -101c-17 0 -31 3 -41 10c-13 8 -21 22 -21 38c0 25 21 44 47 44h11c24 0 42 12 54 38l5 11l-93 224c-3 9 -5 17 -5 25c0 29 23 51 51 51c23 0 40 -12 48 -34l56 -157l63 157
c8 21 26 34 48 34z" />
    <glyph glyph-name="z.ordn" horiz-adv-x="307" 
d="M258 331c26 0 45 -19 45 -43c0 -25 -19 -44 -45 -44h-202c-25 0 -44 19 -44 44c0 12 5 22 17 36l128 148h-94c-25 0 -45 19 -45 43c0 25 20 44 45 44h187c26 0 45 -19 45 -44c0 -13 -5 -22 -17 -37l-127 -147h107z" />
    <glyph glyph-name="a.ss01" horiz-adv-x="629" 
d="M496 506c38 0 66 -29 66 -68v-381c0 -39 -28 -69 -67 -69c-35 0 -63 26 -67 61c-34 -39 -86 -61 -149 -61c-139 0 -240 109 -240 259s101 259 240 259c64 0 117 -23 151 -62c3 36 31 62 66 62zM304 111c75 0 125 55 125 136s-51 137 -125 137s-128 -58 -128 -137
s53 -136 128 -136z" />
    <glyph glyph-name="aacute.ss01" horiz-adv-x="629" 
d="M330 562c-38 2 -60 32 -58 63c0 10 4 21 8 30l47 107c11 25 38 39 62 39c39 0 67 -32 67 -68c0 -12 -3 -24 -11 -37l-62 -103c-12 -19 -32 -32 -53 -31zM496 506c38 0 66 -29 66 -68v-381c0 -39 -28 -69 -67 -69c-35 0 -63 26 -67 61c-34 -39 -86 -61 -149 -61
c-139 0 -240 109 -240 259s101 259 240 259c64 0 117 -23 151 -62c3 36 31 62 66 62zM304 111c75 0 125 55 125 136s-51 137 -125 137s-128 -58 -128 -137s53 -136 128 -136z" />
    <glyph glyph-name="abreve.ss01" horiz-adv-x="629" 
d="M312 573c-92 0 -171 68 -171 145c0 31 23 55 52 55c27 0 44 -13 52 -41c8 -35 33 -57 67 -57c33 0 58 22 66 57c8 27 26 41 51 41c30 0 53 -24 53 -55c0 -78 -77 -145 -170 -145zM496 506c38 0 66 -29 66 -68v-381c0 -39 -28 -69 -67 -69c-35 0 -63 26 -67 61
c-34 -39 -86 -61 -149 -61c-139 0 -240 109 -240 259s101 259 240 259c64 0 117 -23 151 -62c3 36 31 62 66 62zM304 111c75 0 125 55 125 136s-51 137 -125 137s-128 -58 -128 -137s53 -136 128 -136z" />
    <glyph glyph-name="acircumflex.ss01" horiz-adv-x="629" 
d="M199 566c-26 0 -51 20 -51 50c0 17 7 27 17 39l96 115c16 18 34 23 51 23s34 -5 50 -23l96 -115c10 -12 17 -22 17 -39c0 -30 -25 -50 -51 -50c-13 0 -25 6 -34 15l-78 82l-79 -82c-9 -9 -21 -15 -34 -15zM496 506c38 0 66 -29 66 -68v-381c0 -39 -28 -69 -67 -69
c-35 0 -63 26 -67 61c-34 -39 -86 -61 -149 -61c-139 0 -240 109 -240 259s101 259 240 259c64 0 117 -23 151 -62c3 36 31 62 66 62zM304 111c75 0 125 55 125 136s-51 137 -125 137s-128 -58 -128 -137s53 -136 128 -136z" />
    <glyph glyph-name="adieresis.ss01" horiz-adv-x="629" 
d="M193 598c-43 0 -81 37 -81 77c0 44 37 79 81 79c45 0 81 -34 81 -79c0 -42 -37 -77 -81 -77zM430 598c-42 0 -80 37 -80 77c0 44 36 79 80 79c46 0 81 -34 81 -79c0 -42 -36 -77 -81 -77zM496 506c38 0 66 -29 66 -68v-381c0 -39 -28 -69 -67 -69c-35 0 -63 26 -67 61
c-34 -39 -86 -61 -149 -61c-139 0 -240 109 -240 259s101 259 240 259c64 0 117 -23 151 -62c3 36 31 62 66 62zM304 111c75 0 125 55 125 136s-51 137 -125 137s-128 -58 -128 -137s53 -136 128 -136z" />
    <glyph glyph-name="agrave.ss01" horiz-adv-x="629" 
d="M240 593l-62 103c-8 13 -11 25 -11 37c0 36 28 68 67 68c24 0 51 -14 62 -39l47 -107c4 -9 8 -20 8 -30c2 -31 -20 -61 -58 -63c-21 -1 -41 12 -53 31zM496 506c38 0 66 -29 66 -68v-381c0 -39 -28 -69 -67 -69c-35 0 -63 26 -67 61c-34 -39 -86 -61 -149 -61
c-139 0 -240 109 -240 259s101 259 240 259c64 0 117 -23 151 -62c3 36 31 62 66 62zM304 111c75 0 125 55 125 136s-51 137 -125 137s-128 -58 -128 -137s53 -136 128 -136z" />
    <glyph glyph-name="amacron.ss01" horiz-adv-x="629" 
d="M209 622c-32 0 -56 23 -56 53s24 53 56 53h206c32 0 56 -23 56 -53s-24 -53 -56 -53h-206zM496 506c38 0 66 -29 66 -68v-381c0 -39 -28 -69 -67 -69c-35 0 -63 26 -67 61c-34 -39 -86 -61 -149 -61c-139 0 -240 109 -240 259s101 259 240 259c64 0 117 -23 151 -62
c3 36 31 62 66 62zM304 111c75 0 125 55 125 136s-51 137 -125 137s-128 -58 -128 -137s53 -136 128 -136z" />
    <glyph glyph-name="aogonek.ss01" horiz-adv-x="629" 
d="M536 -93c25 0 41 -18 41 -44c0 -23 -13 -41 -38 -48c-16 -4 -38 -7 -60 -7c-73 0 -120 40 -120 103c0 46 24 79 73 121c-2 5 -3 11 -4 17c-34 -39 -86 -61 -149 -61c-139 0 -240 109 -240 259s101 259 240 259c64 0 117 -23 151 -62c3 36 31 62 66 62c38 0 66 -29 66 -68
v-381v-7v-5c0 -16 -8 -30 -21 -41c-28 -24 -56 -49 -56 -72c0 -15 12 -26 35 -26c7 0 12 1 16 1zM304 111c75 0 125 55 125 136s-51 137 -125 137s-128 -58 -128 -137s53 -136 128 -136z" />
    <glyph glyph-name="aring.ss01" horiz-adv-x="629" 
d="M311 550c-72 0 -126 53 -126 123c0 69 54 122 126 122c73 0 127 -52 127 -122s-54 -123 -127 -123zM312 714c-23 0 -41 -17 -41 -41s17 -41 41 -41c23 0 41 18 41 41c0 24 -18 41 -41 41zM496 506c38 0 66 -29 66 -68v-381c0 -39 -28 -69 -67 -69c-35 0 -63 26 -67 61
c-34 -39 -86 -61 -149 -61c-139 0 -240 109 -240 259s101 259 240 259c64 0 117 -23 151 -62c3 36 31 62 66 62zM304 111c75 0 125 55 125 136s-51 137 -125 137s-128 -58 -128 -137s53 -136 128 -136z" />
    <glyph glyph-name="atilde.ss01" horiz-adv-x="629" 
d="M172 574c-32 0 -53 23 -53 58c0 78 49 129 116 129c24 0 50 -9 71 -23l28 -18c18 -12 28 -19 42 -19c15 0 22 9 27 28c6 23 25 37 50 37c33 0 53 -23 53 -58c0 -77 -47 -129 -112 -129c-26 0 -52 8 -75 23l-28 18c-18 13 -26 20 -39 20c-17 0 -25 -10 -30 -28
c-6 -24 -24 -38 -50 -38zM496 506c38 0 66 -29 66 -68v-381c0 -39 -28 -69 -67 -69c-35 0 -63 26 -67 61c-34 -39 -86 -61 -149 -61c-139 0 -240 109 -240 259s101 259 240 259c64 0 117 -23 151 -62c3 36 31 62 66 62zM304 111c75 0 125 55 125 136s-51 137 -125 137
s-128 -58 -128 -137s53 -136 128 -136z" />
    <glyph glyph-name="y.ss01" horiz-adv-x="592" 
d="M457 506c38 0 67 -29 67 -68v-388c0 -152 -93 -242 -236 -242c-74 0 -143 24 -190 60c-22 14 -33 31 -33 52c0 34 27 61 61 61c12 0 23 -4 38 -14c31 -22 66 -37 110 -37c65 0 116 31 116 109v31c-34 -34 -82 -53 -137 -53c-111 0 -184 79 -184 200v221c0 39 29 68 67 68
s67 -29 67 -68v-202c0 -58 37 -97 92 -97c56 0 95 39 95 96v203c0 39 28 68 67 68z" />
    <glyph glyph-name="yacute.ss01" horiz-adv-x="592" 
d="M314 562c-38 2 -60 32 -58 63c0 10 4 21 8 30l47 107c11 25 38 39 62 39c39 0 67 -32 67 -68c0 -12 -3 -24 -11 -37l-62 -103c-12 -19 -32 -32 -53 -31zM457 506c38 0 67 -29 67 -68v-388c0 -152 -93 -242 -236 -242c-74 0 -143 24 -190 60c-22 14 -33 31 -33 52
c0 34 27 61 61 61c12 0 23 -4 38 -14c31 -22 66 -37 110 -37c65 0 116 31 116 109v31c-34 -34 -82 -53 -137 -53c-111 0 -184 79 -184 200v221c0 39 29 68 67 68s67 -29 67 -68v-202c0 -58 37 -97 92 -97c56 0 95 39 95 96v203c0 39 28 68 67 68z" />
    <glyph glyph-name="ycircumflex.ss01" horiz-adv-x="592" 
d="M183 566c-26 0 -51 20 -51 50c0 17 7 27 17 39l96 115c16 18 34 23 51 23s34 -5 50 -23l96 -115c10 -12 17 -22 17 -39c0 -30 -25 -50 -51 -50c-13 0 -25 6 -34 15l-78 82l-79 -82c-9 -9 -21 -15 -34 -15zM457 506c38 0 67 -29 67 -68v-388c0 -152 -93 -242 -236 -242
c-74 0 -143 24 -190 60c-22 14 -33 31 -33 52c0 34 27 61 61 61c12 0 23 -4 38 -14c31 -22 66 -37 110 -37c65 0 116 31 116 109v31c-34 -34 -82 -53 -137 -53c-111 0 -184 79 -184 200v221c0 39 29 68 67 68s67 -29 67 -68v-202c0 -58 37 -97 92 -97c56 0 95 39 95 96v203
c0 39 28 68 67 68z" />
    <glyph glyph-name="ydieresis.ss01" horiz-adv-x="592" 
d="M177 598c-43 0 -81 37 -81 77c0 44 37 79 81 79c45 0 81 -34 81 -79c0 -42 -37 -77 -81 -77zM414 598c-42 0 -80 37 -80 77c0 44 36 79 80 79c46 0 81 -34 81 -79c0 -42 -36 -77 -81 -77zM457 506c38 0 67 -29 67 -68v-388c0 -152 -93 -242 -236 -242
c-74 0 -143 24 -190 60c-22 14 -33 31 -33 52c0 34 27 61 61 61c12 0 23 -4 38 -14c31 -22 66 -37 110 -37c65 0 116 31 116 109v31c-34 -34 -82 -53 -137 -53c-111 0 -184 79 -184 200v221c0 39 29 68 67 68s67 -29 67 -68v-202c0 -58 37 -97 92 -97c56 0 95 39 95 96v203
c0 39 28 68 67 68z" />
    <glyph glyph-name="ygrave.ss01" horiz-adv-x="592" 
d="M224 593l-62 103c-8 13 -11 25 -11 37c0 36 28 68 67 68c24 0 51 -14 62 -39l47 -107c4 -9 8 -20 8 -30c2 -31 -20 -61 -58 -63c-21 -1 -41 12 -53 31zM457 506c38 0 67 -29 67 -68v-388c0 -152 -93 -242 -236 -242c-74 0 -143 24 -190 60c-22 14 -33 31 -33 52
c0 34 27 61 61 61c12 0 23 -4 38 -14c31 -22 66 -37 110 -37c65 0 116 31 116 109v31c-34 -34 -82 -53 -137 -53c-111 0 -184 79 -184 200v221c0 39 29 68 67 68s67 -29 67 -68v-202c0 -58 37 -97 92 -97c56 0 95 39 95 96v203c0 39 28 68 67 68z" />
    <glyph glyph-name="ordfeminine" unicode="&#xaa;" horiz-adv-x="371" 
d="M183 565c90 0 142 -50 142 -137v-139c0 -30 -23 -53 -52 -53c-21 0 -39 12 -47 29c-22 -18 -52 -29 -86 -29c-65 0 -108 39 -108 98c0 58 45 92 122 92h67v11c0 27 -17 42 -50 42c-18 0 -34 -5 -54 -17c-12 -6 -18 -8 -26 -8c-24 0 -43 19 -43 43c0 15 8 29 26 39
c33 21 65 29 109 29zM172 310c29 0 49 19 49 48v9h-49c-22 0 -35 -11 -35 -29s13 -28 35 -28z" />
    <glyph glyph-name="ordmasculine" unicode="&#xba;" horiz-adv-x="400" 
d="M200 565c95 0 171 -72 171 -164s-76 -165 -171 -165c-96 0 -170 73 -170 165s74 164 170 164zM200 472c-40 0 -67 -29 -67 -71s27 -71 67 -71s67 29 67 71s-27 71 -67 71z" />
    <glyph glyph-name="ordfeminine.ss01" horiz-adv-x="418" 
d="M321 565c26 0 46 -20 46 -47v-234c0 -27 -20 -48 -46 -48c-24 0 -43 17 -46 40c-21 -26 -53 -40 -93 -40c-89 0 -152 69 -152 165s63 164 151 164c40 0 73 -14 94 -40c3 24 22 40 46 40zM201 330c40 0 66 29 66 71c0 43 -26 71 -66 71s-66 -29 -66 -70
c0 -43 27 -72 66 -72z" />
    <glyph glyph-name="uni0410" unicode="&#x410;" horiz-adv-x="662" 
d="M620 89c6 -14 8 -26 8 -36c0 -36 -28 -65 -66 -65c-29 0 -51 17 -64 48l-28 68h-279l-28 -68c-12 -31 -34 -48 -63 -48c-38 0 -67 29 -67 65c0 10 3 22 8 36l226 537c12 30 34 46 64 46s52 -16 64 -46zM331 473l-96 -258h190z" />
    <glyph glyph-name="uni0411" unicode="&#x411;" horiz-adv-x="621" 
d="M455 660c36 0 63 -26 63 -61c0 -34 -27 -61 -63 -61h-244v-145h159c130 0 217 -78 217 -194c0 -118 -88 -199 -217 -199h-225c-40 0 -69 29 -69 69v522c0 40 29 69 69 69h310zM360 282h-149v-166h149c59 0 94 30 94 83c0 52 -35 83 -94 83z" />
    <glyph glyph-name="uni0412" unicode="&#x412;" horiz-adv-x="620" 
d="M469 357c74 -26 118 -84 118 -163c0 -114 -90 -194 -218 -194h-225c-40 0 -69 29 -69 69v522c0 40 29 69 69 69h165c123 0 209 -75 209 -184c0 -49 -17 -89 -49 -119zM299 544h-93v-151h93c53 0 86 29 86 76s-33 75 -86 75zM359 116c59 0 94 30 94 83c0 52 -35 83 -94 83
h-153v-166h153z" />
    <glyph glyph-name="uni0413" unicode="&#x413;" horiz-adv-x="525" 
d="M446 660c36 0 62 -26 62 -61c0 -34 -27 -61 -62 -61h-235v-481c0 -39 -29 -69 -68 -69c-38 0 -67 30 -67 69v534c0 40 29 69 69 69h301z" />
    <glyph glyph-name="uni0403" unicode="&#x403;" horiz-adv-x="525" 
d="M296 719c-49 1 -68 55 -51 88l52 100c15 29 43 36 62 35c53 -1 84 -64 51 -107l-64 -90c-17 -22 -39 -26 -50 -26zM446 660c36 0 62 -26 62 -61c0 -34 -27 -61 -62 -61h-235v-481c0 -39 -29 -69 -68 -69c-38 0 -67 30 -67 69v534c0 40 29 69 69 69h301z" />
    <glyph glyph-name="uni0490" unicode="&#x490;" horiz-adv-x="499" 
d="M407 793c39 0 68 -30 68 -69v-117c0 -39 -30 -69 -69 -69h-195v-481c0 -39 -29 -69 -68 -69c-38 0 -67 30 -67 69v534c0 40 29 69 69 69h195v64c0 39 28 69 67 69z" />
    <glyph glyph-name="uni0414" unicode="&#x414;" horiz-adv-x="727" 
d="M633 122c40 0 69 -30 69 -69v-137c0 -39 -29 -69 -67 -69c-39 0 -68 30 -68 69v84h-411v-84c0 -39 -29 -69 -67 -69c-39 0 -68 30 -68 69v137c0 37 27 66 63 69c83 90 120 224 120 429v40c0 40 30 69 69 69h272c40 0 69 -29 69 -69v-469h19zM333 538
c-2 -190 -37 -324 -110 -416h256v416h-146z" />
    <glyph glyph-name="uni0415" unicode="&#x415;" horiz-adv-x="572" 
d="M142 0c-38 0 -67 29 -67 67v526c0 38 29 67 67 67h323c36 0 62 -26 62 -61c0 -34 -27 -61 -62 -61h-255v-134h175c34 0 59 -25 59 -58c0 -32 -25 -57 -59 -57h-175v-167h267c36 0 62 -27 62 -61c0 -35 -27 -61 -62 -61h-335z" />
    <glyph glyph-name="uni0400" unicode="&#x400;" horiz-adv-x="572" 
d="M279 719c-11 0 -33 4 -50 26l-64 90c-33 43 -2 106 51 107c19 1 47 -6 62 -35l52 -100c17 -33 -2 -87 -51 -88zM142 0c-38 0 -67 29 -67 67v526c0 38 29 67 67 67h323c36 0 62 -26 62 -61c0 -34 -27 -61 -62 -61h-255v-134h175c34 0 59 -25 59 -58c0 -32 -25 -57 -59 -57
h-175v-167h267c36 0 62 -27 62 -61c0 -35 -27 -61 -62 -61h-335z" />
    <glyph glyph-name="uni0401" unicode="&#x401;" horiz-adv-x="572" 
d="M165 737c-41 0 -81 36 -81 77c0 45 40 78 81 78c44 0 81 -33 81 -78c0 -41 -37 -77 -81 -77zM423 736c-41 0 -81 36 -81 77c0 45 40 79 81 79c44 0 81 -34 81 -79c0 -41 -37 -77 -81 -77zM142 0c-38 0 -67 29 -67 67v526c0 38 29 67 67 67h323c36 0 62 -26 62 -61
c0 -34 -27 -61 -62 -61h-255v-134h175c34 0 59 -25 59 -58c0 -32 -25 -57 -59 -57h-175v-167h267c36 0 62 -27 62 -61c0 -35 -27 -61 -62 -61h-335z" />
    <glyph glyph-name="uni0416" unicode="&#x416;" horiz-adv-x="1014" 
d="M166 647l227 -252c13 -15 19 -30 19 -45c0 -19 -6 -33 -19 -47l-239 -284c-17 -20 -36 -31 -57 -31c-34 0 -63 31 -63 65c0 13 4 26 15 39l218 257l-196 216c-12 14 -18 28 -18 44c0 35 28 63 61 63c21 0 36 -8 52 -25zM507 672c39 0 68 -30 68 -69v-546
c0 -39 -29 -69 -68 -69c-38 0 -67 30 -67 69v546c0 39 29 69 67 69zM966 92c10 -13 15 -26 15 -39c0 -34 -29 -65 -64 -65c-21 0 -40 11 -56 31l-240 284c-12 15 -19 31 -19 47s7 31 19 45l228 252c16 17 31 25 52 25c33 0 61 -28 61 -63c0 -16 -6 -30 -18 -44l-198 -215z
" />
    <glyph glyph-name="uni0417" unicode="&#x417;" horiz-adv-x="588" 
d="M453 349c61 -30 97 -84 97 -154c0 -120 -106 -207 -251 -207c-95 0 -177 38 -230 106c-10 13 -15 27 -15 39c0 35 27 62 62 62c17 0 31 -6 44 -21c40 -42 85 -61 138 -61c70 0 118 36 118 89c0 48 -38 80 -93 80h-81c-32 0 -57 24 -57 56s25 55 57 55h53
c51 0 85 30 85 76c0 47 -38 78 -93 78c-43 0 -83 -18 -115 -52c-13 -14 -28 -20 -45 -20c-34 0 -61 27 -61 60c0 14 4 27 15 41c47 60 125 96 207 96c128 0 226 -84 226 -195c0 -53 -22 -97 -61 -128z" />
    <glyph glyph-name="uni0418" unicode="&#x418;" horiz-adv-x="722" 
d="M581 672c38 0 67 -30 67 -68v-547c0 -39 -29 -69 -68 -69c-38 0 -67 30 -67 69v366l-314 -406c-16 -20 -33 -29 -56 -29c-37 0 -67 30 -67 68v547c0 39 29 69 67 69c39 0 68 -30 68 -69v-368l305 397c17 22 32 40 65 40z" />
    <glyph glyph-name="uni0419" unicode="&#x419;" horiz-adv-x="722" 
d="M354 726c-87 0 -168 65 -168 137c0 30 22 52 52 52c21 0 36 -11 50 -38c14 -33 36 -49 66 -49s53 17 65 49c13 26 29 38 51 38c30 0 51 -22 51 -52c0 -72 -81 -137 -167 -137zM581 672c38 0 67 -30 67 -68v-547c0 -39 -29 -69 -68 -69c-38 0 -67 30 -67 69v366l-314 -406
c-16 -20 -33 -29 -56 -29c-37 0 -67 30 -67 68v547c0 39 29 69 67 69c39 0 68 -30 68 -69v-368l305 397c17 22 32 40 65 40z" />
    <glyph glyph-name="uni040D" unicode="&#x40d;" horiz-adv-x="722" 
d="M289 745l-64 90c-33 43 -2 106 51 107c19 1 47 -6 62 -35l52 -100c17 -33 -2 -87 -51 -88c-11 0 -33 4 -50 26zM581 672c38 0 67 -30 67 -68v-547c0 -39 -29 -69 -68 -69c-38 0 -67 30 -67 69v366l-314 -406c-16 -20 -33 -29 -56 -29c-37 0 -67 30 -67 68v547
c0 39 29 69 67 69c39 0 68 -30 68 -69v-368l305 397c17 22 32 40 65 40z" />
    <glyph glyph-name="uni041A" unicode="&#x41a;" horiz-adv-x="662" 
d="M144 672c38 0 67 -30 67 -69v-546c0 -39 -29 -69 -67 -69c-39 0 -68 30 -68 69v546c0 39 28 69 68 69zM607 93c12 -14 17 -27 17 -41c0 -34 -29 -64 -63 -64c-20 0 -39 10 -54 28l-251 289c-11 13 -18 29 -18 45c0 15 7 30 19 43l238 257c15 15 29 22 49 22
c33 0 61 -28 61 -63c0 -16 -6 -30 -20 -45l-199 -215z" />
    <glyph glyph-name="uni040C" unicode="&#x40c;" horiz-adv-x="662" 
d="M352 719c-49 1 -68 55 -51 88l52 100c15 29 43 36 62 35c53 -1 84 -64 51 -107l-64 -90c-17 -22 -39 -26 -50 -26zM144 672c38 0 67 -30 67 -69v-546c0 -39 -29 -69 -67 -69c-39 0 -68 30 -68 69v546c0 39 28 69 68 69zM607 93c12 -14 17 -27 17 -41
c0 -34 -29 -64 -63 -64c-20 0 -39 10 -54 28l-251 289c-11 13 -18 29 -18 45c0 15 7 30 19 43l238 257c15 15 29 22 49 22c33 0 61 -28 61 -63c0 -16 -6 -30 -20 -45l-199 -215z" />
    <glyph glyph-name="uni041B" unicode="&#x41b;" horiz-adv-x="661" 
d="M517 660c40 0 69 -29 69 -69v-534c0 -39 -29 -69 -67 -69c-39 0 -68 30 -68 69v481h-165c-3 -298 -58 -462 -173 -524c-24 -16 -46 -24 -71 -24c-36 0 -61 24 -61 59c0 30 16 51 44 61c93 32 132 157 132 428v53c0 40 29 69 69 69h291z" />
    <glyph glyph-name="uni041C" unicode="&#x41c;" horiz-adv-x="796" 
d="M655 672c38 0 66 -30 66 -70v-545c0 -39 -29 -69 -67 -69c-39 0 -68 30 -68 69v326l-124 -195c-19 -30 -37 -43 -64 -43c-26 0 -45 13 -64 43l-124 197v-328c0 -39 -29 -69 -67 -69c-39 0 -68 30 -68 69v545c0 40 28 70 66 70c29 0 48 -14 71 -52l186 -295l186 295
c24 38 42 52 71 52z" />
    <glyph glyph-name="uni041D" unicode="&#x41d;" horiz-adv-x="712" 
d="M143 -12c-39 0 -68 30 -68 70v544c0 40 28 70 68 70c39 0 67 -30 67 -70v-195h292v196c0 40 28 69 68 69c39 0 67 -29 67 -69v-545c0 -40 -29 -70 -67 -70c-39 0 -68 30 -68 70v227h-292v-227c0 -40 -29 -70 -67 -70z" />
    <glyph glyph-name="uni041E" unicode="&#x41e;" horiz-adv-x="778" 
d="M388 672c197 0 352 -151 352 -342s-155 -342 -352 -342s-350 150 -350 342s154 342 350 342zM389 547c-124 0 -212 -90 -212 -217s88 -217 212 -217c123 0 212 91 212 217s-89 217 -212 217z" />
    <glyph glyph-name="uni041F" unicode="&#x41f;" horiz-adv-x="690" 
d="M143 -12c-39 0 -68 30 -68 69v534c0 40 29 69 69 69h402c39 0 69 -29 69 -69v-534c0 -39 -29 -69 -68 -69c-38 0 -67 30 -67 69v481h-270v-481c0 -39 -29 -69 -67 -69z" />
    <glyph glyph-name="uni0420" unicode="&#x420;" horiz-adv-x="593" 
d="M143 -12c-39 0 -68 30 -68 69v534c0 40 29 69 69 69h180c141 0 237 -86 237 -213c0 -126 -98 -214 -237 -214h-114v-176c0 -39 -29 -69 -67 -69zM210 351h113c62 0 100 37 100 96c0 57 -38 94 -100 94h-113v-190z" />
    <glyph glyph-name="uni0421" unicode="&#x421;" horiz-adv-x="720" 
d="M389 -12c-198 0 -351 150 -351 342s154 342 352 342c101 0 196 -43 255 -114c14 -16 21 -32 21 -50c0 -33 -28 -61 -63 -61c-19 0 -37 9 -52 26c-43 50 -97 74 -161 74c-124 0 -213 -91 -213 -218c0 -126 89 -216 213 -216c63 0 116 24 160 74c16 17 33 26 53 26
c35 0 62 -28 62 -61c0 -16 -6 -32 -21 -50c-58 -71 -153 -114 -255 -114z" />
    <glyph glyph-name="uni0422" unicode="&#x422;" horiz-adv-x="585" 
d="M292 -12c-38 0 -67 30 -67 69v481h-157c-35 0 -62 27 -62 61c0 35 27 61 62 61h449c36 0 62 -26 62 -61c0 -34 -27 -61 -62 -61h-157v-481c0 -39 -29 -69 -68 -69z" />
    <glyph glyph-name="uni0423" unicode="&#x423;" horiz-adv-x="631" 
d="M529 667c39 0 70 -32 70 -71c0 -11 -3 -22 -10 -37l-199 -425c-46 -99 -118 -146 -225 -146c-29 0 -51 4 -69 12c-23 12 -35 30 -35 54c0 35 26 60 64 60c4 0 11 -1 18 -1c59 0 92 19 114 61l-203 385c-6 12 -10 26 -10 38c0 39 32 70 70 70c27 0 50 -15 65 -43l152 -304
l133 304c11 26 36 43 65 43z" />
    <glyph glyph-name="uni040E" unicode="&#x40e;" horiz-adv-x="631" 
d="M310 726c-87 0 -168 65 -168 137c0 30 22 52 52 52c21 0 36 -11 50 -38c14 -33 36 -49 66 -49s53 17 65 49c13 26 29 38 51 38c30 0 51 -22 51 -52c0 -72 -81 -137 -167 -137zM529 667c39 0 70 -32 70 -71c0 -11 -3 -22 -10 -37l-199 -425c-46 -99 -118 -146 -225 -146
c-29 0 -51 4 -69 12c-23 12 -35 30 -35 54c0 35 26 60 64 60c4 0 11 -1 18 -1c59 0 92 19 114 61l-203 385c-6 12 -10 26 -10 38c0 39 32 70 70 70c27 0 50 -15 65 -43l152 -304l133 304c11 26 36 43 65 43z" />
    <glyph glyph-name="uni0424" unicode="&#x424;" horiz-adv-x="838" 
d="M799 336c0 -169 -123 -280 -313 -282v-40c0 -40 -29 -69 -67 -69c-39 0 -68 29 -68 69v40c-189 2 -313 114 -313 282c0 166 122 275 313 277v34c0 40 29 69 68 69c38 0 67 -29 67 -69v-34c192 -1 313 -109 313 -277zM171 332c0 -101 66 -161 180 -162v328
c-112 -1 -180 -64 -180 -166zM486 170c113 0 181 60 181 162c0 103 -69 166 -181 166v-328z" />
    <glyph glyph-name="uni0425" unicode="&#x425;" horiz-adv-x="613" 
d="M556 100c13 -19 18 -33 18 -47c0 -35 -30 -65 -67 -65c-21 0 -41 11 -54 29l-146 207l-147 -207c-13 -18 -32 -29 -55 -29c-36 0 -66 30 -66 66c0 15 6 30 19 49l167 233l-153 221c-13 19 -19 36 -19 52c0 34 30 63 66 63c24 0 42 -10 56 -30l132 -194l135 193
c14 20 34 31 56 31c37 0 66 -29 66 -64c0 -17 -6 -34 -20 -54l-155 -218z" />
    <glyph glyph-name="uni0427" unicode="&#x427;" horiz-adv-x="643" 
d="M501 672c39 0 68 -30 68 -69v-546c0 -39 -29 -69 -68 -69c-38 0 -67 30 -67 69v166c-37 -10 -77 -16 -116 -16c-171 0 -280 103 -280 266v130c0 39 29 69 68 69c38 0 67 -30 67 -69v-117c0 -97 57 -155 150 -155c35 0 75 8 111 21v251c0 39 28 69 67 69z" />
    <glyph glyph-name="uni0426" unicode="&#x426;" horiz-adv-x="726" 
d="M545 672c39 0 68 -30 68 -69v-481h18c40 0 69 -30 69 -69v-137c0 -39 -29 -69 -67 -69c-39 0 -68 30 -68 69v84h-420c-40 0 -69 29 -69 69v534c0 39 29 69 67 69c39 0 68 -30 68 -69v-481h267v481c0 39 28 69 67 69z" />
    <glyph glyph-name="uni0428" unicode="&#x428;" horiz-adv-x="1037" 
d="M895 672c38 0 67 -30 67 -69v-534c0 -40 -29 -69 -69 -69h-748c-40 0 -69 29 -69 69v534c0 39 29 69 67 69c39 0 68 -30 68 -69v-481h241v481c0 39 29 69 67 69c39 0 68 -30 68 -69v-481h240v481c0 39 29 69 68 69z" />
    <glyph glyph-name="uni0429" unicode="&#x429;" horiz-adv-x="1075" 
d="M895 672c38 0 67 -30 67 -69v-481h19c40 0 69 -30 69 -69v-137c0 -39 -29 -69 -67 -69c-39 0 -68 30 -68 69v84h-770c-40 0 -69 29 -69 69v534c0 39 29 69 67 69c39 0 68 -30 68 -69v-481h241v481c0 39 29 69 67 69c39 0 68 -30 68 -69v-481h240v481c0 39 29 69 68 69z
" />
    <glyph glyph-name="uni040F" unicode="&#x40f;" horiz-adv-x="690" 
d="M548 672c38 0 67 -30 67 -69v-534c0 -40 -29 -69 -69 -69h-133v-84c0 -39 -29 -69 -67 -69c-39 0 -68 30 -68 69v84h-133c-40 0 -69 29 -69 69v534c0 39 29 69 67 69c39 0 68 -30 68 -69v-481h269v481c0 39 29 69 68 69z" />
    <glyph glyph-name="uni042C" unicode="&#x42c;" horiz-adv-x="626" 
d="M143 672c39 0 68 -30 68 -69v-170h135c144 0 241 -90 241 -216c0 -128 -96 -217 -241 -217h-201c-40 0 -69 29 -69 69v534c0 39 28 69 67 69zM346 315h-135v-196h135c66 0 103 40 103 97c0 58 -37 99 -103 99z" />
    <glyph glyph-name="uni042A" unicode="&#x42a;" horiz-adv-x="647" 
d="M166 0c-40 0 -69 29 -69 69v469h-52c-36 0 -63 27 -63 61c0 35 27 61 63 61h118c39 0 69 -29 69 -69v-158h135c142 0 241 -89 241 -216c0 -130 -97 -217 -241 -217h-201zM232 119h135c63 0 103 38 103 97c0 60 -40 99 -103 99h-135v-196z" />
    <glyph glyph-name="uni042B" unicode="&#x42b;" horiz-adv-x="911" 
d="M143 672c39 0 68 -30 68 -69v-170h135c144 0 241 -90 241 -216c0 -128 -96 -217 -241 -217h-201c-40 0 -69 29 -69 69v534c0 39 28 69 67 69zM769 -12c-40 0 -68 30 -68 69v546c0 39 28 69 68 69c39 0 67 -30 67 -69v-546c0 -39 -28 -69 -67 -69zM346 315h-135v-196h135
c66 0 103 40 103 97c0 58 -37 99 -103 99z" />
    <glyph glyph-name="uni0409" unicode="&#x409;" horiz-adv-x="1001" 
d="M721 433c143 0 241 -89 241 -216c0 -130 -97 -217 -241 -217h-201c-40 0 -69 29 -69 69v469h-165c-3 -297 -58 -462 -173 -524c-24 -16 -46 -24 -71 -24c-36 0 -61 24 -61 59c0 30 16 51 44 61c93 32 132 158 132 428v53c0 40 29 69 69 69h291c40 0 69 -29 69 -69v-158
h135zM721 119c63 0 103 38 103 97c0 60 -40 99 -103 99h-135v-196h135z" />
    <glyph glyph-name="uni040A" unicode="&#x40a;" horiz-adv-x="1040" 
d="M143 -12c-38 0 -67 30 -67 69v546c0 39 29 69 67 69c39 0 68 -30 68 -69v-195h279v195c0 39 29 69 68 69c38 0 67 -30 67 -69v-173h135c143 0 242 -88 242 -215c0 -129 -98 -215 -242 -215h-201c-39 0 -69 29 -69 69v218h-279v-230c0 -39 -29 -69 -68 -69zM625 119h135
c64 0 104 37 104 95c0 59 -41 97 -104 97h-135v-192z" />
    <glyph glyph-name="uni0405" unicode="&#x405;" horiz-adv-x="559" 
d="M285 -12c-78 0 -164 35 -213 89c-16 16 -25 33 -25 52c1 36 30 60 62 60c12 0 25 -4 35 -13c27 -28 74 -68 141 -68c59 0 94 28 94 73c0 38 -23 54 -84 82l-71 32c-105 48 -160 105 -160 190c0 111 94 187 219 187c99 0 157 -46 185 -78c14 -15 18 -30 18 -43
c0 -34 -31 -60 -62 -60c-12 0 -25 4 -37 14c-27 24 -57 47 -104 47c-48 0 -82 -23 -82 -64c0 -33 18 -49 77 -76l75 -33c110 -49 163 -103 163 -193c0 -122 -99 -198 -231 -198z" />
    <glyph glyph-name="uni0404" unicode="&#x404;" horiz-adv-x="720" 
d="M603 213c35 0 62 -28 62 -61c0 -16 -6 -32 -21 -50c-58 -71 -153 -114 -255 -114c-198 0 -351 150 -351 342s154 342 352 342c101 0 196 -43 255 -114c14 -16 21 -32 21 -50c0 -33 -28 -61 -63 -61c-19 0 -37 9 -52 26c-43 50 -97 74 -161 74c-98 0 -174 -57 -202 -143
h235c35 0 59 -25 59 -58c0 -32 -24 -57 -59 -57h-243c17 -105 100 -176 210 -176c63 0 116 24 160 74c16 17 33 26 53 26z" />
    <glyph glyph-name="uni042D" unicode="&#x42d;" horiz-adv-x="720" 
d="M330 672c198 0 352 -150 352 -342s-153 -342 -351 -342c-102 0 -197 43 -255 114c-15 18 -21 34 -21 50c0 33 27 61 62 61c20 0 37 -9 53 -26c44 -50 97 -74 160 -74c110 0 193 71 210 176h-243c-35 0 -59 25 -59 57c0 33 24 58 59 58h235c-28 86 -104 143 -202 143
c-64 0 -118 -24 -161 -74c-15 -17 -33 -26 -52 -26c-35 0 -63 28 -63 61c0 18 7 34 21 50c59 71 154 114 255 114z" />
    <glyph glyph-name="uni0406" unicode="&#x406;" horiz-adv-x="285" 
d="M143 672c39 0 68 -30 68 -69v-546c0 -39 -29 -69 -68 -69c-38 0 -67 30 -67 69v546c0 39 28 69 67 69z" />
    <glyph glyph-name="uni0407" unicode="&#x407;" horiz-adv-x="285" 
d="M14 737c-41 0 -81 36 -81 77c0 45 40 78 81 78c44 0 81 -33 81 -78c0 -41 -37 -77 -81 -77zM272 736c-41 0 -81 36 -81 77c0 45 40 79 81 79c44 0 81 -34 81 -79c0 -41 -37 -77 -81 -77zM143 672c39 0 68 -30 68 -69v-546c0 -39 -29 -69 -68 -69c-38 0 -67 30 -67 69v546
c0 39 28 69 67 69z" />
    <glyph glyph-name="uni0408" unicode="&#x408;" horiz-adv-x="388" 
d="M106 -12c-26 0 -46 3 -62 9c-23 10 -39 33 -39 57c0 34 27 60 63 60c16 0 31 -3 48 -3c38 0 62 25 62 66v426c0 39 28 69 68 69c39 0 67 -30 67 -69v-427c0 -124 -70 -188 -207 -188z" />
    <glyph glyph-name="uni040B" unicode="&#x40b;" horiz-adv-x="798" 
d="M472 414c158 0 257 -104 257 -271v-86c0 -39 -29 -69 -67 -69c-39 0 -68 30 -68 69v81c0 103 -43 152 -136 152c-31 0 -65 -5 -98 -14v-219c0 -39 -29 -69 -68 -69c-38 0 -67 30 -67 69v481h-157c-35 0 -62 27 -62 61c0 35 27 61 62 61h449c36 0 62 -26 62 -61
c0 -34 -27 -61 -62 -61h-157v-140c37 10 75 16 112 16z" />
    <glyph glyph-name="uni042E" unicode="&#x42e;" horiz-adv-x="1058" 
d="M670 672c195 0 350 -151 350 -342s-155 -342 -350 -342c-179 0 -320 126 -341 297h-118v-228c0 -39 -29 -69 -68 -69c-38 0 -67 30 -67 69v546c0 39 28 69 67 69s68 -30 68 -69v-196h123c34 154 169 265 336 265zM670 113c122 0 211 92 211 217c0 126 -89 217 -211 217
c-121 0 -211 -91 -211 -217c0 -125 90 -217 211 -217z" />
    <glyph glyph-name="uni042F" unicode="&#x42f;" horiz-adv-x="636" 
d="M493 660c40 0 69 -29 69 -69v-534c0 -39 -29 -69 -68 -69c-38 0 -67 30 -67 69v146h-98c-13 0 -25 1 -37 2l-122 -189c-13 -20 -32 -28 -53 -28c-36 0 -66 30 -66 68c0 15 6 29 15 43l101 151c-58 40 -93 104 -93 182c0 136 104 228 255 228h164zM427 322v219h-100
c-68 0 -115 -44 -115 -109c0 -66 47 -110 115 -110h100z" />
    <glyph glyph-name="uni0402" unicode="&#x402;" horiz-adv-x="768" 
d="M292 -12c-39 0 -67 30 -67 70v480h-157c-35 0 -62 27 -62 61c0 35 27 61 62 61h449c36 0 62 -26 62 -61c0 -34 -27 -61 -62 -61h-157v-123h125c146 0 244 -86 244 -214c0 -89 -56 -164 -149 -200c-23 -8 -38 -12 -55 -12c-37 0 -66 28 -66 60c0 35 24 53 49 65
c52 19 83 48 83 95c0 52 -41 87 -105 87h-126v-238c0 -40 -29 -70 -68 -70z" />
    <glyph glyph-name="uni0462" unicode="&#x462;" horiz-adv-x="626" 
d="M348 404c146 0 239 -80 239 -204c0 -123 -93 -200 -241 -200h-201c-40 0 -69 29 -69 69v414h-30c-32 0 -56 24 -56 56s24 55 56 55h29v40c0 40 28 70 68 70c39 0 68 -30 68 -70v-40h214c32 0 56 -23 56 -55s-24 -56 -56 -56h-214v-79h137zM349 119c61 0 100 32 100 83
s-39 84 -100 84h-138v-167h138z" />
    <glyph glyph-name="uni0472" unicode="&#x472;" horiz-adv-x="778" 
d="M388 672c197 0 352 -151 352 -342s-155 -342 -352 -342s-350 150 -350 342s154 342 350 342zM388 547c-98 0 -174 -57 -200 -145c35 16 67 23 100 23c77 0 126 -36 203 -36c32 0 63 7 97 21c-29 83 -104 137 -200 137zM388 113c113 0 196 74 211 182
c-38 -17 -72 -25 -108 -25c-78 0 -127 36 -203 36c-35 0 -68 -7 -107 -25c20 -100 100 -168 207 -168z" />
    <glyph glyph-name="uni0474" unicode="&#x474;" horiz-adv-x="680" 
d="M621 672c45 0 75 -26 75 -64c0 -29 -18 -53 -48 -59c-4 -1 -8 -1 -11 -3c-26 -4 -41 -18 -59 -61l-185 -449c-12 -30 -34 -48 -62 -48c-29 0 -51 18 -63 48l-224 527c-7 16 -11 30 -11 42c0 37 30 67 68 67c29 0 51 -16 63 -47l167 -409l132 334c33 85 77 122 158 122z
" />
    <glyph glyph-name="uni0492" unicode="&#x492;" horiz-adv-x="513" 
d="M434 538h-214v-165h163c36 0 63 -27 63 -61c0 -35 -27 -61 -63 -61h-163v-194c0 -39 -29 -69 -68 -69c-38 0 -67 30 -67 69v194h-38c-35 0 -62 26 -62 61c0 34 27 61 62 61h38v218c0 40 29 69 69 69h280c36 0 62 -26 62 -61c0 -34 -27 -61 -62 -61z" />
    <glyph glyph-name="uni0496" unicode="&#x496;" horiz-adv-x="1015" 
d="M166 647l227 -252c13 -15 19 -30 19 -45c0 -17 -5 -31 -19 -47l-239 -284c-17 -20 -36 -31 -57 -31c-34 0 -63 31 -63 65c0 13 4 26 15 39l218 257l-196 216c-12 14 -18 28 -18 44c0 35 28 63 61 63c21 0 36 -8 52 -25zM507 672c39 0 68 -30 68 -69v-546
c0 -39 -29 -69 -68 -69c-38 0 -67 30 -67 69v546c0 39 29 69 67 69zM935 121c39 0 69 -30 69 -69v-136c0 -39 -28 -69 -67 -69s-68 29 -68 69v74c-16 4 -30 14 -40 29l-208 284c-12 17 -18 33 -18 49s6 30 19 44l235 254c15 16 29 22 49 22c33 0 61 -29 61 -63
c0 -16 -6 -30 -18 -44l-206 -220l170 -224h22z" />
    <glyph glyph-name="uni0498" unicode="&#x498;" horiz-adv-x="588" 
d="M550 195c0 -94 -64 -167 -161 -195c10 -21 17 -43 17 -63c0 -79 -61 -129 -154 -129c-29 0 -49 3 -65 9c-21 9 -32 23 -32 43c0 27 21 48 48 48c10 0 20 -1 32 -1c33 0 58 12 58 40c0 17 -5 30 -12 41c-87 5 -162 42 -212 106c-10 13 -15 27 -15 39c0 35 27 62 62 62
c17 0 31 -6 44 -21c40 -42 85 -61 138 -61c70 0 118 36 118 89c0 48 -38 80 -93 80h-81c-32 0 -57 24 -57 56s25 55 57 55h53c51 0 85 30 85 76c0 47 -38 78 -93 78c-43 0 -83 -18 -115 -52c-13 -14 -28 -20 -45 -20c-34 0 -61 27 -61 60c0 14 4 27 15 41
c47 60 125 96 207 96c128 0 226 -84 226 -195c0 -53 -22 -97 -61 -128c61 -30 97 -84 97 -154z" />
    <glyph glyph-name="uni049A" unicode="&#x49a;" horiz-adv-x="674" 
d="M143 672c39 0 68 -30 68 -69v-546c0 -39 -29 -69 -68 -69c-38 0 -67 30 -67 69v546c0 39 28 69 67 69zM594 121c40 0 69 -30 69 -69v-136c0 -39 -28 -69 -67 -69c-38 0 -67 29 -67 69v72c-15 2 -33 8 -47 28l-223 284c-14 19 -20 35 -20 51s6 31 21 47l232 252
c17 19 34 22 49 22c34 0 61 -29 61 -63c0 -14 -4 -28 -18 -43l-204 -220l180 -225h34z" />
    <glyph glyph-name="uni04A0" unicode="&#x4a0;" horiz-adv-x="692" 
d="M642 91c12 -14 17 -27 17 -41c0 -34 -29 -64 -63 -64c-20 0 -39 10 -54 28l-250 289c-12 13 -18 29 -18 45c0 15 6 30 18 43l239 257c14 15 29 22 48 22c34 0 62 -28 62 -63c0 -16 -7 -30 -20 -45l-200 -215zM177 660c39 0 69 -29 69 -69v-534c0 -39 -29 -69 -68 -69
c-38 0 -67 30 -67 69v482h-56c-36 0 -63 26 -63 61c0 34 27 60 63 60h122z" />
    <glyph glyph-name="uni04A2" unicode="&#x4a2;" horiz-adv-x="751" 
d="M570 672c39 0 68 -30 68 -69v-481h19c39 0 69 -30 69 -69v-137c0 -39 -29 -69 -68 -69s-67 30 -67 69v84h-19c-40 0 -69 29 -69 69v216h-292v-228c0 -39 -29 -69 -68 -69c-38 0 -67 30 -67 69v546c0 39 29 69 67 69c39 0 68 -30 68 -69v-196h292v196c0 39 28 69 67 69z
" />
    <glyph glyph-name="uni04AA" unicode="&#x4aa;" horiz-adv-x="720" 
d="M603 213c35 0 62 -28 62 -61c0 -16 -6 -32 -21 -50c-40 -49 -99 -85 -165 -103c10 -20 17 -42 17 -62c0 -79 -61 -129 -154 -129c-29 0 -49 3 -65 9c-21 9 -32 23 -32 43c0 27 21 48 48 48c10 0 20 -1 32 -1c33 0 58 12 58 40c0 17 -5 30 -12 41
c-189 9 -333 156 -333 342c0 192 154 342 352 342c101 0 196 -43 255 -114c14 -16 21 -32 21 -50c0 -33 -28 -61 -63 -61c-19 0 -37 9 -52 26c-43 50 -97 74 -161 74c-124 0 -213 -91 -213 -218c0 -126 89 -216 213 -216c63 0 116 24 160 74c16 17 33 26 53 26z" />
    <glyph glyph-name="uni04AE" unicode="&#x4ae;" horiz-adv-x="625" 
d="M584 607c0 -15 -4 -29 -14 -44l-190 -312v-194c0 -39 -29 -69 -68 -69c-38 0 -67 30 -67 69v194l-189 312c-11 16 -15 30 -15 45c0 36 29 64 66 64c29 0 48 -12 64 -40l142 -246l142 246c15 27 34 40 63 40c37 0 66 -28 66 -65z" />
    <glyph glyph-name="uni04B0" unicode="&#x4b0;" horiz-adv-x="642" 
d="M590 607c0 -14 -4 -27 -13 -42l-173 -280h111c35 0 62 -25 62 -60s-27 -61 -62 -61h-127v-107c0 -39 -29 -69 -67 -69c-39 0 -68 30 -68 69v107h-126c-35 0 -62 26 -62 61c0 34 27 60 62 60h111l-173 280c-9 15 -13 28 -13 42c0 37 29 65 65 65c29 0 49 -13 65 -41
l139 -241l139 241c15 27 35 41 64 41c37 0 66 -29 66 -65z" />
    <glyph glyph-name="uni04B2" unicode="&#x4b2;" horiz-adv-x="623" 
d="M560 121c40 0 69 -30 69 -69v-136c0 -39 -28 -69 -67 -69c-38 0 -67 29 -67 69v73c-16 4 -32 13 -42 28l-146 207l-147 -207c-13 -18 -32 -29 -55 -29c-36 0 -66 30 -66 66c0 15 6 30 19 49l167 233l-153 221c-13 19 -19 36 -19 52c0 34 30 63 66 63c24 0 42 -10 56 -30
l132 -194l135 193c14 20 34 31 56 31c37 0 66 -29 66 -64c0 -17 -6 -34 -20 -54l-155 -218l152 -215h19z" />
    <glyph glyph-name="uni04B6" unicode="&#x4b6;" horiz-adv-x="682" 
d="M588 122c39 0 68 -30 68 -69v-137c0 -39 -29 -69 -67 -69c-39 0 -68 30 -68 69v84h-18c-40 0 -69 29 -69 69v154c-35 -10 -74 -16 -116 -16c-162 0 -280 93 -280 266v130c0 39 29 69 68 69c38 0 67 -30 67 -69v-117c0 -102 62 -155 150 -155c33 0 74 8 111 21v251
c0 39 28 69 67 69s68 -30 68 -69v-481h19z" />
    <glyph glyph-name="uni04BA" unicode="&#x4ba;" horiz-adv-x="646" 
d="M320 444c158 0 257 -104 257 -272v-115c0 -39 -29 -69 -67 -69c-39 0 -68 30 -68 69v110c0 104 -43 152 -136 152c-30 0 -63 -5 -95 -14v-248c0 -39 -29 -69 -68 -69c-38 0 -67 30 -67 69v546c0 39 28 69 67 69s68 -30 68 -69v-175c36 10 73 16 109 16z" />
    <glyph glyph-name="uni04C0" unicode="&#x4c0;" horiz-adv-x="285" 
d="M143 672c39 0 68 -30 68 -69v-546c0 -39 -29 -69 -68 -69c-38 0 -67 30 -67 69v546c0 39 28 69 67 69z" />
    <glyph glyph-name="uni04C1" unicode="&#x4c1;" horiz-adv-x="1014" 
d="M507 726c-87 0 -168 65 -168 137c0 30 22 52 52 52c21 0 36 -11 50 -38c14 -33 36 -49 66 -49s53 17 65 49c13 26 29 38 51 38c30 0 51 -22 51 -52c0 -72 -81 -137 -167 -137zM166 647l227 -252c13 -15 19 -30 19 -45c0 -19 -6 -33 -19 -47l-239 -284
c-17 -20 -36 -31 -57 -31c-34 0 -63 31 -63 65c0 13 4 26 15 39l218 257l-196 216c-12 14 -18 28 -18 44c0 35 28 63 61 63c21 0 36 -8 52 -25zM507 672c39 0 68 -30 68 -69v-546c0 -39 -29 -69 -68 -69c-38 0 -67 30 -67 69v546c0 39 29 69 67 69zM966 92
c10 -13 15 -26 15 -39c0 -34 -29 -65 -64 -65c-21 0 -40 11 -56 31l-240 284c-12 15 -19 31 -19 47s7 31 19 45l228 252c16 17 31 25 52 25c33 0 61 -28 61 -63c0 -16 -6 -30 -18 -44l-198 -215z" />
    <glyph glyph-name="uni04D0" unicode="&#x4d0;" horiz-adv-x="662" 
d="M331 726c-87 0 -168 65 -168 137c0 30 22 52 52 52c21 0 36 -11 50 -38c14 -33 36 -49 66 -49s53 17 65 49c13 26 29 38 51 38c30 0 51 -22 51 -52c0 -72 -81 -137 -167 -137zM620 89c6 -14 8 -26 8 -36c0 -36 -28 -65 -66 -65c-29 0 -51 17 -64 48l-28 68h-279l-28 -68
c-12 -31 -34 -48 -63 -48c-38 0 -67 29 -67 65c0 10 3 22 8 36l226 537c12 30 34 46 64 46s52 -16 64 -46zM331 473l-96 -258h190z" />
    <glyph glyph-name="uni04D6" unicode="&#x4d6;" horiz-adv-x="572" 
d="M287 726c-87 0 -168 65 -168 137c0 30 22 52 52 52c21 0 36 -11 50 -38c14 -33 36 -49 66 -49s53 17 65 49c13 26 29 38 51 38c30 0 51 -22 51 -52c0 -72 -81 -137 -167 -137zM142 0c-38 0 -67 29 -67 67v526c0 38 29 67 67 67h323c36 0 62 -26 62 -61
c0 -34 -27 -61 -62 -61h-255v-134h175c34 0 59 -25 59 -58c0 -32 -25 -57 -59 -57h-175v-167h267c36 0 62 -27 62 -61c0 -35 -27 -61 -62 -61h-335z" />
    <glyph glyph-name="uni04D8" unicode="&#x4d8;" horiz-adv-x="733" 
d="M352 672c192 0 342 -150 342 -341s-153 -343 -347 -343c-179 0 -309 128 -309 302c0 6 0 14 1 24c1 35 29 63 63 63h451c-18 102 -97 171 -201 171c-64 0 -123 -27 -165 -75c-17 -20 -33 -28 -53 -28c-34 0 -60 26 -60 61c0 15 6 30 21 47c69 79 154 119 257 119z
M349 113c98 0 173 59 198 148h-377c5 -87 77 -148 179 -148z" />
    <glyph glyph-name="uni04E2" unicode="&#x4e2;" horiz-adv-x="722" 
d="M240 757c-31 0 -55 23 -55 53s24 53 55 53h229c31 0 54 -23 54 -53s-23 -53 -54 -53h-229zM581 672c38 0 67 -30 67 -68v-547c0 -39 -29 -69 -68 -69c-38 0 -67 30 -67 69v366l-314 -406c-16 -20 -33 -29 -56 -29c-37 0 -67 30 -67 68v547c0 39 29 69 67 69
c39 0 68 -30 68 -69v-368l305 397c17 22 32 40 65 40z" />
    <glyph glyph-name="uni04E6" unicode="&#x4e6;" horiz-adv-x="778" 
d="M260 737c-41 0 -81 36 -81 77c0 45 40 78 81 78c44 0 81 -33 81 -78c0 -41 -37 -77 -81 -77zM518 736c-41 0 -81 36 -81 77c0 45 40 79 81 79c44 0 81 -34 81 -79c0 -41 -37 -77 -81 -77zM388 672c197 0 352 -151 352 -342s-155 -342 -352 -342s-350 150 -350 342
s154 342 350 342zM389 547c-124 0 -212 -90 -212 -217s88 -217 212 -217c123 0 212 91 212 217s-89 217 -212 217z" />
    <glyph glyph-name="uni04E8" unicode="&#x4e8;" horiz-adv-x="778" 
d="M388 672c197 0 352 -151 352 -342s-155 -342 -352 -342s-350 150 -350 342s154 342 350 342zM389 547c-98 0 -174 -56 -201 -143h402c-28 86 -104 143 -201 143zM389 113c109 0 192 72 209 176h-418c17 -105 99 -176 209 -176z" />
    <glyph glyph-name="uni04EE" unicode="&#x4ee;" horiz-adv-x="631" 
d="M196 757c-31 0 -55 23 -55 53s24 53 55 53h229c31 0 54 -23 54 -53s-23 -53 -54 -53h-229zM529 667c39 0 70 -32 70 -71c0 -11 -3 -22 -10 -37l-199 -425c-46 -99 -118 -146 -225 -146c-29 0 -51 4 -69 12c-23 12 -35 30 -35 54c0 35 26 60 64 60c4 0 11 -1 18 -1
c59 0 92 19 114 61l-203 385c-6 12 -10 26 -10 38c0 39 32 70 70 70c27 0 50 -15 65 -43l152 -304l133 304c11 26 36 43 65 43z" />
    <glyph glyph-name="uni04F2" unicode="&#x4f2;" horiz-adv-x="631" 
d="M212 719c-49 1 -68 55 -51 88l52 100c15 29 43 36 62 35c53 -1 84 -64 51 -107l-64 -90c-17 -22 -39 -26 -50 -26zM427 719c-49 1 -68 55 -51 88l52 100c15 29 43 36 62 35c53 -1 84 -64 51 -107l-64 -90c-17 -22 -39 -26 -50 -26zM529 667c39 0 70 -32 70 -71
c0 -11 -3 -22 -10 -37l-199 -425c-46 -99 -118 -146 -225 -146c-29 0 -51 4 -69 12c-23 12 -35 30 -35 54c0 35 26 60 64 60c4 0 11 -1 18 -1c59 0 92 19 114 61l-203 385c-6 12 -10 26 -10 38c0 39 32 70 70 70c27 0 50 -15 65 -43l152 -304l133 304c11 26 36 43 65 43z
" />
    <glyph glyph-name="uni0414.loclBGR" horiz-adv-x="770" 
d="M678 122c40 0 69 -30 69 -69v-125c0 -40 -29 -69 -68 -69c-38 0 -67 29 -67 69v72h-454v-72c0 -40 -29 -69 -68 -69c-38 0 -67 29 -67 69v125c0 39 29 69 69 69h21l207 504c13 30 35 46 65 46s52 -16 64 -46l207 -504h22zM385 471l-129 -349h258z" />
    <glyph glyph-name="uni041B.loclBGR" horiz-adv-x="674" 
d="M632 89c6 -13 8 -25 8 -36c0 -36 -28 -65 -66 -65c-29 0 -51 17 -64 48l-173 410l-174 -410c-13 -31 -34 -48 -63 -48c-38 0 -67 29 -67 65c0 11 3 23 8 36l231 537c13 31 35 46 65 46c29 0 51 -15 64 -46z" />
    <glyph glyph-name="uni0410.ordn" horiz-adv-x="429" 
d="M408 313c4 -9 5 -16 5 -24c0 -29 -23 -53 -53 -53c-23 0 -41 13 -49 35l-14 36h-165l-14 -36c-8 -22 -26 -35 -49 -35c-29 0 -53 24 -53 53c0 8 1 15 6 24l143 321c10 22 27 34 50 34c22 0 40 -12 50 -35zM215 525l-53 -141h105z" />
    <glyph glyph-name="uni0413.ordn" horiz-adv-x="349" 
d="M293 660c27 0 48 -20 48 -47s-21 -47 -48 -47h-133v-276c0 -31 -21 -54 -51 -54c-31 0 -53 23 -53 54v315c0 32 23 55 55 55h182z" />
    <glyph glyph-name="uni0415.ordn" horiz-adv-x="380" 
d="M301 660c27 0 48 -20 48 -47s-21 -47 -48 -47h-141v-65h103c24 0 42 -18 42 -41s-18 -40 -42 -40h-103v-83h149c27 0 48 -19 48 -46s-21 -47 -48 -47h-198c-32 0 -55 23 -55 54v308c0 31 23 54 55 54h190z" />
    <glyph glyph-name="uni0419.ordn" horiz-adv-x="486" 
d="M236 700c-57 0 -115 43 -115 85c0 21 17 38 38 38c14 0 24 -6 32 -18c13 -19 28 -29 45 -28c17 -1 32 9 44 28c8 12 19 18 32 18c21 0 38 -17 38 -38c0 -43 -56 -85 -114 -85zM378 668c29 0 51 -23 51 -53v-326c0 -29 -22 -53 -52 -53s-52 23 -52 53v188l-171 -215
c-14 -18 -29 -26 -46 -26c-29 0 -52 23 -52 53v326c0 30 23 53 53 53c29 0 51 -23 51 -53v-192l172 219c15 18 28 26 46 26z" />
    <glyph glyph-name="uni041C.ordn" horiz-adv-x="531" 
d="M424 668c29 0 51 -23 51 -52v-328c0 -30 -21 -52 -51 -52c-31 0 -53 23 -53 52v164l-66 -98c-10 -14 -24 -21 -39 -21c-16 0 -30 8 -40 21l-66 98v-164c0 -29 -22 -52 -52 -52s-52 22 -52 52v328c0 29 23 52 52 52c18 0 33 -9 45 -27l113 -168l111 166c13 20 29 29 47 29
z" />
    <glyph glyph-name="uni041E.ordn" horiz-adv-x="504" 
d="M251 668c125 0 224 -95 224 -216s-98 -216 -224 -216c-125 0 -222 95 -222 216s98 216 222 216zM252 572c-69 0 -117 -49 -117 -120s47 -120 117 -120c69 0 118 50 118 120c0 69 -50 120 -118 120z" />
    <glyph glyph-name="uni0423.ordn" horiz-adv-x="417" 
d="M332 668c29 0 53 -24 53 -52c0 -9 -3 -17 -8 -29l-107 -248c-29 -69 -81 -103 -155 -103c-22 0 -40 3 -52 9c-15 8 -25 22 -25 41c0 28 20 47 48 47c4 0 8 -1 11 -1c31 0 51 8 64 26l-116 229c-6 13 -8 21 -8 29c0 28 23 52 52 52c21 0 38 -12 50 -37l78 -162l65 161
c11 26 27 38 50 38z" />
    <glyph glyph-name="uni0425.ordn" horiz-adv-x="388" 
d="M258 452l94 -126c10 -13 15 -24 15 -38c0 -28 -23 -52 -52 -52c-18 0 -32 8 -45 27l-77 111l-78 -111c-13 -19 -27 -27 -45 -27c-29 0 -52 24 -52 52c0 14 5 25 15 38l99 133l-88 119c-9 12 -15 24 -15 38c0 28 23 52 52 52c18 0 33 -8 44 -25l73 -106l71 104
c12 18 27 27 45 27c30 0 53 -24 53 -52c0 -14 -6 -26 -16 -38z" />
    <glyph glyph-name="uni042B.ordn" horiz-adv-x="605" 
d="M109 668c29 0 51 -23 51 -54v-324c0 -31 -22 -54 -51 -54c-31 0 -53 23 -53 54v324c0 31 22 54 53 54zM297 668c30 0 52 -23 52 -54v-86h69c93 0 158 -59 158 -143s-64 -141 -158 -141h-118c-32 0 -55 23 -55 55v315c0 31 22 54 52 54zM419 437h-70v-102h70
c32 0 52 20 52 51s-20 51 -52 51z" />
    <glyph glyph-name="uni042E.ordn" horiz-adv-x="684" 
d="M432 668c124 0 223 -96 223 -216c0 -121 -99 -216 -223 -216c-110 0 -198 75 -216 177h-56v-123c0 -31 -22 -54 -51 -54c-31 0 -53 23 -53 54v324c0 30 22 53 53 53c29 0 51 -22 51 -53v-107h60c23 94 107 161 212 161zM432 332c68 0 118 50 118 120s-50 120 -118 120
s-117 -50 -117 -120s48 -120 117 -120z" />
    <glyph glyph-name="uni042F.ordn" horiz-adv-x="425" 
d="M316 660c30 0 53 -23 53 -53v-318c0 -30 -22 -53 -52 -53s-52 22 -52 53v68h-47h-13l-78 -100c-11 -13 -25 -21 -41 -21c-30 0 -53 22 -53 50c0 13 5 25 14 35l58 72c-35 27 -56 67 -56 116c0 89 70 151 169 151h98zM265 447v122h-48c-37 0 -63 -24 -63 -60
c0 -37 26 -62 63 -62h48z" />
    <glyph glyph-name="uni0409.ss01" horiz-adv-x="960" 
d="M680 433c143 0 241 -89 241 -216c0 -130 -97 -217 -241 -217h-129c-36 0 -61 20 -77 62l-147 378l-164 -404c-12 -31 -34 -48 -63 -48c-38 0 -67 29 -67 65c0 12 3 23 8 36l219 532c15 35 37 51 67 51s52 -16 64 -46l78 -193h211zM680 119c63 0 103 38 103 97
c0 60 -40 99 -103 99h-164l79 -196h85z" />
    <glyph glyph-name="uni0430" unicode="&#x430;" horiz-adv-x="545" 
d="M268 506c136 0 214 -77 214 -212v-238c0 -39 -28 -67 -65 -67c-33 0 -59 22 -65 52c-36 -34 -86 -53 -145 -53c-102 0 -171 60 -171 148c0 89 71 144 187 144h124v22c0 55 -33 87 -93 87c-35 0 -66 -12 -95 -37c-16 -12 -27 -16 -40 -16c-33 0 -58 25 -58 55
c0 19 10 37 28 54c42 39 107 61 179 61zM243 87c59 0 104 42 104 98v6h-106c-45 0 -69 -17 -69 -50s27 -54 71 -54z" />
    <glyph glyph-name="uni0431" unicode="&#x431;" horiz-adv-x="615" 
d="M343 482c130 0 234 -110 234 -246c0 -141 -111 -247 -260 -247c-159 0 -263 115 -263 292v46c0 227 87 343 300 398l85 22c23 6 30 8 39 8c32 0 58 -27 58 -60c0 -30 -20 -52 -55 -61l-91 -24c-128 -33 -187 -91 -195 -192c38 41 89 64 148 64zM315 112
c70 0 124 55 124 124s-54 123 -124 123c-69 0 -123 -54 -123 -123s55 -124 123 -124z" />
    <glyph glyph-name="uni0432" unicode="&#x432;" horiz-adv-x="555" 
d="M442 264c48 -23 74 -63 74 -114c0 -88 -73 -150 -176 -150h-199c-40 0 -69 29 -69 69v357c0 39 29 69 69 69h165c106 0 176 -55 176 -138c0 -37 -14 -69 -40 -93zM201 387v-84h102c34 0 54 15 54 43c0 27 -18 41 -54 41h-102zM329 109c39 0 63 20 63 51
c0 30 -24 48 -63 48h-128v-99h128z" />
    <glyph glyph-name="uni0433" unicode="&#x433;" horiz-adv-x="455" 
d="M140 -12c-39 0 -68 30 -68 69v369c0 39 29 69 69 69h249c33 0 58 -24 58 -57s-25 -57 -58 -57h-183v-324c0 -39 -29 -69 -67 -69z" />
    <glyph glyph-name="uni0453" unicode="&#x453;" horiz-adv-x="455" 
d="M265 562c-38 2 -60 32 -58 63c0 10 4 21 8 30l47 107c11 25 38 39 62 39c39 0 67 -32 67 -68c0 -12 -3 -24 -11 -37l-62 -103c-12 -19 -32 -32 -53 -31zM140 -12c-39 0 -68 30 -68 69v369c0 39 29 69 69 69h249c33 0 58 -24 58 -57s-25 -57 -58 -57h-183v-324
c0 -39 -29 -69 -67 -69z" />
    <glyph glyph-name="uni0491" unicode="&#x491;" horiz-adv-x="470" 
d="M388 636c38 0 67 -30 67 -69v-118c0 -39 -29 -68 -69 -68h-179v-324c0 -39 -29 -69 -67 -69c-39 0 -68 30 -68 69v369c0 39 29 69 69 69h179v72c0 39 29 69 68 69z" />
    <glyph glyph-name="uni0434" unicode="&#x434;" horiz-adv-x="665" 
d="M569 114c39 0 68 -29 68 -68v-130c0 -40 -29 -69 -67 -69s-67 30 -67 69v84h-340v-84c0 -40 -29 -69 -67 -69c-39 0 -68 30 -68 69v130c0 39 29 68 69 68h5c59 68 82 158 82 315v1c0 38 30 65 68 65h229c39 0 68 -30 68 -69v-312h20zM318 381c-1 -126 -24 -211 -74 -267
h171v267h-97z" />
    <glyph glyph-name="uni0435" unicode="&#x435;" horiz-adv-x="569" 
d="M296 506c135 0 235 -98 235 -232v-3c0 -42 -30 -69 -74 -69h-282c16 -62 66 -98 139 -98c36 0 73 10 103 29c10 6 19 9 29 9c31 0 55 -23 55 -54c0 -22 -10 -38 -34 -54c-45 -30 -99 -46 -157 -46c-156 0 -271 111 -271 259c0 147 111 259 257 259zM293 397
c-59 0 -103 -39 -118 -100h225c-2 59 -44 100 -107 100z" />
    <glyph glyph-name="uni0450" unicode="&#x450;" horiz-adv-x="569" 
d="M226 593l-62 103c-8 13 -11 25 -11 37c0 36 28 68 67 68c24 0 51 -14 62 -39l47 -107c4 -9 8 -20 8 -30c2 -31 -20 -61 -58 -63c-21 -1 -41 12 -53 31zM296 506c135 0 235 -98 235 -232v-3c0 -42 -30 -69 -74 -69h-282c16 -62 66 -98 139 -98c36 0 73 10 103 29
c10 6 19 9 29 9c31 0 55 -23 55 -54c0 -22 -10 -38 -34 -54c-45 -30 -99 -46 -157 -46c-156 0 -271 111 -271 259c0 147 111 259 257 259zM293 397c-59 0 -103 -39 -118 -100h225c-2 59 -44 100 -107 100z" />
    <glyph glyph-name="uni0451" unicode="&#x451;" horiz-adv-x="569" 
d="M179 598c-43 0 -81 37 -81 77c0 44 37 79 81 79c45 0 81 -34 81 -79c0 -42 -37 -77 -81 -77zM416 598c-42 0 -80 37 -80 77c0 44 36 79 80 79c46 0 81 -34 81 -79c0 -42 -36 -77 -81 -77zM296 506c135 0 235 -98 235 -232v-3c0 -42 -30 -69 -74 -69h-282
c16 -62 66 -98 139 -98c36 0 73 10 103 29c10 6 19 9 29 9c31 0 55 -23 55 -54c0 -22 -10 -38 -34 -54c-45 -30 -99 -46 -157 -46c-156 0 -271 111 -271 259c0 147 111 259 257 259zM293 397c-59 0 -103 -39 -118 -100h225c-2 59 -44 100 -107 100z" />
    <glyph glyph-name="uni0436" unicode="&#x436;" horiz-adv-x="845" 
d="M163 483l147 -167c16 -19 23 -33 23 -49c0 -14 -5 -27 -20 -48l-160 -207c-11 -17 -27 -24 -48 -24c-35 0 -62 27 -62 62c0 13 4 26 15 41l135 177l-120 131c-14 15 -20 30 -20 47c0 34 26 59 61 60c19 1 35 -6 49 -23zM786 91c10 -16 15 -28 15 -41
c0 -35 -27 -62 -62 -62c-21 0 -36 8 -48 24l-160 207c-15 21 -20 34 -20 48c0 16 7 30 23 49l147 167c14 17 30 24 49 23c35 -1 61 -26 61 -60c0 -17 -7 -32 -20 -47l-121 -131zM423 506c38 0 67 -29 67 -68v-381c0 -40 -29 -69 -67 -69c-39 0 -68 30 -68 69v381
c0 39 29 68 68 68z" />
    <glyph glyph-name="uni0437" unicode="&#x437;" horiz-adv-x="508" 
d="M393 255c44 -26 70 -69 70 -118c0 -90 -87 -149 -218 -149c-69 0 -132 20 -171 53c-20 15 -29 31 -29 50c0 32 25 57 58 57c12 0 22 -3 35 -12c26 -21 64 -32 107 -32c56 0 86 19 86 52c0 31 -26 48 -72 48h-48c-29 0 -51 22 -51 50c0 29 22 50 51 50h43
c36 0 57 16 57 43c0 29 -24 43 -73 43c-40 0 -70 -8 -98 -27c-13 -9 -23 -13 -36 -13c-32 0 -58 26 -58 58c0 19 9 35 31 51c37 29 96 47 163 47c124 0 203 -56 203 -145c0 -43 -18 -79 -50 -106z" />
    <glyph glyph-name="uni0438" unicode="&#x438;" horiz-adv-x="609" 
d="M470 506c38 0 67 -29 67 -68v-381c0 -39 -29 -69 -67 -69s-67 30 -67 69v217l-204 -253c-19 -23 -37 -33 -60 -33c-38 0 -67 30 -67 69v381c0 39 29 68 68 68c38 0 67 -29 67 -68v-220l203 255c19 23 37 33 60 33z" />
    <glyph glyph-name="uni0439" unicode="&#x439;" horiz-adv-x="609" 
d="M309 573c-92 0 -171 68 -171 145c0 31 23 55 52 55c27 0 44 -13 52 -41c8 -35 33 -57 67 -57c33 0 58 22 66 57c8 27 26 41 51 41c30 0 53 -24 53 -55c0 -78 -77 -145 -170 -145zM470 506c38 0 67 -29 67 -68v-381c0 -39 -29 -69 -67 -69s-67 30 -67 69v217l-204 -253
c-19 -23 -37 -33 -60 -33c-38 0 -67 30 -67 69v381c0 39 29 68 68 68c38 0 67 -29 67 -68v-220l203 255c19 23 37 33 60 33z" />
    <glyph glyph-name="uni045D" unicode="&#x45d;" horiz-adv-x="609" 
d="M237 593l-62 103c-8 13 -11 25 -11 37c0 36 28 68 67 68c24 0 51 -14 62 -39l47 -107c4 -9 8 -20 8 -30c2 -31 -20 -61 -58 -63c-21 -1 -41 12 -53 31zM470 506c38 0 67 -29 67 -68v-381c0 -39 -29 -69 -67 -69s-67 30 -67 69v217l-204 -253c-19 -23 -37 -33 -60 -33
c-38 0 -67 30 -67 69v381c0 39 29 68 68 68c38 0 67 -29 67 -68v-220l203 255c19 23 37 33 60 33z" />
    <glyph glyph-name="uni043A" unicode="&#x43a;" horiz-adv-x="564" 
d="M511 92c11 -14 16 -27 16 -42c0 -34 -27 -62 -62 -62c-20 0 -36 7 -47 22l-169 209c-14 18 -20 33 -20 48c0 16 7 31 24 50l157 169c12 13 28 21 46 20c35 -1 62 -27 62 -61c0 -16 -7 -33 -20 -46l-126 -133zM140 506c39 0 67 -29 67 -68v-381c0 -39 -29 -69 -67 -69
c-39 0 -68 30 -68 69v381c0 39 29 68 68 68z" />
    <glyph glyph-name="uni045C" unicode="&#x45c;" horiz-adv-x="564" 
d="M311 562c-38 2 -60 32 -58 63c0 10 4 21 8 30l47 107c11 25 38 39 62 39c39 0 67 -32 67 -68c0 -12 -3 -24 -11 -37l-62 -103c-12 -19 -32 -32 -53 -31zM511 92c11 -14 16 -27 16 -42c0 -34 -27 -62 -62 -62c-20 0 -36 7 -47 22l-169 209c-14 18 -20 33 -20 48
c0 16 7 31 24 50l157 169c12 13 28 21 46 20c35 -1 62 -27 62 -61c0 -16 -7 -33 -20 -46l-126 -133zM140 506c39 0 67 -29 67 -68v-381c0 -39 -29 -69 -67 -69c-39 0 -68 30 -68 69v381c0 39 29 68 68 68z" />
    <glyph glyph-name="uni043B" unicode="&#x43b;" horiz-adv-x="591" 
d="M450 495c39 0 69 -30 69 -69v-369c0 -39 -29 -69 -67 -69s-67 30 -67 69v324h-124v-45c0 -178 -54 -288 -166 -335c-15 -6 -27 -8 -38 -8c-34 0 -61 27 -61 60c0 32 18 43 41 57c53 28 90 91 90 267v49c0 39 30 69 69 69h254z" />
    <glyph glyph-name="uni043C" unicode="&#x43c;" horiz-adv-x="698" 
d="M140 -12c-39 0 -68 30 -68 69v381c0 38 29 68 68 68c23 0 42 -12 55 -28l154 -202l154 202c13 16 32 28 55 28c39 0 68 -30 68 -68v-381c0 -39 -29 -69 -68 -69c-38 0 -67 30 -67 69v195l-101 -128c-10 -11 -25 -17 -41 -17s-31 6 -41 17l-101 128v-195
c0 -39 -29 -69 -67 -69z" />
    <glyph glyph-name="uni043D" unicode="&#x43d;" horiz-adv-x="600" 
d="M461 506c38 0 67 -29 67 -68v-381c0 -39 -29 -68 -67 -68s-67 29 -67 68v142h-187v-142c0 -39 -29 -68 -67 -68c-39 0 -68 29 -68 68v381c0 39 29 68 68 68c38 0 67 -29 67 -68v-124h187v124c0 39 28 68 67 68z" />
    <glyph glyph-name="uni043E" unicode="&#x43e;" horiz-adv-x="608" 
d="M304 506c148 0 266 -114 266 -258s-118 -259 -267 -259c-148 0 -264 114 -264 259s116 258 265 258zM304 383c-74 0 -128 -57 -128 -136c0 -78 54 -134 128 -134c73 0 128 57 128 134c0 78 -55 136 -128 136z" />
    <glyph glyph-name="uni043F" unicode="&#x43f;" horiz-adv-x="593" 
d="M139 -12c-38 0 -67 29 -67 68v371c0 39 29 68 68 68h313c39 0 68 -29 68 -68v-371c0 -39 -29 -68 -68 -68c-38 0 -67 29 -67 68v325h-179v-325c0 -39 -29 -68 -68 -68z" />
    <glyph glyph-name="uni0440" unicode="&#x440;" horiz-adv-x="634" 
d="M355 506c139 0 240 -108 240 -258s-101 -260 -240 -260c-62 0 -114 22 -148 60v-172c0 -39 -29 -68 -67 -68c-39 0 -68 29 -68 68v564c0 38 29 67 67 67c36 0 63 -27 65 -64c34 40 87 63 151 63zM330 111c74 0 128 57 128 136c0 80 -53 137 -128 137s-125 -55 -125 -136
s51 -137 125 -137z" />
    <glyph glyph-name="uni0441" unicode="&#x441;" horiz-adv-x="552" 
d="M304 -12c-149 0 -265 115 -265 260s116 258 265 258c84 0 162 -40 200 -98c9 -14 12 -25 12 -36c0 -33 -27 -60 -60 -60c-19 0 -34 6 -46 21c-25 30 -60 50 -104 50c-76 0 -130 -56 -130 -135c0 -80 54 -136 130 -136c43 0 77 20 104 50c14 16 28 21 46 21
c33 0 60 -27 60 -60c0 -12 -3 -22 -11 -34c-41 -63 -113 -101 -201 -101z" />
    <glyph glyph-name="uni0442" unicode="&#x442;" horiz-adv-x="469" 
d="M234 -12c-38 0 -67 30 -67 69v325h-106c-33 0 -58 24 -58 57c0 32 25 57 58 57h347c34 0 58 -25 58 -57c0 -33 -24 -57 -58 -57h-107v-325c0 -39 -28 -69 -67 -69z" />
    <glyph glyph-name="uni0443" unicode="&#x443;" horiz-adv-x="559" 
d="M473 506c35 0 65 -30 65 -65c0 -10 -2 -20 -8 -31l-218 -447c-53 -109 -113 -155 -203 -155c-22 0 -42 4 -57 11c-21 9 -34 30 -34 53c0 33 27 58 61 58c5 0 9 -1 12 -1c43 0 72 18 94 63l18 40l-171 377c-6 12 -9 22 -9 32c0 35 30 65 66 65c26 0 49 -14 59 -38
l131 -293l134 293c10 23 33 38 60 38z" />
    <glyph glyph-name="uni045E" unicode="&#x45e;" horiz-adv-x="559" 
d="M278 573c-92 0 -171 68 -171 145c0 31 23 55 52 55c27 0 44 -13 52 -41c8 -35 33 -57 67 -57c33 0 58 22 66 57c8 27 26 41 51 41c30 0 53 -24 53 -55c0 -78 -77 -145 -170 -145zM473 506c35 0 65 -30 65 -65c0 -10 -2 -20 -8 -31l-218 -447
c-53 -109 -113 -155 -203 -155c-22 0 -42 4 -57 11c-21 9 -34 30 -34 53c0 33 27 58 61 58c5 0 9 -1 12 -1c43 0 72 18 94 63l18 40l-171 377c-6 12 -9 22 -9 32c0 35 30 65 66 65c26 0 49 -14 59 -38l131 -293l134 293c10 23 33 38 60 38z" />
    <glyph glyph-name="uni0444" unicode="&#x444;" horiz-adv-x="786" 
d="M747 248c0 -154 -115 -258 -287 -260v-111c0 -40 -29 -69 -67 -69c-39 0 -68 30 -68 69v111c-171 2 -286 106 -286 260s115 256 286 258v187c0 39 29 69 68 69c38 0 67 -29 67 -69v-187c173 -2 287 -104 287 -258zM171 247c0 -90 59 -144 156 -144h2v288h-2
c-97 0 -156 -54 -156 -144zM458 103c98 0 157 54 157 144c0 89 -59 144 -157 144h-2v-288h2z" />
    <glyph glyph-name="uni0445" unicode="&#x445;" horiz-adv-x="531" 
d="M471 103c14 -18 20 -34 20 -50c0 -36 -28 -65 -65 -65c-22 0 -40 11 -56 30l-105 134l-105 -134c-15 -19 -34 -30 -55 -30c-37 0 -66 29 -66 65c0 16 7 32 21 50l120 149l-108 139c-16 22 -22 35 -22 50c0 36 29 65 66 65c21 0 40 -10 54 -29l96 -124l98 124
c16 20 34 29 55 29c36 0 65 -29 65 -65c0 -15 -6 -31 -22 -50l-110 -138z" />
    <glyph glyph-name="uni0447" unicode="&#x447;" horiz-adv-x="566" 
d="M427 506c38 0 67 -29 67 -68v-381c0 -40 -29 -69 -67 -69c-39 0 -68 30 -68 69v112c-25 -8 -55 -13 -87 -13c-140 0 -233 93 -233 233v49c0 39 28 68 67 68c38 0 67 -29 67 -68v-40c0 -76 39 -118 110 -118c24 0 51 4 76 12v146c0 39 29 68 68 68z" />
    <glyph glyph-name="uni0446" unicode="&#x446;" horiz-adv-x="624" 
d="M442 506c39 0 67 -29 67 -68v-324h19c39 0 68 -29 68 -68v-130c0 -39 -28 -69 -67 -69c-38 0 -67 30 -67 69v84h-321c-40 0 -69 29 -69 69v369c0 39 29 68 68 68c38 0 66 -29 66 -68v-324h169v324c0 39 28 68 67 68z" />
    <glyph glyph-name="uni0448" unicode="&#x448;" horiz-adv-x="881" 
d="M141 0c-40 0 -69 29 -69 69v369c0 39 29 68 68 68c38 0 66 -29 66 -68v-324h167v324c0 39 29 68 68 68c38 0 66 -29 66 -68v-324h167v324c0 39 29 68 68 68s66 -29 66 -68v-369c0 -40 -29 -69 -68 -69h-599z" />
    <glyph glyph-name="uni0449" unicode="&#x449;" horiz-adv-x="924" 
d="M829 -153c-39 0 -68 30 -68 69v84h-620c-40 0 -69 29 -69 69v369c0 39 29 68 68 68c38 0 66 -29 66 -68v-324h167v324c0 39 29 68 68 68c38 0 66 -29 66 -68v-324h167v324c0 39 29 68 68 68s66 -29 66 -68v-324h19c39 0 69 -29 69 -68v-130c0 -39 -28 -69 -67 -69z" />
    <glyph glyph-name="uni045F" unicode="&#x45f;" horiz-adv-x="582" 
d="M443 506c39 0 67 -29 67 -68v-369c0 -40 -29 -69 -69 -69h-83v-84c0 -39 -28 -69 -67 -69c-38 0 -67 30 -67 69v84h-83c-40 0 -69 29 -69 69v369c0 39 29 68 68 68c38 0 66 -29 66 -68v-324h170v324c0 39 28 68 67 68z" />
    <glyph glyph-name="uni044C" unicode="&#x44c;" horiz-adv-x="553" 
d="M140 506c38 0 67 -29 67 -68v-69h97c119 0 208 -68 208 -184c0 -117 -89 -185 -208 -185h-163c-40 0 -69 29 -69 69v369c0 39 28 68 68 68zM294 254h-87v-140h88c46 0 80 24 80 69s-34 71 -81 71z" />
    <glyph glyph-name="uni044A" unicode="&#x44a;" horiz-adv-x="582" 
d="M170 0c-39 0 -69 29 -69 69v312h-51c-33 0 -58 24 -58 57s25 57 58 57h117c39 0 69 -30 69 -69v-57h98c125 0 207 -74 207 -184c0 -112 -82 -185 -207 -185h-164zM236 114h87c50 0 81 27 81 69s-32 71 -81 71h-87v-140z" />
    <glyph glyph-name="uni044B" unicode="&#x44b;" horiz-adv-x="816" 
d="M140 506c38 0 67 -29 67 -68v-69h97c119 0 208 -68 208 -184c0 -117 -89 -185 -208 -185h-163c-40 0 -69 29 -69 69v369c0 39 28 68 68 68zM667 -12c-38 0 -67 30 -67 69v381c0 39 29 68 68 68c38 0 67 -29 67 -68v-381c0 -39 -29 -69 -68 -69zM294 254h-87v-140h88
c46 0 80 24 80 69s-34 71 -81 71z" />
    <glyph glyph-name="uni0459" unicode="&#x459;" horiz-adv-x="865" 
d="M616 369c125 0 209 -74 209 -184c0 -111 -83 -185 -209 -185h-162c-40 0 -69 29 -69 69v312h-124v-45c0 -178 -55 -288 -166 -335c-15 -6 -27 -8 -38 -8c-34 0 -61 27 -61 60c0 26 13 44 41 58c67 31 90 103 90 285v30c0 39 30 69 69 69h254c39 0 69 -30 69 -69v-57h97z
M607 114c49 0 80 27 80 69s-33 71 -80 71h-88v-140h88z" />
    <glyph glyph-name="uni045A" unicode="&#x45a;" horiz-adv-x="868" 
d="M619 361c126 0 209 -71 209 -180c0 -110 -82 -181 -209 -181h-163c-40 0 -69 29 -69 69v135h-180v-147c0 -40 -29 -69 -67 -69c-39 0 -68 30 -68 69v381c0 39 29 68 68 68c38 0 67 -29 67 -68v-120h180v120c0 39 28 68 68 68c38 0 67 -29 67 -68v-77h97zM610 114
c50 0 81 25 81 65c0 41 -33 68 -81 68h-88v-133h88z" />
    <glyph glyph-name="uni0455" unicode="&#x455;" horiz-adv-x="455" 
d="M227 -12c-74 0 -138 28 -182 71c-13 11 -19 26 -19 42c0 31 25 57 56 57c13 0 25 -4 39 -15c29 -25 65 -44 108 -44c34 0 63 13 63 41c0 23 -21 32 -51 45l-53 22c-84 34 -135 73 -135 151c0 95 77 149 182 149c59 0 116 -19 156 -53c16 -12 24 -28 24 -46
c0 -31 -25 -56 -55 -56c-12 0 -24 6 -36 14c-26 18 -57 30 -90 30c-32 0 -53 -11 -53 -35c0 -20 16 -30 52 -44l48 -20c89 -36 139 -74 139 -151c0 -102 -85 -158 -193 -158z" />
    <glyph glyph-name="uni0454" unicode="&#x454;" horiz-adv-x="558" 
d="M461 180c32 0 57 -24 57 -57c0 -10 -2 -21 -11 -34c-38 -59 -106 -101 -201 -101c-148 0 -266 113 -266 260c0 146 118 258 266 258c95 0 163 -42 201 -100c9 -14 11 -24 11 -34c0 -33 -25 -57 -57 -57c-14 0 -26 4 -37 15c-29 28 -59 58 -116 58
c-59 0 -108 -38 -126 -90h142c28 0 49 -20 49 -47c0 -28 -21 -48 -49 -48l-144 -1c18 -55 67 -95 128 -95c57 0 87 30 116 57c11 11 23 16 37 16z" />
    <glyph glyph-name="uni044D" unicode="&#x44d;" horiz-adv-x="558" 
d="M252 506c148 0 266 -112 266 -258c0 -147 -118 -260 -266 -260c-95 0 -163 42 -201 101c-9 13 -11 24 -11 34c0 33 25 57 57 57c14 0 26 -5 37 -16c29 -27 59 -57 116 -57c61 0 110 40 128 95l-144 1c-28 0 -49 20 -49 48c0 27 21 47 49 47h142c-18 52 -67 90 -126 90
c-57 0 -87 -30 -116 -58c-11 -11 -23 -15 -37 -15c-32 0 -57 24 -57 57c0 10 2 20 11 34c38 58 106 100 201 100z" />
    <glyph glyph-name="uni0456" unicode="&#x456;" horiz-adv-x="278" 
d="M139 757c45 0 84 -36 84 -82c0 -45 -39 -81 -84 -81c-47 0 -85 36 -85 81c0 46 38 82 85 82zM138 -12c-38 0 -67 30 -67 69v381c0 39 29 68 68 68c38 0 67 -29 67 -68v-381c0 -39 -29 -69 -68 -69z" />
    <glyph glyph-name="uni0457" unicode="&#x457;" horiz-adv-x="278" 
d="M24 749c44 0 81 -34 81 -79c0 -41 -37 -77 -81 -77c-41 0 -81 36 -81 77c0 45 40 79 81 79zM254 749c44 0 81 -34 81 -79c0 -41 -37 -77 -81 -77c-41 0 -80 36 -80 77c0 45 39 79 80 79zM139 -12c-38 0 -67 30 -67 69v381c0 39 29 68 68 68c38 0 67 -29 67 -68v-381
c0 -39 -29 -69 -68 -69z" />
    <glyph glyph-name="uni0458" unicode="&#x458;" horiz-adv-x="278" 
d="M139 757c45 0 84 -36 84 -82c0 -45 -39 -81 -84 -81c-47 0 -85 36 -85 81c0 46 38 82 85 82zM21 -192c-23 0 -40 4 -55 9c-25 10 -41 29 -41 55c0 33 24 58 57 58c5 0 8 -1 13 -1c50 0 76 19 76 89v420c0 39 29 68 68 68c38 0 67 -29 67 -68v-444
c0 -122 -72 -186 -185 -186z" />
    <glyph glyph-name="uni045B" unicode="&#x45b;" horiz-adv-x="598" 
d="M345 477c112 0 185 -79 185 -199v-221c0 -40 -29 -69 -67 -69c-39 0 -68 30 -68 69v202c0 57 -37 96 -91 96c-56 0 -95 -39 -95 -96v-202c0 -39 -29 -69 -67 -69s-67 30 -67 69v495h-30c-32 0 -57 23 -57 55s25 56 57 56h30v30c0 40 28 69 67 69c38 0 67 -30 67 -69v-30
h142c32 0 56 -24 56 -56s-24 -55 -56 -55h-142v-129c34 34 81 54 136 54z" />
    <glyph glyph-name="uni044E" unicode="&#x44e;" horiz-adv-x="864" 
d="M559 506c148 0 267 -114 267 -258c0 -145 -119 -260 -267 -260c-129 0 -233 89 -255 211h-97v-142c0 -40 -29 -69 -67 -69c-39 0 -68 30 -68 69v381c0 39 28 68 68 68c38 0 67 -29 67 -68v-124h101c29 112 129 192 251 192zM560 112c73 0 128 58 128 136
c0 77 -55 135 -128 135c-74 0 -128 -58 -128 -136c0 -77 54 -135 128 -135z" />
    <glyph glyph-name="uni044F" unicode="&#x44f;" horiz-adv-x="577" 
d="M436 495c40 0 69 -30 69 -69v-369c0 -39 -29 -69 -67 -69c-39 0 -68 30 -68 69v69h-97h-17l-94 -113c-15 -18 -34 -25 -52 -25c-37 0 -67 31 -67 68c0 19 11 35 24 49l60 67c-39 33 -62 80 -62 138c0 111 83 185 208 185h163zM370 240v141h-87c-50 0 -81 -27 -81 -69
c0 -43 32 -72 81 -72h87z" />
    <glyph glyph-name="uni0452" unicode="&#x452;" horiz-adv-x="598" 
d="M345 477c113 0 185 -81 185 -199v-284c0 -120 -76 -186 -191 -186c-14 0 -22 1 -31 2c-37 4 -62 28 -62 61c0 32 26 59 58 59c5 0 8 -1 14 -1c46 0 77 23 77 77v253c0 57 -36 96 -91 96c-56 0 -95 -40 -95 -96v-202c0 -39 -29 -69 -67 -69s-67 30 -67 69v495h-30
c-32 0 -57 23 -57 55s25 56 57 56h30v30c0 39 28 69 67 69c38 0 67 -30 67 -69v-30h142c32 0 56 -24 56 -56s-24 -55 -56 -55h-142v-129c34 34 81 54 136 54z" />
    <glyph glyph-name="uni0463" unicode="&#x463;" horiz-adv-x="556" 
d="M143 0c-39 0 -68 29 -68 69v339h-30c-32 0 -57 23 -57 55s25 56 57 56h30v170c0 39 28 68 67 68c38 0 67 -29 67 -68v-170h150c32 0 56 -24 56 -56s-24 -55 -56 -55h-150v-60h98c124 0 208 -69 208 -171c0 -105 -84 -177 -208 -177h-164zM209 114h88c51 0 81 23 81 63
s-30 63 -81 63h-88v-126z" />
    <glyph glyph-name="uni0473" unicode="&#x473;" horiz-adv-x="608" 
d="M304 506c147 0 266 -112 266 -259c0 -146 -119 -259 -267 -259c-147 0 -264 113 -264 259c0 147 117 259 265 259zM304 390c-62 0 -110 -36 -129 -91c19 7 38 11 58 11c54 0 89 -26 143 -26c20 0 38 4 58 11c-17 58 -67 95 -130 95zM303 104c64 0 115 39 132 98
c-20 -7 -39 -11 -60 -11c-55 0 -89 25 -142 25c-21 0 -40 -4 -61 -12c16 -61 66 -100 131 -100z" />
    <glyph glyph-name="uni0475" unicode="&#x475;" horiz-adv-x="558" 
d="M503 504c41 0 66 -25 66 -60c0 -28 -11 -44 -36 -56s-36 -23 -49 -50l-147 -311c-10 -23 -35 -39 -60 -39s-49 16 -61 39l-184 374c-8 16 -11 27 -11 40c0 35 30 65 66 65c25 0 46 -11 59 -38l130 -274l101 214c31 66 69 96 126 96z" />
    <glyph glyph-name="uni0493" unicode="&#x493;" horiz-adv-x="480" 
d="M413 381h-204v-108h164c32 0 56 -24 56 -56s-24 -56 -56 -56h-164v-100c0 -39 -29 -68 -67 -68s-67 29 -67 68v100h-30c-32 0 -57 24 -57 56s25 56 57 56h30v153c0 39 29 69 68 69h270c33 0 57 -24 57 -57s-24 -57 -57 -57z" />
    <glyph glyph-name="uni0497" unicode="&#x497;" horiz-adv-x="876" 
d="M160 483l147 -167c16 -19 23 -33 23 -49c0 -14 -5 -27 -20 -48l-160 -207c-11 -17 -27 -24 -48 -24c-35 0 -62 27 -62 62c0 13 4 26 15 41l135 177l-120 131c-14 15 -20 30 -20 47c0 34 26 59 61 60c19 1 35 -6 49 -23zM784 103c39 0 68 -29 68 -68v-118
c0 -39 -28 -68 -67 -68c-38 0 -67 29 -67 68v71c-19 1 -33 9 -44 25l-147 206c-13 21 -19 34 -19 48c0 16 7 30 23 49l145 169c13 14 29 22 47 21c36 -1 61 -27 61 -61c0 -17 -7 -32 -19 -46l-121 -133l117 -163h23zM420 506c38 0 67 -29 67 -68v-381c0 -40 -29 -69 -67 -69
c-39 0 -68 30 -68 69v381c0 39 29 68 68 68z" />
    <glyph glyph-name="uni0499" unicode="&#x499;" horiz-adv-x="508" 
d="M463 137c0 -66 -46 -115 -122 -136c11 -21 18 -44 18 -64c0 -79 -61 -129 -154 -129c-29 0 -49 3 -65 9c-21 9 -32 23 -32 43c0 27 21 48 48 48c10 0 20 -1 32 -1c33 0 58 12 58 40c0 16 -5 30 -12 41c-65 2 -123 22 -160 53c-20 15 -29 31 -29 50c0 32 25 57 58 57
c12 0 22 -3 35 -12c26 -21 64 -32 107 -32c56 0 86 19 86 52c0 31 -26 48 -72 48h-48c-29 0 -51 22 -51 50c0 29 22 50 51 50h43c36 0 57 16 57 43c0 29 -24 43 -73 43c-40 0 -70 -8 -98 -27c-13 -9 -23 -13 -36 -13c-32 0 -58 26 -58 58c0 19 9 35 31 51
c37 29 96 47 163 47c124 0 203 -56 203 -145c0 -43 -18 -79 -50 -106c44 -26 70 -69 70 -118z" />
    <glyph glyph-name="uni049B" unicode="&#x49b;" horiz-adv-x="598" 
d="M140 506c39 0 67 -29 67 -68v-381c0 -39 -29 -69 -67 -69c-39 0 -68 30 -68 69v381c0 39 29 68 68 68zM516 114c39 0 69 -29 69 -68v-129c0 -39 -29 -68 -67 -68c-39 0 -68 29 -68 68v73c-14 3 -25 10 -33 21l-171 217c-10 14 -17 28 -17 42s6 30 18 42l160 173
c12 13 27 21 47 21c34 0 61 -26 61 -59c0 -17 -6 -30 -20 -46l-124 -132l125 -155h20z" />
    <glyph glyph-name="uni04A1" unicode="&#x4a1;" horiz-adv-x="598" 
d="M539 92c10 -14 16 -27 16 -42c0 -34 -28 -62 -62 -62c-21 0 -36 7 -48 22l-168 209c-14 18 -20 33 -20 48c0 16 6 31 23 50l157 169c12 13 28 21 47 20c35 -1 61 -27 61 -61c0 -16 -7 -33 -19 -46l-126 -133zM166 495c39 0 68 -30 68 -69v-369c0 -39 -28 -69 -67 -69
c-38 0 -67 30 -67 69v324h-43c-34 0 -59 24 -59 57c0 32 25 57 59 57h109z" />
    <glyph glyph-name="uni04A3" unicode="&#x4a3;" horiz-adv-x="645" 
d="M547 -153c-41 0 -71 31 -71 72v79l-16 2c-38 0 -66 29 -66 69v130h-187v-142c0 -39 -29 -69 -67 -69c-39 0 -68 30 -68 69v381c0 39 29 68 68 68c38 0 67 -29 67 -68v-124h187v124c0 39 28 68 67 68c38 0 67 -29 67 -68v-324h20c40 0 69 -29 69 -68v-127
c0 -41 -30 -72 -70 -72z" />
    <glyph glyph-name="uni04AB" unicode="&#x4ab;" horiz-adv-x="552" 
d="M456 183c33 0 60 -27 60 -60c0 -12 -3 -22 -11 -34c-26 -40 -65 -70 -113 -87c12 -21 19 -44 19 -65c0 -79 -61 -129 -154 -129c-29 0 -49 3 -65 9c-21 9 -32 23 -32 43c0 27 21 48 48 48c10 0 20 -1 32 -1c33 0 58 12 58 40c0 17 -5 30 -12 42c-140 9 -247 120 -247 259
c0 145 116 258 265 258c84 0 162 -40 200 -98c9 -14 12 -25 12 -36c0 -33 -27 -60 -60 -60c-19 0 -34 6 -46 21c-25 30 -60 50 -104 50c-76 0 -130 -56 -130 -135c0 -80 54 -136 130 -136c43 0 77 20 104 50c14 16 28 21 46 21z" />
    <glyph glyph-name="uni04AF" unicode="&#x4af;" horiz-adv-x="557" 
d="M534 441c0 -11 -3 -21 -8 -31l-181 -371v-162c0 -39 -29 -69 -67 -69c-39 0 -68 30 -68 69v166l-179 366c-5 11 -8 21 -8 32c0 35 30 65 65 65c26 0 48 -11 60 -38l131 -275l130 275c12 27 33 38 59 38c36 0 66 -30 66 -65z" />
    <glyph glyph-name="uni04B1" unicode="&#x4b1;" horiz-adv-x="569" 
d="M540 441c0 -11 -3 -21 -8 -31l-181 -371v-162c0 -39 -29 -69 -67 -69c-39 0 -68 30 -68 69v166l-179 366c-5 11 -8 21 -8 32c0 35 30 65 65 65c26 0 48 -11 60 -38l131 -275l130 275c12 27 33 38 59 38c36 0 66 -30 66 -65z" />
    <glyph glyph-name="uni04B3" unicode="&#x4b3;" horiz-adv-x="564" 
d="M493 104c39 0 68 -30 68 -69v-118c0 -39 -29 -68 -67 -68c-39 0 -68 29 -68 68v71c-22 0 -40 11 -56 30l-105 134l-105 -134c-15 -19 -34 -30 -55 -30c-37 0 -66 29 -66 65c0 16 7 32 21 50l120 149l-108 139c-16 22 -22 35 -22 50c0 36 29 65 66 65c21 0 40 -10 54 -29
l96 -124l98 124c16 20 34 29 55 29c36 0 65 -29 65 -65c0 -15 -6 -31 -22 -50l-110 -138l118 -149h23z" />
    <glyph glyph-name="uni04B7" unicode="&#x4b7;" horiz-adv-x="609" 
d="M513 107c39 0 68 -29 68 -68v-130c0 -40 -29 -69 -67 -69s-67 30 -67 69v84h-19c-39 0 -69 29 -69 68v108c-25 -8 -55 -13 -87 -13c-140 0 -233 93 -233 233v49c0 39 28 68 67 68c38 0 67 -29 67 -68v-40c0 -76 39 -118 110 -118c24 0 51 4 76 12v146c0 39 29 68 68 68
c38 0 67 -29 67 -68v-331h19z" />
    <glyph glyph-name="uni04BB" unicode="&#x4bb;" horiz-adv-x="596" 
d="M343 506c111 0 184 -79 184 -199v-250c0 -40 -28 -69 -67 -69c-38 0 -67 30 -67 69v231c0 58 -37 96 -92 96s-94 -39 -94 -96v-231c0 -40 -29 -69 -67 -69c-39 0 -68 30 -68 69v636c0 39 29 69 68 69c38 0 67 -29 67 -69v-241c34 34 81 54 136 54z" />
    <glyph glyph-name="uni04CF" unicode="&#x4cf;" horiz-adv-x="279" 
d="M140 -12c-39 0 -68 30 -68 69v636c0 39 28 69 68 69c38 0 67 -30 67 -69v-636c0 -39 -29 -69 -67 -69z" />
    <glyph glyph-name="uni04C2" unicode="&#x4c2;" horiz-adv-x="845" 
d="M422 573c-92 0 -171 68 -171 145c0 31 23 55 52 55c27 0 44 -13 52 -41c8 -35 33 -57 67 -57c33 0 58 22 66 57c8 27 26 41 51 41c30 0 53 -24 53 -55c0 -78 -77 -145 -170 -145zM163 483l147 -167c16 -19 23 -33 23 -49c0 -14 -5 -27 -20 -48l-160 -207
c-11 -17 -27 -24 -48 -24c-35 0 -62 27 -62 62c0 13 4 26 15 41l135 177l-120 131c-14 15 -20 30 -20 47c0 34 26 59 61 60c19 1 35 -6 49 -23zM786 91c10 -16 15 -28 15 -41c0 -35 -27 -62 -62 -62c-21 0 -36 8 -48 24l-160 207c-15 21 -20 34 -20 48c0 16 7 30 23 49
l147 167c14 17 30 24 49 23c35 -1 61 -26 61 -60c0 -17 -7 -32 -20 -47l-121 -131zM423 506c38 0 67 -29 67 -68v-381c0 -40 -29 -69 -67 -69c-39 0 -68 30 -68 69v381c0 39 29 68 68 68z" />
    <glyph glyph-name="uni04D1" unicode="&#x4d1;" horiz-adv-x="545" 
d="M271 573c-92 0 -171 68 -171 145c0 31 23 55 52 55c27 0 44 -13 52 -41c8 -35 33 -57 67 -57c33 0 58 22 66 57c8 27 26 41 51 41c30 0 53 -24 53 -55c0 -78 -77 -145 -170 -145zM268 506c136 0 214 -77 214 -212v-238c0 -39 -28 -67 -65 -67c-33 0 -59 22 -65 52
c-36 -34 -86 -53 -145 -53c-102 0 -171 60 -171 148c0 89 71 144 187 144h124v22c0 55 -33 87 -93 87c-35 0 -66 -12 -95 -37c-16 -12 -27 -16 -40 -16c-33 0 -58 25 -58 55c0 19 10 37 28 54c42 39 107 61 179 61zM243 87c59 0 104 42 104 98v6h-106c-45 0 -69 -17 -69 -50
s27 -54 71 -54z" />
    <glyph glyph-name="uni04D7" unicode="&#x4d7;" horiz-adv-x="569" 
d="M285 573c-92 0 -171 68 -171 145c0 31 23 55 52 55c27 0 44 -13 52 -41c8 -35 33 -57 67 -57c33 0 58 22 66 57c8 27 26 41 51 41c30 0 53 -24 53 -55c0 -78 -77 -145 -170 -145zM296 506c135 0 235 -98 235 -232v-3c0 -42 -30 -69 -74 -69h-282c16 -62 66 -98 139 -98
c36 0 73 10 103 29c10 6 19 9 29 9c31 0 55 -23 55 -54c0 -22 -10 -38 -34 -54c-45 -30 -99 -46 -157 -46c-156 0 -271 111 -271 259c0 147 111 259 257 259zM293 397c-59 0 -103 -39 -118 -100h225c-2 59 -44 100 -107 100z" />
    <glyph glyph-name="uni04D9" unicode="&#x4d9;" horiz-adv-x="569" 
d="M259 507c156 0 271 -111 271 -259c0 -147 -111 -259 -257 -259c-135 0 -235 98 -235 232v3c0 42 30 69 74 69h282c-16 62 -66 98 -139 98c-36 0 -73 -10 -103 -29c-10 -6 -19 -9 -29 -9c-31 0 -55 23 -55 54c0 22 10 38 34 54c45 30 99 46 157 46zM276 98
c59 0 103 39 118 100h-225c2 -59 44 -100 107 -100z" />
    <glyph glyph-name="uni04E3" unicode="&#x4e3;" horiz-adv-x="609" 
d="M206 622c-32 0 -56 23 -56 53s24 53 56 53h206c32 0 56 -23 56 -53s-24 -53 -56 -53h-206zM470 506c38 0 67 -29 67 -68v-381c0 -39 -29 -69 -67 -69s-67 30 -67 69v217l-204 -253c-19 -23 -37 -33 -60 -33c-38 0 -67 30 -67 69v381c0 39 29 68 68 68c38 0 67 -29 67 -68
v-220l203 255c19 23 37 33 60 33z" />
    <glyph glyph-name="uni04E7" unicode="&#x4e7;" horiz-adv-x="608" 
d="M185 754c45 0 81 -34 81 -79c0 -42 -37 -77 -81 -77c-43 0 -81 37 -81 77c0 44 37 79 81 79zM422 754c46 0 81 -34 81 -79c0 -42 -36 -77 -81 -77c-42 0 -80 37 -80 77c0 44 36 79 80 79zM304 506c148 0 266 -114 266 -258s-118 -259 -267 -259c-148 0 -264 114 -264 259
s116 258 265 258zM304 383c-74 0 -128 -57 -128 -136c0 -78 54 -134 128 -134c73 0 128 57 128 134c0 78 -55 136 -128 136z" />
    <glyph glyph-name="uni04E9" unicode="&#x4e9;" horiz-adv-x="608" 
d="M304 506c149 0 266 -113 266 -258s-117 -259 -267 -259c-148 0 -264 114 -264 259s116 258 265 258zM304 391c-63 -1 -111 -37 -129 -93h258c-18 56 -66 92 -129 93zM303 105c65 0 115 38 132 97h-262c16 -59 65 -97 130 -97z" />
    <glyph glyph-name="uni04EF" unicode="&#x4ef;" horiz-adv-x="559" 
d="M177 622c-32 0 -56 23 -56 53s24 53 56 53h206c32 0 56 -23 56 -53s-24 -53 -56 -53h-206zM473 506c35 0 65 -30 65 -65c0 -10 -2 -20 -8 -31l-218 -447c-53 -109 -113 -155 -203 -155c-22 0 -42 4 -57 11c-21 9 -34 30 -34 53c0 33 27 58 61 58c5 0 9 -1 12 -1
c43 0 72 18 94 63l18 40l-171 377c-6 12 -9 22 -9 32c0 35 30 65 66 65c26 0 49 -14 59 -38l131 -293l134 293c10 23 33 38 60 38z" />
    <glyph glyph-name="uni04F3" unicode="&#x4f3;" horiz-adv-x="559" 
d="M207 562c-38 2 -60 32 -58 63c0 10 4 21 8 30l47 107c11 25 38 39 62 39c39 0 67 -32 67 -68c0 -12 -3 -24 -11 -37l-62 -103c-12 -19 -32 -32 -53 -31zM399 562c-38 2 -60 32 -58 63c0 10 4 21 8 30l47 107c11 25 38 39 62 39c39 0 67 -32 67 -68c0 -12 -3 -24 -11 -37
l-62 -103c-12 -19 -32 -32 -53 -31zM473 506c35 0 65 -30 65 -65c0 -10 -2 -20 -8 -31l-218 -447c-53 -109 -113 -155 -203 -155c-22 0 -42 4 -57 11c-21 9 -34 30 -34 53c0 33 27 58 61 58c5 0 9 -1 12 -1c43 0 72 18 94 63l18 40l-171 377c-6 12 -9 22 -9 32
c0 35 30 65 66 65c26 0 49 -14 59 -38l131 -293l134 293c10 23 33 38 60 38z" />
    </font>
</defs>
</svg>
