<svg xmlns="http://www.w3.org/2000/svg" xmlns:xlink="http://www.w3.org/1999/xlink" width="320" height="668" viewBox="0 0 320 668"><defs><clipPath id="a"><rect width="320" height="668" fill="#fff"/></clipPath><clipPath id="b"><rect width="1023" height="1023" fill="none"/></clipPath></defs><g clip-path="url(#a)"><g transform="translate(-4)"><rect width="1023" height="1023" fill="#fdd3ca"/><g clip-path="url(#b)"><path d="M1155.308,868.98c-130.036,41.437-273.25,18.24-400.017-32.331-105.076-41.918-204.19-103.514-277.02-190.1C411.14,566.728,368.535,468.7,302.02,388.361,217.59,286.389,97.3,216.11,24.8,105.333,4.611,74.48-11.1,32.593,10.1,2.427,24.345-17.837,50.5-25.254,74.717-30.427c159.77-34.14,325.737-30.714,487.567-8.284C764.119-10.736,967.443,49.5,1126.015,177.511c44.786,36.153,85.943,77.918,114.572,127.859,39.353,68.643,52.992,148.719,63.025,227.21,8.455,66.149,13.946,136.161-5.129,201.047C1277.225,805.936,1225.558,846.594,1155.308,868.98Z" transform="translate(0 -58.417)" fill="#fdc4b9"/><path d="M226.192,275.9c82.64,61.041,101.485,193.977,194.882,236.771C596.347,592.976,753.034,740.254,741.657,789.9c-15.7,68.517-90.982,104.958-159.929,118.527C434.78,937.34,282.443,906.407,139.97,860.234,117.059,852.807,94,844.855,73.848,831.663,48.579,815.121,29.111,791.14,11.926,766.3A614.612,614.612,0,0,1-69.817,597.947c-18.956-61.522-28.087-127.685-13.564-190.4C-69.361,347-22.359,278.088,32.366,245.868,89.286,212.359,177.25,239.745,226.192,275.9Z" transform="translate(-94.68 241.424)" fill="#fdc4b9"/><path d="M852.066,242.847c17.778,53.622,17.6,114.97-9.724,164.409-7.445,13.466-17,26.109-29.75,34.725-17.049,11.528-38.389,14.925-58.968,14.835-57.642-.256-114.648-26.909-151.818-70.985-17.778-21.083-30.99-45.586-47.184-67.907A310.447,310.447,0,0,0,423.993,214.47c-34.856-14.591-73.045-23.134-103.192-45.923-40.331-30.493-60.052-85.869-48.076-135s55.731-85.537,104.8-97.712C651.353-132.112,834.288,189.225,852.066,242.847Z" transform="translate(281.581 -76.972)" fill="#fdad9d"/><path d="M530.041,735.873c20.09-21.511-2.357-58.808-17.782-83.878C460.714,568.232,361.947,528.752,270.6,492.361c-10.61-4.226-21.436-8.62-30-16.18-22.2-19.6-21.661-53.557-31.231-81.59C163.031,258.837-150.159,265.28-67.72,534.334,29.785,852.552,411.829,862.44,530.041,735.873Z" transform="translate(-85.203 321.921)" fill="#fdad9d"/><g transform="translate(513.986 -175.589)"><path d="M257.226-27.288A342.216,342.216,0,0,0,280.945,59.07c6.42,15.205,14.022,30.067,24.433,42.874,29.322,36.061,81.306,51.829,125.712,38.13C473.265,127.061,508.463,90.43,552.6,90.709c28.189.176,53.872,15.795,76.22,32.983s43.586,36.784,69.741,47.3,59.467,9.633,78.834-10.861" transform="translate(-244.982 147.032)" fill="none" stroke="#edeef3" stroke-miterlimit="10" stroke-width="1"/><path d="M256.029-38.991a342.279,342.279,0,0,0,23.719,86.358c6.42,15.207,14.022,30.069,24.433,42.876,29.322,36.061,81.306,51.829,125.712,38.128C472.068,115.36,507.266,78.727,551.4,79.006c28.189.178,53.872,15.8,76.22,32.985s43.583,36.782,69.741,47.3,59.467,9.631,78.835-10.861" transform="translate(-246.234 134.785)" fill="none" stroke="#edeef3" stroke-miterlimit="10" stroke-width="1"/><path d="M254.832-50.693a342.3,342.3,0,0,0,23.719,86.358c6.42,15.208,14.022,30.069,24.433,42.874,29.322,36.063,81.306,51.832,125.712,38.13,42.176-13.012,77.374-49.644,121.512-49.366,28.189.178,53.872,15.8,76.22,32.985s43.585,36.782,69.741,47.3,59.467,9.631,78.834-10.861" transform="translate(-247.486 122.539)" fill="none" stroke="#edeef3" stroke-miterlimit="10" stroke-width="1"/><path d="M253.635-62.4a342.212,342.212,0,0,0,23.719,86.358c6.42,15.205,14.022,30.069,24.433,42.874,29.322,36.061,81.306,51.829,125.712,38.13C469.674,91.954,504.872,55.323,549.01,55.6c28.189.178,53.872,15.795,76.22,32.983s43.584,36.784,69.741,47.3,59.467,9.633,78.834-10.861" transform="translate(-248.737 110.293)" fill="none" stroke="#edeef3" stroke-miterlimit="10" stroke-width="1"/><path d="M252.438-74.1a342.3,342.3,0,0,0,23.719,86.358c6.42,15.205,14.022,30.067,24.433,42.874C329.912,91.2,381.9,106.964,426.3,93.265,468.477,80.252,503.675,43.621,547.813,43.9c28.189.176,53.87,15.795,76.22,32.983s43.584,36.784,69.741,47.3,59.467,9.631,78.834-10.861" transform="translate(-249.989 98.047)" fill="none" stroke="#edeef3" stroke-miterlimit="10" stroke-width="1"/><path d="M251.241-85.8A342.108,342.108,0,0,0,274.96.558c6.42,15.207,14.022,30.069,24.433,42.876C328.715,79.5,380.7,95.264,425.1,81.562,467.28,68.551,502.478,31.918,546.616,32.2c28.189.178,53.87,15.8,76.22,32.985s43.583,36.782,69.741,47.3,59.467,9.631,78.834-10.861" transform="translate(-251.241 85.8)" fill="none" stroke="#edeef3" stroke-miterlimit="10" stroke-width="1"/></g><g transform="translate(-146.775 570.792)"><path d="M182.765,679.1a284.428,284.428,0,0,0,31.785-67.309c4.184-13.067,7.434-26.557,7.8-40.273,1.029-38.625-23.222-76.729-58.64-92.141-33.643-14.638-75.67-10.6-103.355-34.686C42.671,429.3,34.93,405.545,30.139,382.6s-7.578-46.807-18.379-67.608-32.291-38.286-55.6-35.852" transform="translate(100.931 -278.912)" fill="none" stroke="#edeef3" stroke-miterlimit="10" stroke-width="0.831"/><path d="M177.183,687.125a284.4,284.4,0,0,0,31.787-67.311c4.182-13.067,7.432-26.557,7.8-40.273,1.027-38.626-23.222-76.727-58.643-92.141-33.643-14.639-75.67-10.6-103.353-34.684-17.684-15.382-25.425-39.143-30.214-62.089s-7.578-46.805-18.381-67.608-32.291-38.286-55.6-35.85" transform="translate(95.093 -270.51)" fill="none" stroke="#edeef3" stroke-miterlimit="10" stroke-width="0.831"/><path d="M171.6,695.153a284.351,284.351,0,0,0,31.787-67.309c4.184-13.069,7.434-26.559,7.8-40.275,1.029-38.626-23.222-76.727-58.64-92.139-33.645-14.641-75.67-10.6-103.355-34.686C31.508,445.362,23.765,421.6,18.976,398.654S11.4,351.849.6,331.049-31.694,292.763-55,295.2" transform="translate(89.257 -262.109)" fill="none" stroke="#edeef3" stroke-miterlimit="10" stroke-width="0.831"/><path d="M166.02,703.181a284.425,284.425,0,0,0,31.785-67.309c4.184-13.067,7.434-26.557,7.8-40.273,1.029-38.626-23.22-76.729-58.64-92.141-33.643-14.639-75.67-10.6-103.355-34.686C25.926,453.39,18.185,429.63,13.394,406.685S5.818,359.877-4.986,339.077s-32.291-38.286-55.6-35.853" transform="translate(83.419 -253.707)" fill="none" stroke="#edeef3" stroke-miterlimit="10" stroke-width="0.831"/><path d="M160.438,711.21A284.409,284.409,0,0,0,192.225,643.9c4.182-13.067,7.432-26.557,7.8-40.273C201.051,565,176.8,526.9,141.381,511.484c-33.643-14.638-75.668-10.6-103.353-34.684C20.346,461.419,12.6,437.657,7.814,414.712S.236,367.906-10.568,347.1s-32.289-38.286-55.6-35.851" transform="translate(77.582 -245.305)" fill="none" stroke="#edeef3" stroke-miterlimit="10" stroke-width="0.831"/><path d="M154.855,719.237a284.351,284.351,0,0,0,31.787-67.309c4.184-13.067,7.434-26.559,7.8-40.275,1.029-38.626-23.222-76.727-58.64-92.139-33.643-14.641-75.67-10.6-103.355-34.686C14.763,469.447,7.022,445.687,2.231,422.739s-7.578-46.805-18.379-67.606-32.291-38.286-55.6-35.852" transform="translate(71.745 -236.904)" fill="none" stroke="#edeef3" stroke-miterlimit="10" stroke-width="0.831"/></g><path d="M558.384,210.639c-19.727-6.485-36.808-19.012-53.52-31.344-27.788-20.51-56.486-42.049-72.675-72.563-10.642-20.06-15.172-42.87-16.651-65.531-1.6-24.529,1.074-51.361,17.653-69.5,16.348-17.89,42.19-23.064,66.306-25.413,53.145-5.178,112.561,1,149.525,39.548,16.031,16.72,26.288,38.04,35.591,59.256,9.094,20.739,17.7,42.819,15.466,65.355-2.13,21.474-12.428,67.976-30.247,82.578C642.4,215.5,591.063,221.383,558.384,210.639Z" transform="translate(434.147 -57.864)" fill="#fdd3ca"/><path d="M104.688,391.121c23.43,9.6,46.2,24.339,57.689,46.91,14.253,28,9.705,64.872,30.963,88,25.382,27.613,69.862,18.848,106.747,25.606,40.578,7.433,77.022,39.42,84.581,79.989,8.4,45.094-19.523,91.3-58.456,115.537s-86.586,30.094-132.436,29.451c-63.393-.884-130.415-15.05-175.932-59.2-24.539-23.8-41.039-54.613-55.011-85.82C-67,564.974-86.8,488.421-66.111,416.131-48.055,353.041,58.612,372.242,104.688,391.121Z" transform="translate(-78.056 390.184)" fill="#edeef3"/></g></g></g></svg>