<svg xmlns="http://www.w3.org/2000/svg" xmlns:xlink="http://www.w3.org/1999/xlink" width="320" height="1192" viewBox="0 0 320 1192"><defs><clipPath id="a"><rect width="320" height="1192" fill="#fff"/></clipPath><clipPath id="b"><rect width="1531" height="1531" fill="none"/></clipPath></defs><g clip-path="url(#a)"><g transform="translate(-627 -33)"><rect width="1531" height="1531" fill="#fdd3ca"/><g clip-path="url(#b)"><path d="M1728.638,1327.92c-194.568,62-408.852,27.292-598.528-48.375-157.22-62.721-305.521-154.883-414.493-284.446C615.172,875.672,551.423,728.992,451.9,608.79,325.571,456.213,145.592,351.058,37.112,185.308,6.9,139.144-16.615,76.469,15.113,31.334,36.427,1.013,75.559-10.084,111.8-17.825,350.852-68.906,599.181-63.78,841.32-30.22c302,41.859,606.224,131.991,843.487,323.524,67.012,54.095,128.594,116.586,171.43,191.31,58.882,102.708,79.29,222.521,94.3,339.964,12.651,98.976,20.867,203.732-7.674,300.819C1911.056,1233.589,1833.75,1294.424,1728.638,1327.92Z" transform="translate(-0.001 -115.109)" fill="#fdc4b9"/><path d="M383.37,298.327C507.02,389.659,535.218,588.566,674.963,652.6c262.253,120.162,496.7,340.528,479.675,414.8-23.5,102.518-136.133,157.045-239.3,177.346-219.87,43.267-447.807-3.016-660.982-72.1-34.28-11.112-68.784-23.012-98.935-42.75-37.81-24.751-66.939-60.632-92.651-97.8A919.616,919.616,0,0,1-59.536,780.2C-87.9,688.145-101.561,589.148-79.831,495.3c20.977-90.592,91.3-193.7,173.187-241.907C178.523,203.258,310.141,244.235,383.37,298.327Z" transform="translate(-186.595 475.718)" fill="#fdc4b9"/><path d="M1141.291,399.862c26.6,80.233,26.337,172.025-14.549,246-11.139,20.148-25.443,39.066-44.514,51.957-25.51,17.249-57.44,22.332-88.231,22.2-86.247-.383-171.543-40.263-227.159-106.211-26.6-31.545-46.368-68.208-70.6-101.606A464.508,464.508,0,0,0,500.783,357.4c-52.154-21.833-109.294-34.614-154.4-68.713C286.037,243.065,256.529,160.208,274.448,86.7S357.837-41.289,431.255-59.5C840.973-161.172,1114.69,319.63,1141.291,399.862Z" transform="translate(554.936 -151.671)" fill="#fdad9d"/><path d="M833.509,948.4c30.059-32.186-3.526-87.992-26.606-125.5C729.777,697.564,582,638.49,445.313,584.04c-15.875-6.323-32.073-12.9-44.884-24.209C367.211,530.5,368.019,479.7,353.7,437.753,284.367,234.63-184.245,244.269-60.895,646.844,85,1122.979,656.634,1137.775,833.509,948.4Z" transform="translate(-167.917 634.334)" fill="#fdad9d"/><g transform="translate(769.055 -262.726)"><path d="M257.226-27.288a512.043,512.043,0,0,0,35.49,129.214c9.606,22.751,20.98,44.988,36.558,64.151,43.874,53.957,121.654,77.55,188.1,57.053,63.106-19.472,115.771-74.28,181.812-73.863,42.178.263,80.606,23.633,114.045,49.352s65.215,55.038,104.35,70.774,88.978,14.413,117.957-16.25" transform="translate(-238.906 206.456)" fill="none" stroke="#edeef3" stroke-miterlimit="10" stroke-width="1"/><path d="M256.029-38.991A512.139,512.139,0,0,0,291.518,90.223c9.606,22.754,20.98,44.991,36.558,64.154,43.874,53.957,121.654,77.55,188.1,57.05,63.106-19.469,115.771-74.28,181.813-73.864,42.178.266,80.606,23.636,114.044,49.355s65.212,55.035,104.35,70.774,88.978,14.41,117.957-16.25" transform="translate(-241.373 182.324)" fill="none" stroke="#edeef3" stroke-miterlimit="10" stroke-width="1"/><path d="M254.832-50.693A512.169,512.169,0,0,0,290.321,78.521c9.606,22.754,20.98,44.991,36.558,64.151,43.874,53.96,121.654,77.553,188.1,57.053,63.106-19.469,115.771-74.28,181.813-73.863,42.178.266,80.606,23.636,114.045,49.355s65.215,55.035,104.35,70.774,88.978,14.41,117.956-16.25" transform="translate(-243.84 158.193)" fill="none" stroke="#edeef3" stroke-miterlimit="10" stroke-width="1"/><path d="M253.635-62.4a512.038,512.038,0,0,0,35.49,129.214c9.605,22.751,20.98,44.991,36.558,64.151,43.874,53.957,121.654,77.55,188.1,57.053,63.106-19.472,115.771-74.28,181.813-73.863,42.178.266,80.606,23.633,114.045,49.352s65.212,55.038,104.351,70.774,88.978,14.413,117.957-16.25" transform="translate(-246.307 134.063)" fill="none" stroke="#edeef3" stroke-miterlimit="10" stroke-width="1"/><path d="M252.438-74.1a512.165,512.165,0,0,0,35.49,129.214c9.605,22.751,20.98,44.988,36.558,64.151,43.874,53.957,121.654,77.55,188.1,57.053,63.106-19.472,115.771-74.28,181.813-73.863,42.178.263,80.6,23.633,114.045,49.352s65.212,55.038,104.351,70.774,88.978,14.41,117.957-16.25" transform="translate(-248.774 109.933)" fill="none" stroke="#edeef3" stroke-miterlimit="10" stroke-width="1"/><path d="M251.241-85.8A511.88,511.88,0,0,0,286.73,43.414c9.605,22.754,20.98,44.991,36.558,64.154,43.874,53.957,121.654,77.55,188.1,57.05,63.106-19.469,115.771-74.28,181.813-73.863,42.178.266,80.6,23.636,114.044,49.355s65.212,55.035,104.35,70.774,88.978,14.41,117.957-16.25" transform="translate(-251.241 85.8)" fill="none" stroke="#edeef3" stroke-miterlimit="10" stroke-width="1"/></g><g transform="translate(-219.613 854.051)"><path d="M295.217,877.689a425.578,425.578,0,0,0,47.559-100.712c6.26-19.551,11.124-39.737,11.669-60.259,1.54-57.794-34.746-114.807-87.741-137.867-50.339-21.9-113.221-15.865-154.646-51.9-26.456-23.015-38.039-58.565-45.208-92.9S55.512,364.019,39.349,332.9s-48.315-57.285-83.186-53.644" transform="translate(129.264 -278.912)" fill="none" stroke="#edeef3" stroke-miterlimit="10" stroke-width="0.831"/><path d="M289.635,885.719A425.539,425.539,0,0,0,337.2,785c6.257-19.551,11.121-39.737,11.669-60.259,1.537-57.794-34.746-114.8-87.744-137.867-50.339-21.9-113.221-15.865-154.643-51.9-26.459-23.015-38.042-58.568-45.208-92.9s-11.338-70.033-27.5-101.159-48.315-57.285-83.186-53.642" transform="translate(117.759 -262.356)" fill="none" stroke="#edeef3" stroke-miterlimit="10" stroke-width="0.831"/><path d="M284.051,893.746a425.465,425.465,0,0,0,47.562-100.712c6.26-19.554,11.124-39.74,11.669-60.262,1.54-57.794-34.746-114.8-87.741-137.864C205.2,573,142.32,579.044,100.895,543.009c-26.456-23.015-38.042-58.565-45.208-92.9s-11.338-70.033-27.5-101.156S-20.129,291.668-55,295.309" transform="translate(106.257 -245.801)" fill="none" stroke="#edeef3" stroke-miterlimit="10" stroke-width="0.831"/><path d="M278.472,901.774a425.572,425.572,0,0,0,47.559-100.712c6.26-19.551,11.124-39.737,11.669-60.259C339.24,683.01,302.958,626,249.959,602.937c-50.339-21.9-113.221-15.865-154.646-51.9-26.456-23.015-38.039-58.565-45.208-92.9S38.77,388.1,22.6,356.981-25.711,299.7-60.582,303.337" transform="translate(94.752 -229.247)" fill="none" stroke="#edeef3" stroke-miterlimit="10" stroke-width="0.831"/><path d="M272.89,909.8a425.546,425.546,0,0,0,47.562-100.715c6.257-19.552,11.121-39.737,11.669-60.259,1.537-57.794-34.746-114.8-87.744-137.867-50.339-21.9-113.218-15.862-154.643-51.9-26.456-23.015-38.042-58.568-45.208-92.9s-11.338-70.033-27.5-101.159-48.312-57.285-83.186-53.642" transform="translate(83.248 -212.691)" fill="none" stroke="#edeef3" stroke-miterlimit="10" stroke-width="0.831"/><path d="M267.306,917.831a425.466,425.466,0,0,0,47.562-100.712c6.26-19.551,11.124-39.74,11.669-60.262,1.54-57.794-34.746-114.8-87.741-137.864-50.339-21.906-113.221-15.865-154.646-51.9-26.456-23.015-38.039-58.565-45.208-92.9S27.6,404.161,11.441,373.038s-48.315-57.285-83.186-53.644" transform="translate(71.745 -196.136)" fill="none" stroke="#edeef3" stroke-miterlimit="10" stroke-width="0.831"/></g><path d="M629.471,342.609c-29.517-9.7-55.074-28.447-80.079-46.9-41.578-30.688-84.518-62.917-108.74-108.572-15.923-30.015-22.7-64.144-24.914-98.051-2.4-36.7,1.607-76.849,26.414-103.994,24.461-26.769,63.127-34.51,99.211-38.025,79.519-7.747,168.421,1.5,223.727,59.175,23.986,25.017,39.334,56.918,53.253,88.663,13.606,31.031,26.487,64.068,23.141,97.788-3.186,32.13-18.6,101.71-45.257,123.558C755.187,349.881,678.367,358.685,629.471,342.609Z" transform="translate(855.61 -114.019)" fill="#fdd3ca"/><path d="M193.679,400.188C228.737,414.552,262.8,436.606,280,470.377c21.326,41.889,14.522,97.065,46.329,131.669,37.978,41.317,104.531,28.2,159.721,38.313,60.715,11.121,115.244,58.982,126.555,119.684,12.572,67.473-29.211,136.609-87.466,172.873s-129.555,45.028-198.158,44.066c-94.852-1.323-195.134-22.518-263.239-88.577C27.022,852.791,2.334,806.692-18.572,760c-44.633-99.68-74.26-214.223-43.307-322.388C-34.863,343.212,124.739,371.94,193.679,400.188Z" transform="translate(-153.831 768.844)" fill="#edeef3"/></g></g></g></svg>