<?xml version="1.0" standalone="no"?>
<!DOCTYPE svg PUBLIC "-//W3C//DTD SVG 20010904//EN"
 "http://www.w3.org/TR/2001/REC-SVG-20010904/DTD/svg10.dtd">
<svg version="1.0" xmlns="http://www.w3.org/2000/svg"
 width="700.000000pt" height="700.000000pt" viewBox="0 0 700.000000 700.000000"
 preserveAspectRatio="xMidYMid meet">
<metadata>
Created by potrace 1.14, written by Peter Selinger 2001-2017
</metadata>
<g transform="translate(0.000000,700.000000) scale(0.100000,-0.100000)"
fill="#000000" stroke="none">
<path d="M4187 5394 c-1 -1 -51 -5 -112 -8 -60 -4 -135 -9 -165 -11 -30 -2
-99 -6 -154 -9 -54 -4 -126 -8 -160 -11 -33 -2 -106 -7 -161 -10 -55 -4 -120
-8 -145 -10 -25 -2 -92 -6 -150 -10 -58 -3 -132 -8 -165 -10 -57 -4 -176 -11
-310 -20 -61 -4 -206 -13 -305 -20 -30 -2 -102 -7 -160 -10 -243 -14 -275 -20
-331 -61 -95 -69 -112 -115 -124 -337 -2 -43 -6 -108 -9 -145 -3 -37 -8 -103
-11 -147 -9 -130 -15 -226 -20 -290 -3 -33 -7 -107 -11 -165 -3 -58 -7 -123
-10 -145 -2 -22 -6 -80 -9 -130 -3 -49 -7 -115 -10 -145 -2 -30 -7 -95 -10
-145 -3 -49 -8 -119 -11 -155 -5 -75 -10 -156 -19 -290 -4 -52 -8 -113 -11
-135 -2 -22 -4 -96 -4 -165 -1 -117 2 -173 15 -295 3 -27 8 -72 11 -100 7 -75
34 -236 44 -270 5 -16 11 -41 14 -55 20 -108 91 -300 162 -442 48 -97 191
-317 244 -378 42 -48 173 -181 197 -201 157 -128 305 -221 461 -289 96 -41
269 -97 332 -106 19 -3 42 -7 50 -9 51 -13 123 -19 255 -19 154 -1 249 7 320
25 22 6 48 13 59 15 62 12 228 76 306 117 294 158 539 443 659 768 54 144 87
337 86 500 l0 117 135 -1 c267 0 492 62 729 202 79 47 209 148 270 210 209
214 357 522 388 810 13 122 7 352 -12 441 -3 14 -8 39 -11 55 -47 265 -224
607 -434 839 -313 345 -861 596 -1400 642 -70 5 -298 12 -303 8z"/>
</g>
</svg>
