<svg xmlns="http://www.w3.org/2000/svg" viewBox="0 0 44.943 56.399"><path fill="#2a56bc" d="M38.334 20.709h-3.746v-9.917A10.918 10.918 0 0023.573 0H21.26a10.918 10.918 0 00-11.016 10.792v9.917H6.609A6.616 6.616 0 000 27.318v6.609a22.479 22.479 0 0032.854 19.934 2.2 2.2 0 00-2.039-3.906 17.859 17.859 0 01-8.344 2.037A18.086 18.086 0 014.406 33.927v-6.609a2.206 2.206 0 012.2-2.2h31.728a2.206 2.206 0 012.2 2.2v6.609a18.048 18.048 0 01-2.472 9.129 2.2 2.2 0 103.8 2.23 22.455 22.455 0 003.079-11.359v-6.609a6.616 6.616 0 00-6.609-6.609zM14.65 10.792a6.508 6.508 0 016.61-6.386h2.313a6.508 6.508 0 016.609 6.386v9.917H14.65zm5.614 32.168v-4.836a4.076 4.076 0 114.406.005v4.831a2.2 2.2 0 01-4.406 0zm0 0"/></svg>