<svg xmlns="http://www.w3.org/2000/svg" viewBox="0 0 24 20.22"><defs><filter id="a" width="10" height="10" x="14" y="0" filterUnits="userSpaceOnUse"><feOffset/><feGaussianBlur result="b" stdDeviation="1"/><feFlood flood-opacity="0"/><feComposite in2="b" operator="in"/><feComposite in="SourceGraphic"/></filter></defs><path fill="#2a56bc" d="M1 11.22h22a1 1 0 010 2H1a1 1 0 010-2zM6 18.22h12a1 1 0 010 2H6a1 1 0 010-2zM15.19 6.22h-9.2a1 1 0 01-1-1 1 1 0 011-1h9.08A4.03 4.03 0 0015 5a4 4 0 00.19 1.22z"/><g filter="url(#a)"><path fill="#ff9d88" d="M19 3a2 2 0 11-2 2 2 2 0 012-2z"/></g></svg>